<?xml version="1.0" encoding="utf-8"?>
<!-- Generator: Adobe Illustrator 23.0.0, SVG Export Plug-In . SVG Version: 6.00 Build 0)  -->
<svg version="1.1" id="Seal" xmlns="http://www.w3.org/2000/svg" xmlns:xlink="http://www.w3.org/1999/xlink" width="300" height="300"
	 x="0px" y="0px" viewBox="0 0 414.8 414.8" style="enable-background:new 0 0 414.8 414.8;" xml:space="preserve">
<style type="text/css">
	.st0{fill:#8A2432;}
</style>
<g>
	<path class="st0" d="M94.9,284.3c0.2,0,0.4,0,0.7,0c0,0,0,0.1,0,0.1c-0.2,0-0.5,0-0.7,0.1C94.9,284.4,94.9,284.3,94.9,284.3z"/>
	<path class="st0" d="M209.9,414.8c-1.1,0-2.1,0-3-0.1c-2,0-4-0.1-5.9-0.2c-4.9-0.3-10-0.6-15.1-1.3c-5.6-0.7-11.3-1.7-16.9-3
		c-3.7-0.8-7.8-1.8-12.8-3.1l-1.2-0.3c-3.5-0.9-7.2-1.9-10.8-3c-3.7-1.2-7.4-2.6-11-4l-1.6-0.6c-2.9-1.1-5.7-2.3-8.1-3.3
		c-1.1-0.5-2.2-1-3.2-1.5c-0.5-0.2-1-0.5-1.5-0.7c-4.7-2.3-9.6-4.9-15.3-8.2c-0.8-0.5-1.7-1-2.6-1.5c-2.1-1.2-4.2-2.4-6.2-3.7
		c-2-1.2-3.9-2.6-5.8-3.9c-0.7-0.5-1.5-1.1-2.2-1.6c-4.5-3.1-8.6-6.7-12.7-10.3c-1-0.9-2.1-1.8-3.1-2.7c-3.5-3-7.1-6.3-11.5-10.3
		c-1.9-1.7-4.3-4.1-6.6-6.6c-3-3.4-5.8-6.7-8.3-10c-1.7-2.2-3.4-4.6-5-6.9c-0.9-1.3-1.9-2.7-2.8-4c-0.5-0.8-1.1-1.5-1.7-2.2
		c-0.3-0.4-0.6-0.7-0.9-1.1c-0.1-0.2-0.2-0.3-0.3-0.5l-0.1-0.1c-0.7-1-1.3-2.1-2-3.1c-1.6-2.4-3.2-4.9-4.7-7.3c-2-3.3-3.5-6-4.8-8.7
		c-2.7-5.5-4.8-10.1-6.6-14.5c-2.2-5.2-4.1-10.5-6-15.5c-1.4-3.9-2.5-8-3.4-11.9c-0.2-0.9-0.5-1.9-0.7-2.8c-0.9-3.3-1.6-6.3-2.2-9.2
		c-0.5-2-0.8-3.9-1-5.7c-0.6-4.6-1.1-8.5-1.5-12.5c-0.4-4-0.7-8.1-0.8-12.2c-0.1-1.9,0-3.8,0-5.6c0-1,0-2,0-3.1c0-2.3,0-4.5,0-6.8
		l0-0.1c-0.1-4.1-0.1-8.3,0.3-12.4c0.4-3.8,0.9-7.7,1.4-11.4l0.4-3.4c0.1-0.8,0.2-1.7,0.3-2.5c0.3-2.3,0.5-4.6,1-6.9
		c0.5-2.5,1.1-5.1,1.7-7.6c0.2-0.9,0.4-1.8,0.7-2.7l0.3-1.5c0.4-1.8,0.8-3.6,1.3-5.3c1-3.4,1.9-6.2,2.8-8.7
		c1.4-3.7,2.8-7.2,4.2-10.5c1.2-2.9,2.6-5.9,4.4-9.5l0.2-0.5c1.6-3.3,3.3-6.7,5.2-10c3-5.1,6.1-10.3,9.4-15.4
		c1.2-1.8,2.5-3.6,3.9-5.3c0.6-0.7,1.1-1.5,1.7-2.2c0.6-0.8,1.1-1.5,1.7-2.3c1.4-1.9,2.8-3.8,4.3-5.7c2.9-3.5,5.5-6.5,8-9.3
		c3.2-3.5,6.7-7,10.2-10.5c2.4-2.4,5-4.6,7.6-6.8l0.2-0.2c2-1.7,4.2-3.5,7-5.8c4-3.1,7.9-6.2,12.1-8.8c4.5-2.8,8.2-5.1,11.6-7.1
		c3-1.7,6.2-3.6,9.5-5.2c0.8-0.4,1.7-0.8,2.5-1.3c1-0.6,2.1-1.1,3.2-1.6c3.4-1.5,6.8-3,10.2-4.5c2-0.9,3.9-1.8,5.9-2.7
		c4.1-1.9,8.5-3.1,12.3-4.1c3.3-0.9,6.6-1.7,10-2.5c0.6-0.1,1.1-0.3,1.7-0.4c2.2-0.5,4.5-1.1,6.7-1.4c0.6-0.1,1.3-0.3,1.8-0.4
		c0.6-0.2,1.3-0.4,1.9-0.4c0.9-0.1,1.8-0.3,2.6-0.5c0.4-0.1,0.8-0.2,1.3-0.3l0.8-0.2c1-0.2,2-0.4,3-0.6c0.7-0.1,1.5-0.2,2.2-0.3
		l0.9-0.1l3.4-0.4c3-0.3,6-0.6,9.1-0.9c1.2-0.1,2.4-0.2,3.6-0.3c0.6,0,1.2-0.1,1.8-0.1c0.6,0,1.2-0.1,1.7-0.1
		c1.2-0.1,2.5-0.2,3.7-0.2c0.3,0,0.6,0,0.9,0c1.2,0,2.3,0,3.5,0c0.8,0,1.7,0,2.5,0c1,0,2,0,3,0c1.7,0,3.5,0,5.3,0
		c1.6,0,3.2,0.2,4.8,0.3l0.9,0.1c1.1,0.1,2.3,0.2,3.4,0.3c2,0.2,4,0.4,6,0.5c2.9,0.2,5.7,0.6,8.5,1.1c1.3,0.2,2.7,0.4,4,0.6
		c2.9,0.4,5.8,1.2,8.6,2c0.8,0.2,1.5,0.4,2.3,0.6c3.9,1.1,7.9,2.3,11.7,3.5l2.5,0.8c6.7,2.1,13.2,4.7,19.4,7.3
		c4.8,2,9.9,4.5,15.4,7.7c1.4,0.8,2.7,1.6,4.1,2.4c1.4,0.9,2.9,1.8,4.4,2.6c3.5,2,6.8,4.3,10.7,7c1.8,1.3,3.6,2.6,5.5,3.8l2.5,1.8
		c5.2,3.6,10.4,7.9,16.4,13.6c0.7,0.7,1.5,1.4,2.2,2c1.3,1.2,2.7,2.4,3.9,3.7c3.8,4,6.8,7.2,9.4,10.3c2.7,3.2,5.2,6.4,8.1,10.3
		c2.5,3.3,4.8,6.4,6.9,9.5c1.7,2.5,3.4,5.2,5.3,8.3c2,3.3,3.9,6.7,5.7,9.9c1.5,2.7,3.2,5.8,4.8,9c0.8,1.7,1.6,3.5,2.3,5.2l0.6,1.3
		c0.8,1.8,1.6,3.7,2.3,5.6c2.2,5.5,4.1,10.9,5.6,16.3c1.2,4.3,2.6,9.3,3.7,14.6c0.2,1,0.4,2,0.6,3c0.7,3.4,1.5,6.9,2.1,10.3
		c0.8,4.7,1.4,8.5,1.8,12.2c0.5,4.5,0.8,9.4,1,15c0.1,4.4,0.1,8.1,0,11.5c-0.2,4.2-0.5,8.4-0.9,12.6c-0.4,3.7-0.9,7.5-1.7,12.1
		c-0.9,5.2-1.7,10-2.7,14.7c-0.4,2.1-1,4.1-1.6,6.1c-0.2,0.6-0.4,1.3-0.5,1.9c-0.7,2.4-1.4,5.1-2.2,7.8c-0.4,1.4-0.9,2.8-1.4,4.2
		c-0.5,1.7-1.1,3.4-1.6,5.1c-1.6,5.4-4,10.7-6.2,15.4c-1.6,3.5-3.5,7-5.2,10.4c-0.6,1.2-1.3,2.4-1.9,3.6c-1.9,3.6-4.1,7.1-6.3,10.4
		c-0.7,1-1.3,2-2,3c-1.9,2.9-4.1,6.4-6.3,9.6c-1.1,1.6-2.3,3.1-3.5,4.6c-0.5,0.6-1,1.2-1.4,1.8c-2.7,3.5-5.7,6.9-9.8,11.3l-1.1,1.2
		c-2.5,2.6-5,5.3-7.7,7.8c-2.8,2.5-5.9,5.2-9.1,7.9l-0.3,0.2c-2.3,2-4.8,4-7.3,5.9c-3.2,2.4-7.1,5.2-11.1,7.8
		c-3.5,2.2-7.1,4.3-10.6,6.3l-1.1,0.6c-3.1,1.7-6.1,3.4-9,4.8l-0.1,0.1c-4,2-8.2,4.2-12.4,6c-5.3,2.4-11.7,5.1-18.3,6.9
		c-3.4,0.9-6.9,1.9-10.3,2.8l-5,1.4l-1.5,0.4c-1.2,0.3-2.4,0.7-3.6,1c-5.8,1.4-10.3,2.2-14.5,2.6c-1.5,0.1-3.1,0.4-4.6,0.6
		c-0.8,0.1-1.7,0.2-2.5,0.4l-0.3,0c-1.3,0.2-2.7,0.3-4,0.4c-3,0.2-6.1,0.5-9.1,0.6c-1.5,0.1-3.1,0.2-4.5,0.2L209.9,414.8z
		 M207.3,409.8l4.6-0.3c3.5-0.2,7-0.4,10.5-0.6c1.9-0.1,3.8-0.3,5.6-0.5c1.7-0.2,3.4-0.4,5.1-0.7l2-0.3c0.8-0.1,1.7-0.2,2.5-0.3
		c1.8-0.2,3.7-0.4,5.6-0.8c5-1,9.3-1.9,13.2-2.9c4.1-1,7.7-2.1,11.2-3.2c4.8-1.6,9.6-3.4,14.9-5.4c7.2-2.8,13.7-5.8,19.8-9.1
		c6.5-3.5,12.3-7,17.7-10.6c4.8-3.2,9.4-6.6,13.7-10c2.6-2.1,5.5-4.5,8.3-6.9c1.9-1.7,3.8-3.3,5.4-5l0.4-0.4
		c2.3-2.3,4.7-4.6,6.9-7.1c3.3-3.7,6.5-7.5,9.4-11.1c2.4-2.9,5.2-6.3,7.8-9.8c1.7-2.2,3.3-4.8,5.1-7.8c2.7-4.5,4.8-8.2,6.6-11.7
		l0.8-1.5c2.6-5,5.4-10.1,7.5-15.4c0.4-1.1,0.9-2.1,1.3-3.1c0.9-2.2,1.9-4.4,2.7-6.7c1.4-4.2,2.8-8.5,4.1-12.6
		c0.4-1.2,0.8-2.5,1.2-3.7c1.8-5.6,2.9-11.4,3.8-16.9c0.6-3.4,1.1-6.9,1.6-10.3c0.2-1.5,0.5-3.1,0.7-4.6c0.6-3.8,1-8,1.1-12.7
		c0-0.8,0.1-1.6,0.1-2.4c0.1-2,0.2-4.1,0.2-6.2c-0.1-4.8-0.2-9.7-0.5-15c-0.1-2.9-0.5-5.8-0.8-8.7l-0.1-1.4c-0.3-2.4-0.5-4.9-1-7.3
		c-1-5.2-2.2-10.9-3.6-17.3c-0.7-3.4-1.6-6.7-2.6-10c-0.7-2.4-1.6-4.9-2.4-7.2l-0.8-2.1c-0.2-0.4-0.3-0.9-0.4-1.3
		c-0.5-1.5-1.1-3.1-1.7-4.6c-1.4-3.1-2.8-6.2-4.3-9.2c-0.6-1.2-1.2-2.5-1.7-3.7c-2.5-5.2-5.4-10.7-9.6-17.6c-2-3.4-4.1-6.7-6.4-9.8
		c-1-1.4-2-2.8-3-4.2c-2.2-3.1-4.5-6.3-7-9.3c-0.9-1.1-1.8-2.1-2.6-3.2c-1.2-1.5-2.5-3.1-3.8-4.6c-2.4-2.7-4.9-5.3-7.5-8
		c-1.6-1.6-3.3-3.1-4.9-4.6l-1.3-1.1c-2.4-2.2-4.9-4.5-7.5-6.6c-4.4-3.7-8.9-7-14-10.6c-4.9-3.5-9.5-6.4-14-9
		c-3.4-1.9-6.9-3.8-10.8-5.8c-4.3-2.1-7.8-3.8-11.1-5.2c-2.7-1.1-5.5-2.2-8.1-3.2c-1-0.4-2.1-0.8-3.1-1.2l-1.3-0.5
		c-1.4-0.5-2.9-1.1-4.3-1.6c-2.5-0.8-5.1-1.5-7.6-2.2l-1.9-0.5l-1.4-0.4c-1.5-0.4-3.1-0.9-4.7-1.2l-0.7-0.2
		c-3.6-0.8-7.4-1.6-11.2-2.1c-1.2-0.2-2.4-0.4-3.6-0.6c-3.7-0.6-7.5-1.2-11.3-1.4c-1.7-0.1-3.4-0.3-5-0.4c-2.1-0.2-4.3-0.4-6.5-0.5
		l-0.2,0c-2.7-0.1-5.5-0.3-8.2-0.3c-1.3,0-2.5,0-3.6,0.1c-1.9,0.1-3.9,0.2-5.7,0.2l-2.6,0c-0.7,0-1.3,0-2,0c-0.4,0-0.9,0.1-1.2,0.1
		c-0.3,0-0.7,0.1-1,0.1c-0.5,0.1-1.1,0.2-1.6,0.2c-0.6,0.1-1.1,0.1-1.7,0.1c-0.7,0-1.5,0.1-2.2,0.2L182.5,7
		c-3.1,0.4-6.4,0.8-9.6,1.3c-3.6,0.6-7.2,1.4-10.6,2.1c-5.1,1.2-10.6,2.4-15.8,4.2c-1.7,0.6-3.3,1.1-5,1.7c-2.2,0.7-4.5,1.5-6.8,2.3
		c-1.5,0.5-2.9,1.2-4.3,1.8c-1,0.5-2.1,0.9-3.1,1.3c-5.1,2-10.1,4.6-14.8,7.1c-4.5,2.3-9,5-14,8.3L97.1,38c-3.1,2-6.3,4.1-9.4,6.3
		c-1.9,1.4-3.8,2.9-5.6,4.4c-0.6,0.5-1.3,1.1-1.9,1.6c-0.6,0.5-1.3,1-1.9,1.5c-2,1.6-4,3.2-5.9,4.9C67.5,61,62.8,65.2,58.7,70
		c-2,2.3-4,4.7-5.9,7c-1.1,1.4-2.3,2.7-3.4,4.1c-0.3,0.3-0.5,0.6-0.8,0.9c-0.2,0.2-0.4,0.4-0.6,0.7L47.7,83
		c-0.4,0.4-0.8,0.9-1.1,1.4c-0.4,0.5-0.7,1.1-1,1.6c-0.4,0.7-0.9,1.4-1.4,2.1c-3.7,5-7.5,10.2-10.9,15.6c-3.3,5.3-6.7,11.1-9.6,17.3
		c-1.4,2.9-2.8,6.1-4.4,10c-0.7,1.7-1.3,3.4-1.9,5.1l-0.9,2.4c-0.7,1.9-1.4,3.9-2,5.9c-0.9,3-1.8,6.3-2.8,10.2
		c-0.9,3.4-1.8,7-2.5,10.5c-0.8,4.2-1.4,8.2-1.9,11.7c-0.3,2.3-0.6,4.6-0.9,6.9c-0.2,2.1-0.5,4.2-0.8,6.3c-0.4,3.3-0.6,6.6-0.7,9.8
		l-0.1,1.9c-0.1,2.4-0.1,4.9-0.1,7.3c0,1,0,2,0,3l0,0.5c0,0.7,0,1.4,0.1,2.1c0.1,1.5,0.3,2.9,0.4,4.4c0.1,1.2,0.2,2.5,0.3,3.7
		c0.1,0.9,0.1,1.8,0.2,2.7c0.1,1.5,0.2,3.1,0.4,4.7c0.2,1.8,0.5,3.5,0.7,5.2c0.2,1.7,0.5,3.4,0.7,5.2c0.6,5.4,1.5,10.3,2.7,14.9
		c1.6,6.4,3.7,12.7,5.7,18.8c1.4,4.3,3.1,8.7,5.2,13.4c0.5,1.1,0.9,2.2,1.4,3.3c0.9,2.1,1.8,4.4,2.9,6.5c4.4,8.3,8.3,14.9,12.3,20.6
		c1.9,2.7,4,5.9,6.3,9c2.8,3.8,5.8,7.2,9,10.7c1,1.1,2.1,2.3,3.1,3.4c2.5,2.7,5,5.5,7.7,8.1c5,4.8,10.4,9.5,16.3,14.2
		c4.4,3.5,9.5,7.5,14.8,10.9c1.3,0.8,2.6,1.7,3.8,2.5c2.9,1.9,5.9,3.9,9,5.7c1,0.6,2.1,1.2,3.1,1.7c2.2,1.3,4.6,2.6,6.9,3.8
		c5.8,3,11.9,5.7,18.1,7.9c5.4,1.9,9.9,3.5,14.3,4.9c3.7,1.2,6.8,2.1,9.7,2.8c4.2,1,8.4,1.9,13,2.8c2.2,0.5,4.6,0.8,7.3,1.2
		c3.1,0.4,6.1,0.7,8.9,1c4.4,0.4,8,0.6,11.4,0.8c0.8,0,1.7,0.1,2.7,0c0.7,0,1.5,0,2.2,0c0.6,0,1.3,0,1.9,0L207.3,409.8z"/>
	<path class="st0" d="M206.7,402.1c-4,0-7.5,0-10.9-0.2c-4.5-0.2-9-0.6-13.2-1.2c-5.9-0.8-12.1-1.8-18.3-3.4l-2-0.5
		c-4.1-1-8.4-2.1-12.6-3.3c-3.5-1-7.1-2.3-11-4c-1.5-0.7-3.1-1.3-4.6-2c-2.1-0.9-4.4-1.8-6.5-2.8c-3.8-1.8-7.6-3.8-11.3-5.8
		l-0.7-0.4c-2.4-1.3-5.3-2.8-7.9-4.5c-3.7-2.3-7.3-4.7-10.8-7.1l-0.1-0.1c-2.6-1.7-5.5-3.7-8.3-5.8c-2.1-1.6-4.1-3.2-6.1-4.8
		c-0.8-0.7-1.6-1.3-2.4-2c-5.5-4.4-10.5-9.6-15.3-14.7L64,339c-4.2-4.4-8.4-9.6-13-16.3l-2-2.8c-1.6-2.3-3.2-4.7-4.8-7
		c-0.2-0.3-0.5-0.6-0.7-0.8c-0.2-0.2-0.3-0.3-0.5-0.5c-0.2-0.2-0.4-0.5-0.6-0.8l-0.5-0.9c-1.7-2.9-3.3-5.8-5-8.8
		c-0.5-0.9-1-1.8-1.5-2.8c0,0-0.8-1.6-1-2c-0.6-1.2-1.3-2.5-1.9-3.8c-0.9-1.9-1.7-3.9-2.5-5.8l-0.4-0.9c-0.5-1.3-1.1-2.5-1.6-3.8
		c-0.9-2.2-1.8-4.5-2.8-6.7c-1.9-4.3-3.6-9-5.2-14.4c-0.2-0.8-0.5-1.6-0.7-2.4c-0.6-2-1.3-4.1-1.8-6.1c-1-3.8-1.8-7-2.4-10.3
		l-0.2-1.2c-0.6-3.2-1.2-6.4-1.5-9.7c-0.1-1.3-0.3-2.6-0.5-3.9c-0.1-0.9-0.3-1.7-0.4-2.6c-0.1-1.2-0.2-2.4-0.3-3.6l-0.1-1.1
		c-0.1-0.8-0.1-1.6-0.2-2.4c-0.1-2-0.3-4.1-0.3-6.1c-0.1-4.1-0.1-8.3,0-12.9c0.1-2.6,0.2-5.5,0.5-8.9c0.2-2.5,0.5-4.9,0.8-7.2
		c0.5-3.4,1-6.9,1.5-9.8c0.2-1.3,0.5-2.6,0.8-4.2l0.1-0.6c0.5-2.4,1.1-5,1.7-7.4c0.2-1,0.5-2,0.7-2.9c0.7-2.9,1.4-5.9,2.4-8.8
		c2.1-6.2,4.2-12.2,7-17.9c1.2-2.5,2.4-5,3.5-7.4c1.1-2.4,2.2-4.8,3.4-7.2c1.2-2.4,2.5-4.7,3.8-7l0.5-0.9c2.9-5.1,6.2-9.9,9.4-14.4
		c1.7-2.4,3.5-4.7,5.2-6.9c2.2-2.8,4-5.1,5.8-7.2c1.2-1.4,2.5-2.8,3.7-4.1l0.4-0.4c1.4-1.5,2.9-3.1,4.5-4.7
		c3.6-3.6,7.8-7.7,12.4-11.3c1.7-1.3,3.4-2.7,5-4c2.2-1.7,4.4-3.5,6.6-5.2c5.2-3.9,9.6-7,14.3-9.6c4.9-2.7,9.7-5.3,14.7-7.9
		c5.2-2.7,11-5.2,17.8-7.6c4.7-1.7,9.5-3.2,14.1-4.5c3-0.9,6.2-1.7,9.8-2.5c1.6-0.3,3.3-0.6,4.9-0.9c1-0.2,2-0.4,3-0.6
		c0.9-0.2,1.7-0.3,2.6-0.5c1.2-0.2,2.3-0.5,3.5-0.7c2-0.4,3.9-0.7,5.6-0.9c2.9-0.4,5.3-0.7,7.8-0.9c1.4-0.1,2.9-0.2,4.4-0.2
		c0.8,0,1.5-0.1,2.3-0.1c0.5,0,0.9-0.1,1.3-0.1c0.5,0,0.9-0.1,1.4-0.1c2-0.1,4-0.2,6.3-0.2c2.3,0,4.8,0,7.9,0.1
		c3.3,0.1,6.5,0.4,10.4,0.8c1.3,0.1,2.6,0.2,3.9,0.4c3.2,0.3,6.5,0.6,9.7,1.2c4.8,1,8.9,1.9,13,2.9l0.4,0.1c4.1,1,8.4,2,12.5,3.1
		c4,1.2,8,2.5,11.7,3.8c5.7,2,11.2,4.5,16.4,7c3,1.4,5.9,3,8.8,4.5l1.6,0.8c7.2,3.8,13.9,8.4,18.8,12.1c5.7,4.2,11.3,8.7,17.1,13.8
		c1.9,1.7,3.7,3.5,5.5,5.3c0.6,0.6,1.3,1.3,1.9,1.9c3.7,3.7,7.3,7.7,10.5,11.8c0.9,1.1,1.8,2.2,2.7,3.3c0.9,1.1,1.8,2.2,2.7,3.3
		c1.4,1.8,2.9,3.8,4.4,5.9c1.5,2.1,3.3,4.7,4.9,7.3c0.9,1.4,1.7,2.8,2.5,4.1c0.8,1.4,1.7,2.8,2.6,4.2c2.6,4.2,4.9,8.7,7.1,13
		c0.4,0.9,0.9,1.8,1.3,2.7c0.9,1.7,1.6,3.5,2.4,5.2c0.6,1.3,1.1,2.6,1.7,3.9c1.7,3.6,2.9,7.5,4.1,11.3c0.4,1.3,0.8,2.6,1.2,3.9
		c0.8,2.4,1.4,5,2.1,7.4c0.3,1.1,0.5,2.1,0.8,3.2c1.5,5.7,2.5,11.5,3.2,16.4c0.6,4.1,1.1,8.4,1.6,12.4l0.2,1.6
		c0.2,1.4,0.3,2.9,0.3,4.8c0.1,3.1,0.2,6.3,0.3,9.4l0,0.8c0,0.8,0,1.6,0,2.4l0,0.8l-0.1,0l0,0.3c0,1,0,2.1,0,3.1
		c0,2.3,0.1,4.8,0,7.1c-0.1,3.9-0.2,6.8-0.5,9.6c-0.5,4.7-1.3,9.8-2.5,16.3c-1.5,8-3.4,15.1-5.9,21.7c-0.7,1.9-1.4,3.9-2.1,5.8
		c-0.6,1.8-1.3,3.7-2,5.6c-0.5,1.4-1.2,2.8-1.8,4.2c-0.3,0.6-0.6,1.2-0.9,1.9l-1.1,2.4c-0.8,1.9-1.7,3.7-2.5,5.6
		c-1.9,4.2-4,8.4-6.6,12.9l-0.9,1.6c-1.1,2-2.3,4.1-3.6,6c-3.1,4.8-6.5,9.5-10,13.8c-3.1,3.8-6.5,7.8-10.7,12.4
		c-2.1,2.3-4.2,4.3-6.8,6.8c-2.5,2.4-5.1,4.8-7.8,7.1c-1,0.9-2.1,1.8-3.2,2.6c-0.5,0.4-1.1,0.8-1.6,1.3c-0.6,0.5-1.2,1-1.8,1.5
		c-1.2,1-2.4,2-3.7,2.9l-0.8,0.6c-2.9,2.2-5.9,4.4-9,6.4c-2.5,1.6-5,3.2-7.5,4.7c-1.7,1-3.3,2.1-5,3.1c-4.1,2.6-8.5,4.5-12.8,6.4
		l-1.8,0.8c-4.1,1.8-8.6,3.5-14.3,5.5c-4,1.3-8.2,2.8-12.4,3.9c-6,1.7-11.3,3-16.1,4c-4.7,1-9.6,1.9-15,2.7c-3.6,0.5-7.4,0.8-11,1
		l-0.2,0c-4.3,0.3-7.8,0.4-11.1,0.5C207.9,402.1,207.3,402.1,206.7,402.1z M197.8,16.5c-2.7,0.1-5.3,0.3-8,0.4
		c-5.7,0.3-11.3,0.9-16.7,1.9c-5,0.9-11.6,2.3-18.2,4.4c-1.4,0.5-2.8,0.9-4.2,1.3c-2.8,0.9-5.6,1.8-8.5,2.7
		c-6.4,2.2-12.9,4.8-19.7,8c-2.4,1.1-4.7,2.4-7,3.6l-2.9,1.6c-3.2,1.7-6.6,3.5-9.7,5.6c-1.8,1.2-3.6,2.4-5.3,3.6
		c-2.8,1.8-5.6,3.8-8.3,5.7c-3.2,2.3-6.2,5-8.8,7.3c-3.1,2.8-6.1,5.7-8.4,8c-2,2-4,4.1-6,6.4c-3.2,3.7-6.5,7.5-9.7,11.4
		c-1.7,2-3.3,4.1-5,6.5c-1.8,2.5-3.7,5.2-5.7,8.4l-0.4,0.6c-1.8,2.7-3.6,5.4-5.2,8.2c-2.1,3.7-4.2,7.5-6.1,11.1l-1.3,2.4
		c-0.8,1.4-1.5,2.8-2.1,4.3l-0.6,1.4c-1.7,4.3-3.4,8.7-4.9,13c-1.4,4-2.7,8.3-3.9,12.7c-0.7,2.6-1.3,5.3-1.9,8
		c-0.2,1.1-0.5,2.2-0.7,3.3l-0.3,1.2c-0.3,1.3-0.6,2.6-0.9,4c-0.4,2-0.6,3.9-0.8,5.5c-0.4,2.6-0.7,5.5-1,8.4
		c-0.1,1.2-0.2,2.5-0.3,3.7c-0.1,0.8-0.1,1.5-0.2,2.3c-0.4,4.1-0.7,9-0.8,14c0,0.4,0,0.9-0.1,1.3c0,0.4-0.1,0.7-0.1,1.1l0,0.7
		c0,0.8-0.1,1.6,0,2.4c0.1,2.3,0.3,4.5,0.5,6.6c0.1,1.6,0.3,3.2,0.5,4.7l0.2,1.7c0.4,2.6,0.7,5.4,1.2,8.1c0.5,3,1.1,6,1.7,8.8
		c0.6,2.7,1.2,5.6,1.9,8.4c0.6,2.3,1.3,4.7,2,6.9c0.2,0.8,0.5,1.7,0.7,2.5c0.2,0.6,0.3,1.1,0.5,1.7c0.4,1.5,0.9,3.1,1.4,4.6
		c1.1,3,2.3,6.1,3.6,9.2c1.4,3.4,2.9,6.7,4.4,10.1c0.5,1.2,1.1,2.3,1.6,3.5c0.5,1,0.9,2,1.4,2.9c2.4,5.3,4.6,9.5,6.8,13.2
		c2.8,4.6,5.7,9.3,9.1,13.5c1.6,1.9,3.2,4,4.7,5.9c1.7,2.2,3.4,4.4,5.2,6.5c2.3,2.8,4.9,5.7,7.9,8.8c1.2,1.3,2.6,2.5,3.9,3.7
		c0.8,0.7,1.6,1.5,2.4,2.2c4.2,4,7.8,7.2,11.3,9.9l1.9,1.5c2.8,2.2,5.7,4.4,8.7,6.4c1.4,0.9,2.8,1.9,4.2,2.8
		c2.8,1.9,5.6,3.8,8.6,5.5c1.3,0.7,2.5,1.5,3.8,2.2c2.1,1.2,4.3,2.5,6.5,3.7c4.5,2.3,8.5,4.2,12.4,5.9c3.1,1.3,6.3,2.4,9.4,3.5
		c1,0.4,2,0.7,3,1.1c1.8,0.7,3.7,1.3,5.5,1.8c1.7,0.5,3.6,1,6,1.6l1.3,0.3c3,0.7,6,1.5,9.1,2.2c2.5,0.6,5.1,1,7.7,1.5l0.9,0.2
		c2.3,0.4,4.8,0.9,7.3,1.2c2.2,0.3,4.6,0.6,7.5,0.8c2.6,0.2,5.8,0.5,9,0.7c0.7,0,1.4,0.1,2.3,0c0.7,0,1.4,0,2.2,0l2.2,0
		c2.6-0.1,5.3-0.1,7.9-0.2c4-0.2,8.4-0.6,13.9-1.3c1.3-0.2,2.7-0.3,4-0.5c2.3-0.3,4.6-0.5,6.9-0.9c4.1-0.7,7.8-1.4,11.3-2.3
		c3.9-1,7.9-2.2,11.7-3.3l1.7-0.5c2.9-0.9,5.9-1.9,8.7-2.8c3.1-1,5.8-2.1,8.5-3.4c1.1-0.5,2.3-0.9,3.4-1.3c1.2-0.4,2.4-0.8,3.5-1.4
		c6.1-2.9,11.1-5.3,15.7-7.7c1.6-0.9,3.2-1.9,4.7-2.9c1-0.6,2-1.3,3-1.9c3.7-2.2,7.3-4.8,10.6-7.3c1.8-1.4,3.6-2.8,5.3-4.3l1.2-1
		c0.7-0.6,1.4-1.1,2-1.7c2.2-1.8,4.5-3.7,6.7-5.7c1.8-1.6,3.5-3.4,5.2-5.1c0.7-0.7,1.4-1.4,2.1-2.1c0.5-0.5,1-0.9,1.4-1.4
		c1.2-1.2,2.4-2.4,3.6-3.7c2.7-3.1,5.5-6.4,8.5-10.1c2-2.5,3.9-4.9,5.6-7.3c1.1-1.6,2.2-3.2,3.2-4.8c0.7-1.1,1.4-2.1,2.1-3.1
		c2.5-3.7,4.9-7.8,7.2-12.2c3.9-7.4,6.8-13.7,9.2-19.8c0.4-1.1,0.8-2.2,1.3-3.2c1.6-4,3.3-8.2,4.3-12.6c0.3-1.4,0.8-2.8,1.2-4.1
		c0.2-0.6,0.4-1.3,0.6-1.9c0.1-0.4,0.3-0.8,0.4-1.2c0.3-0.9,0.6-1.9,0.8-2.9c0.7-3.6,1.4-6.8,1.8-9.7c0.5-3.2,1-6.5,1.4-9.6
		c0.5-4.1,0.8-8.3,1-12.4l0-0.3c0.4-5.9,0.4-12,0.4-17.8l0-0.5c0-1.9-0.1-3.8-0.2-5.7c0-0.7-0.1-1.5-0.1-2.2c0-0.5,0-0.9,0-1.4
		c0-1.2-0.1-2.5-0.2-3.7c-0.3-2.8-0.7-5.6-1.2-8.9c-0.1-0.7-0.2-1.5-0.3-2.2c-0.4-3-0.9-6.2-1.7-9.2c-0.4-1.3-0.7-2.7-0.9-4
		c-0.3-1.3-0.6-2.6-0.9-3.9c-0.8-3-1.7-6.1-2.5-9l-0.6-2.2c-0.2-0.7-0.4-1.5-0.6-2.2c-0.6-2.2-1.3-4.6-2-6.8
		c-0.8-2.3-1.7-4.7-2.6-6.9l-0.3-0.8c-1.7-4.2-3.3-8-4.9-11.5c-0.1-0.2-0.2-0.4-0.2-0.5c-0.8-2.2-2-4.5-3.7-7.2
		c-2.2-3.6-4.6-7.1-6.9-10.6l-0.6-0.8c-2-2.9-4-5.9-6.1-8.8c-2.2-3-5.2-7-8.3-10.8c-2.5-3-5.4-6.2-9-10c-2.6-2.7-5.3-5.3-8.1-7.9
		c-1.1-1.1-2.4-2.1-3.6-3.1c-0.5-0.4-0.9-0.8-1.4-1.2c-0.8-0.6-1.5-1.3-2.3-1.9c-1-0.8-2-1.6-2.9-2.5c-0.2-0.2-0.4-0.4-0.6-0.6
		c-0.5-0.6-1.2-1.3-2.2-1.3c0,0-0.1-0.1-0.1-0.1c-0.1-0.1-0.1-0.1-0.2-0.2c-1.1-0.8-2.2-1.6-3.3-2.4c-2.6-1.8-5.3-3.8-8-5.6
		c-4-2.7-8.3-5.1-11.9-7c-4.9-2.6-9.4-4.9-13.8-7c-0.9-0.5-1.9-0.9-2.9-1.3c-0.7-0.3-1.5-0.6-2.2-0.9c-4.6-2.1-9.2-3.6-14.4-5.2
		c-2.8-0.9-5.6-1.6-8.3-2.3c-1-0.3-2.1-0.5-3.1-0.8c-9-2.4-17.4-4-25.7-5c-3.3-0.4-7.3-0.8-11.3-1l-1.9-0.1
		c-2.4-0.1-4.9-0.3-7.4-0.2c-0.8,0-1.5,0-2.3,0.1c-0.6,0-1.2,0-1.7,0c-0.5,0-1,0-1.5,0c-0.4,0-0.8,0-1.2,0l0,0l-0.3-0.1L197.8,16.5z
		"/>
	<path class="st0" d="M313.8,288.3c1.5-0.6,3.1-1.1,4.6-1.8c2.3-0.9,4.2-2.4,6.2-3.9l0.5-0.3l-0.7,0c-1,0-1.6,0.3-2.1,0.7
		c-1.8,1.2-3.9,1.5-5.8,1.8c-1.4,0.2-2.7,0.4-4,0.6c0,0,0,0,0,0c0,0-0.1,0-0.1,0c1.9-0.5,3.7-1.3,5.4-2.1l0.7-0.3
		c1.9-0.9,3.8-1.8,5.4-3.3l-0.2-0.3c-3.5,1.3-7.2,2.1-11.1,2.2c4.1-0.8,7.6-2.8,10.9-4.8c0.3-0.2,0.5-0.6,0.7-1l0.2-0.5l-0.5,0.2
		c-2.7,1.3-5.6,1.8-8.4,2.3c-1.1,0.2-2.2,0.4-3.4,0.6l0-0.1c0,0,0,0,0.1-0.1c0.1-0.1,0.2-0.2,0.2-0.2c2.8-0.6,5.8-1.7,8.9-3.1
		c0.2-0.1,0.3-0.1,0.5-0.2c0.6-0.2,1.2-0.5,1.7-1.2l0.1-0.2l-0.3-0.1c-0.2-0.1-0.4-0.1-0.6-0.1c-0.5,0-0.9,0.1-1.4,0.3
		c-0.3,0.1-0.7,0.2-1,0.3c-0.6,0-1.1,0.1-1.7,0.2c-0.4,0.1-0.9,0.1-1.3,0.2c-0.9,0.1-1.8,0.2-2.7,0.2l-0.2,0c-0.4,0-0.7,0.1-1.1,0.2
		c-0.4,0.1-0.7,0.2-1.1,0.2c-0.1,0-0.3,0-0.4,0c0.4-0.3,0.9-0.3,1.3-0.4c0.3,0,0.6-0.1,0.9-0.2c0.4-0.2,0.9-0.3,1.3-0.4
		c0.4-0.1,0.8-0.2,1.2-0.4c0.8-0.3,1.5-0.6,2.6-1c0.3-0.2,0.7-0.3,1-0.5c0.4-0.2,0.9-0.5,1.3-0.6c0.1,0,0.3-0.1,0.4-0.1
		c0.7-0.2,1.4-0.5,1.9-1.3l0.2-0.4l-0.4,0.1c-3.5,0.9-7.1,1.1-10.6,1.3l-1,0.1c0.5-0.1,1-0.3,1.5-0.4c1.4-0.4,2.9-0.9,4.4-1.4
		c2-0.7,4.2-1.5,5.9-3.2l-0.2-0.3c-3.4,1-6.6,1.4-9.7,1.4c-0.7,0-1.4,0-2.2-0.1c0.4-0.1,0.7-0.2,1.1-0.3c1-0.3,2-0.5,3-0.9
		c1.5-0.6,2.9-1.3,4.3-1.9c0.9-0.5,1.8-1,2.8-1.5c0.4-0.2,0.9-0.5,1.3-0.8l0.4-0.2l-0.4-0.1c-0.2-0.1-0.5-0.1-0.7-0.1
		c-0.3,0-0.5,0.1-0.7,0.1l-2.5,0.5c-1.9,0.4-3.8,0.8-5.8,1.2c-0.8,0.2-1.7,0.2-2.6,0.3l-0.4,0c0,0-0.1-0.1-0.2-0.1
		c0.4-0.1,0.8-0.2,1.2-0.4c1.2-0.3,2.2-0.7,3.3-1.1c1.6-0.7,3.2-1.5,4.6-2.3c0.4-0.2,0.8-0.4,1.3-0.6c1.1-0.5,2.2-0.9,3-2.1l0.3-0.5
		l-0.5,0.2c-0.3,0.1-0.7,0.2-1,0.3c-0.7,0.2-1.5,0.5-2.2,0.6c-1.3,0.3-2.5,0.5-3.7,0.7c-1.1,0.2-2.3,0.3-3.4,0.4
		c-0.9,0.1-1.8,0.2-2.7,0.3c-0.2,0-0.2,0-0.3,0c-0.1,0-0.1,0-0.2,0c0,0,0-0.1,0-0.2c2.3-0.8,4.7-1.6,6.8-2.9c0.6-0.4,1.2-0.7,1.8-1
		c1.5-0.8,3.1-1.7,4.4-3.1l-0.2-0.3c-4.1,1.7-8.4,2.7-13.2,3.3c0-0.2,0.1-0.3,0.4-0.4c0.1,0,0.2-0.1,0.2-0.1
		c0.5-0.3,1.1-0.5,1.6-0.8c0.9-0.5,1.9-0.9,2.8-1.5c2.3-1.3,4.6-2.7,6.8-4.1c1-0.6,2.1-1.3,3.1-1.9c0.1-0.1,0.3-0.2,0.5-0.3l0.1,0
		c0,0.6,0,1.1,0,1.7c0,1.4,0,2.8,0,4.2c0.1,2.4,0.2,4.9,0.3,7.3l0.3,7.4c0.1,2.6,0.2,5.3,0.3,7.9c0.1,2.3,0.2,4.7,0.2,7.1l0.1,3.3
		c-5.2,2.9-10.1,4.3-15.1,4.5C312.5,288.8,313.2,288.6,313.8,288.3z"/>
	<path class="st0" d="M202.1,310.6c-0.9,0-1.8-0.4-2.8-1.1c-1.7-1.3-2.9-3.1-3.6-5.6c-0.3-1-0.6-1.9-0.9-2.9c-0.3-1-0.7-2.1-1-3.1
		c-0.3-1-1.1-1.4-1.8-1.8l-0.1-0.1c-0.1-0.1-0.2-0.1-0.3-0.1c-0.4,0-0.8,0.5-0.8,1.1c-0.1,0.9-0.1,1.9-0.1,2.8
		c0,0.6-0.1,1.3-0.1,1.9c0,0.2,0,0.5-0.1,0.7c0,0.5-0.1,1-0.1,1.5c0.1,0.7,0.3,1.3,0.5,1.8c0.3,0.6,0.7,1.3,1,1.8
		c0.2,0.3,0.3,0.6,0.5,0.9c0,0.1,0.1,0.1,0.1,0.2c-2.2-0.6-4.3-1.3-6.3-2c-1.2-0.4-2.5-0.9-3.7-1.3c0,0,0,0,0,0
		c0.1-0.1,0.2-0.3,0.3-0.3c1.5-0.9,2.3-2.3,2.5-4.5l0.3-4.1c0.3-3.5,0.6-7.1,0.9-10.7c0.1-1-0.1-1.8-0.6-2.6
		c-0.4-0.7-0.9-1.5-1.3-2.2l-0.2-0.3c-0.1-0.1-0.1-0.3-0.2-0.5c0,0,0,0,0-0.1c0,0,0,0,0,0c0.1,0,0.2,0,0.3,0c1.8,1,3.8,1.6,5.7,2.2
		c0.7,0.2,1.4,0.4,2.1,0.7c1.3,0.5,2.7,0.9,4,1.3l1.4,0.5c1,0.3,1.8,0.9,2.6,1.8c1.8,2,2.5,4.1,2.1,6.5c-0.2,1.7-1.1,3.1-2.6,4.2
		c-0.3,0.2-0.6,0.3-1,0.3c-0.2,0-0.4,0.1-0.6,0.1l-0.2,0.1l0,0.2c0,0.2,0.1,0.3,0.1,0.5c0.9,1.5,1.4,3.2,1.9,4.9
		c0.1,0.5,0.3,0.9,0.4,1.4c0.5,1.4,1.1,2.7,1.7,3.9c0.2,0.4,0.6,0.7,0.9,1.1c0.1,0.1,0.2,0.2,0.3,0.3
		C203.4,310.4,202.8,310.6,202.1,310.6z M192.6,285.4c-0.1,0-0.3,0-0.4,0l-0.1,0l0,0.1c-0.3,1.5-0.4,3-0.6,4.5
		c-0.1,0.9-0.2,1.9-0.3,2.9l0,0.1l0.1,0.1c0.7,0.9,1.6,1.1,2.4,1.3l0.2,0.1c0.3,0.1,0.6,0.1,0.8,0.1c1,0,1.8-0.4,2.5-1.3
		c0.9-1.1,1.2-3.3,0-4.9c-0.7-1-1.4-1.6-2.2-2l-0.3-0.2C194.1,285.8,193.4,285.4,192.6,285.4z"/>
	<path class="st0" d="M158.9,293.6l0.5-0.2c0.8-0.3,1.6-0.6,2.3-0.9c0.3-0.1,0.6-0.4,0.7-0.7l0-0.1c0.3-0.9,0.6-1.8,0.7-2.7
		c0.3-2,0.5-4,0.7-6c0.1-1,0.2-2,0.3-3c0.2-1.5,0.4-3,0.6-4.4c0.1-0.9,0-1.7-0.3-2.3c-0.5-0.9-0.9-1.8-1.3-2.6l-0.5-1l0,0l2.2,1.2
		c4.5,2.4,9.2,4.9,14.1,6.8c-0.6,1.3-0.7,2.6-0.8,3.9c0,0.6-0.1,1.2-0.2,1.8c-0.1-0.1-0.1-0.1-0.1-0.2c-0.1-0.3-0.2-0.5-0.4-0.8
		c-0.1-0.3-0.3-0.6-0.4-0.9c-0.6-1.2-1.4-2.4-2.9-3.1c-0.8-0.4-1.6-0.8-2.5-1.3c-0.4-0.2-0.8-0.4-1.2-0.7l-0.2-0.1l-0.1,0.1
		c-0.1,0.1-0.2,0.2-0.3,0.3c-0.2,0.2-0.4,0.5-0.5,0.7c-0.3,1.6-0.5,3.2-0.7,4.9l-0.2,1.8l0.2,0.1c0.1,0,0.3,0.1,0.4,0.1
		c0.6,0.2,1.4,1,1.6,1c0.6,0,1.1,0.3,1.7,0.6c0.5,0.3,1.1,0.6,1.7,0.6l0.1,0l2.6-1.9c-0.7,2.3-0.8,4.6-0.9,7.1l0,0.8
		c-0.5-0.4-0.7-0.7-1-1.2c-0.6-1.3-1.3-2.7-3-3.3c-0.3-0.1-0.7-0.3-1-0.4c-0.2-0.1-0.5-0.2-0.7-0.3c-0.3-0.1-0.5-0.2-0.7-0.2
		c-0.3,0-0.9,0.1-1,1.1c-0.2,1.5-0.4,3-0.6,4.5c-0.1,0.7-0.2,1.5-0.3,2.2c-0.1,0.8,0.5,1.1,0.9,1.4c1.1,0.6,2.3,1.2,3.4,1.8l1.3,0.7
		l0.1-0.1c0.4-0.4,0.8-0.7,1.2-1.1c0.6-0.6,1.2-1.2,1.9-1.7l-0.8,7.1L158.9,293.6z"/>
	<path class="st0" d="M145.4,287.3c-0.3-0.2-0.4-0.6-0.5-1c-0.1-0.7-0.2-1.4-0.3-2c-0.3-1.8-0.6-3.7-0.8-5.6
		c-0.1-0.8-0.1-1.6-0.2-2.4c0-0.7,0-1.5-0.1-2.2c-0.3-2.3-0.6-4.8-1-7.7c-0.1-0.9-0.3-1.8-0.5-2.7c-0.2-1.3-0.5-2.6-0.6-3.9
		c-0.3-2.6-1.5-4.9-2.6-7l-0.1-0.1c-0.1-0.3-0.3-0.5-0.4-0.7c-0.1-0.2-0.3-0.4-0.4-0.6c0,0,0-0.1-0.1-0.1l11.2,8.9
		c-0.4,0.2-0.8,0.3-1.2,0.3c-0.4,0.1-0.8,0.1-1.2,0.3l-0.1,0.1l1.7,15.8l0.2,0c0.5-0.1,0.8-0.5,1.1-1c0.8-1.3,1.5-2.6,2.3-3.9
		c0.8-1.3,1.6-2.7,2.3-4c0.3-0.5,0.3-0.8,0.1-1.3c-0.4-0.9-0.7-1.8-1.1-2.6l-0.3-0.7c0-0.1-0.1-0.2-0.1-0.2c2.3,2.1,5,3.6,7.8,5.1
		c0.2,0.1,0.4,0.2,0.5,0.3c0,0,0,0.1,0,0.1l-1.1,0.1c-1,0.1-1.9,0.2-2.9,0.3c-0.7,0.1-1.1,0.4-1.5,1c-0.8,1.5-1.7,3-2.5,4.5l-2,3.5
		c-1.5,2.7-3,5.3-4.5,8c-0.2,0.4-0.5,0.9-0.7,1.3L145.4,287.3z"/>
	<path class="st0" d="M270.1,291.4c0.1-0.1,0.1-0.2,0.2-0.3c0.2-0.3,0.5-0.6,0.7-0.9c0.5-0.7,1.1-1.4,1.5-2.2
		c0.4-0.7,0.5-1.5,0.5-2.3l0-0.1c0.4-4.2,0.4-8.5,0.4-12.6c0-1.9,0-3.7,0-5.6c0-0.2-0.1-0.4-0.1-0.6c0-0.1-0.1-0.2-0.1-0.3l-0.1-0.2
		L268,268l0,0.1c-0.1,0.3-0.3,0.6-0.4,0.9c-0.5,1.2-1,2.3-1.9,3.4l0-6.3c1.2-0.3,2.4-0.7,3.6-1c3-0.8,6-1.7,9-2.5
		c1.6-0.4,3.3-0.7,4.9-1c0.6-0.1,1.2-0.2,1.8-0.3c0.1,0,0.2,0,0.3,0c0.1,0,0.4,0,0.5,0l0.1,3l0,0.9c0,0.7,0,1.3,0.1,2
		c0,0.1,0,0.2,0,0.2c0.1,0.4,0,0.4-0.1,0.4c0,0,0,0,0,0c-0.1,0-0.4-0.2-0.6-0.5c-0.5-0.7-1-1.3-1.5-2l-0.6-0.9l-0.1,0
		c-0.3,0-0.5-0.1-0.8-0.1c-0.9,0-1.8,0.2-2.8,0.5c-0.3,0.1-0.5,0.1-0.8,0.2l-0.1,0c0,0-0.1,0.3-0.1,0.5c0,0.3-0.1,0.5-0.1,0.7
		c0,1.8-0.1,3.7-0.1,5.5c0,2.2-0.1,4.4-0.1,6.5c0,0.4,0,0.9,0,1.3c0,1.4,0,2.9-0.2,4.3c-0.3,2.5,1.2,3.7,2.6,4.4
		c0.2,0.1,0.5,0.3,0.7,0.4c0,0,0,0,0,0C277.9,289.2,274.3,290,270.1,291.4L270.1,291.4z"/>
	<path class="st0" d="M229.8,308.1c0.4-0.6,0.7-1.2,1.1-1.7c1.1-1.4,1.5-2.9,1.4-4.7c-0.3-4.6-0.5-9.3-0.7-13.9l0-0.5
		c0-0.7,0-1.4,0-2c0-0.3,0-1,0-1l-0.1-0.1c-0.1,0-0.1-0.1-0.1-0.1c-0.1-0.1-0.2-0.1-0.2-0.1c-1.9,0.5-3.7,1.2-4.7,3.2
		c-0.4,0.8-0.9,1.6-1.3,2.3l-0.5,0.8c-0.1,0.1-0.1,0.2-0.3,0.4c0-0.1,0-0.2,0-0.2l0-2.5c0-1.2,0-2.5,0-3.7c0-0.5,0.1-0.7,0.8-1
		c0.6-0.2,1.2-0.4,1.8-0.6c1.2-0.4,2.5-0.8,3.7-1.3c2.4-1,4.8-2,7.1-2.9c1.2-0.5,2.3-1,3.5-1.5c0.2-0.1,0.5-0.2,0.7-0.2
		c-0.2,0.5-0.1,1,0.1,1.5l0,0.2c0.1,0.4,0.1,0.8,0.2,1.2c0,0.3,0,0.6,0.1,0.9c0.1,0.7,0.2,1.4,0.4,2.2l0.1,0.5
		c-0.8-0.5-2.3-1.9-3.1-2.9l-0.1-0.1l-3.6,1.4l0,0.8c0,0.5,0,1,0,1.5l0.1,1.4c0.1,2,0.2,4,0.4,6c0.3,3.4,0.6,6.5,0.9,9.4
		c0.2,1.5,0.5,3.1,2.4,3.9c-0.8,0.4-1.5,0.6-2.2,0.9c-0.4,0.1-0.9,0.3-1.3,0.5c-0.4,0.2-0.8,0.3-1.1,0.5c-0.8,0.4-1.7,0.8-2.6,1.1
		c-0.4,0.2-0.9,0.4-1.3,0.6c-0.6,0.3-1.2,0.7-2,0.8C229.6,308.5,229.7,308.3,229.8,308.1z"/>
	<path class="st0" d="M245.6,301.7c0.3-0.6,0.7-1.1,1.1-1.7c0.4-0.6,0.7-1.2,1.1-1.8c0.2-0.3,0.3-0.6,0.4-0.9l0.7-2.8
		c0.7-3,1.4-6,2.1-9.1c0.3-1.5,0.6-3.1,0.9-4.6c0.5-2.6,0.9-5.2,1.7-7.8c0.2-0.8,0.4-1.5,0.4-2.3c0-0.5,0.3-0.9,0.6-1.3l0.3,0.8
		c0.3,0.7,0.6,1.4,0.9,2.1l1.3,3.1c1.9,4.4,3.8,8.8,5.7,13.2c0.6,1.4,1.3,2.7,2.7,3.4c0.1,0,0.2,0.1,0.3,0.2c0,0,0,0.1,0,0.1
		l-1.2,0.5c-1,0.4-2.1,0.8-3.1,1.3c-1,0.4-2,0.9-3,1.4l-1.3,0.6c-0.1,0-0.1-0.1-0.1-0.1c0-0.1,0-0.2,0.2-0.5
		c0.3-0.4,0.5-0.8,0.8-1.2c0.3-0.4,0.6-0.9,0.9-1.3c0.3-0.5,0.4-1,0.2-1.5c-0.2-0.5-0.4-1-0.6-1.5l-0.3-0.8
		c-0.2-0.4-0.5-0.5-0.7-0.5c-0.1,0-0.2,0-0.4,0.1l-1.1,0.4c-1.2,0.5-2.3,1-3.5,1.5c-0.3,0.1-0.5,0.5-0.6,0.8c-0.4,1.4-0.8,3-1.1,4.7
		c-0.2,1,0.8,1.5,1.2,1.6c0.3,0.1,0.6,0.3,0.9,0.4l0.1,0.1L245.6,301.7C245.6,301.7,245.6,301.7,245.6,301.7z M254.7,280.6
		c-1.1,0.4-1.3,1.3-1.4,2c-0.1,0.8-0.2,1.5-0.4,2.2c-0.1,0.3-0.1,0.6-0.2,1c-0.2,0.7-0.3,1.5-0.3,2.3l0,0.3l4.5-2l0-0.2
		c-0.4-2.1-1.2-4-1.9-5.5l-0.1-0.2L254.7,280.6z"/>
	<path class="st0" d="M291.3,287.7c0.2-0.5,0.6-1,1.1-1.4c1.1-0.9,1.5-2.1,1.5-3.8c0-2.1-0.1-4.1-0.1-6.2c0-1.5-0.1-3-0.1-4.6
		c0-1,0-1.9,0-2.8c0-0.8,0-1.6,0-2.5c0-1.2-0.1-2.3-0.2-3.4c0-0.3-0.3-0.7-0.6-0.9c-0.6-0.5-1.3-0.9-1.9-1.3
		c-0.3-0.2-0.4-0.3-0.4-0.4c3.7,0,7.5-0.6,11.6-1.8c0,0.5-0.2,0.8-0.6,1.1l-0.3,0.3c-0.6,0.6-1.1,1.2-1.8,1.8
		c-0.6,0.5-0.6,1.1-0.6,1.7c0,2.5,0.1,5.1,0.1,7.6c0.1,3.2,0.1,6.4,0.2,9.5c0,0.3,0,0.5,0,0.8c0,0.3,0,0.7,0,1c0,1.1,0.4,2,1.3,2.7
		c0.4,0.3,0.9,0.7,1.4,1l0.4,0.3L291.3,287.7z"/>
	<path class="st0" d="M208.8,310.6c0.3-0.3,0.6-0.7,0.9-1c1.2-1.3,1.8-2.9,1.8-4.8c0-3.3-0.1-6.7-0.2-10l-0.1-4.1c0-0.1,0-0.1,0-0.2
		c0.4-1.9-0.7-3-1.9-4c-0.2-0.2-0.4-0.5-0.6-0.7c0.8,0.1,1.6,0.1,2.5,0.1c0,0,0,0,0,0c2.8,0,5.5-0.4,8.4-0.9l0.2,0l-2.9,3.3l0,2.6
		c0,2.1,0,4.4,0,6.7c0,1.7,0.1,3.4,0.1,5.1l0.1,2.3c0,0.2,0,0.3,0,0.3c-0.6,2.1,0.6,3.3,1.9,4.2c0.3,0.2,0.5,0.4,0.8,0.6l0.2,0.2
		l-11.6,0.7L208.8,310.6z"/>
	<path class="st0" d="M163.4,206.8c-0.6,0-1.3-0.1-1.9-0.2c-3.3-0.6-5.8-2-7.7-4.3c-1.5-1.8-2.3-3.7-2.4-5.8c0-0.5,0-1.1,0-1.6
		c0-0.3,0-0.5,0-0.8c-0.2-2.5,0.2-4.6,1.2-6.6c0.2-0.3,0.3-0.7,0.4-1c0.1-0.3,0.2-0.6,0.3-0.9c1.3-2.9,3.3-4.8,5.9-5.9
		c0.9-0.7,2.1-1.1,3.4-1.1c3.2,0,7.1,2.1,8.5,4.6c0.8,1.4,1.7,2.9,2.4,4.5c0.9,1.9,1.2,3.9,1.1,6.1c0,0.6-0.2,1.2-0.3,1.9
		c-0.1,0.4-0.2,0.9-0.3,1.3c-0.5,3.4-2.3,6.1-5.7,8.2C166.9,206.3,165.2,206.8,163.4,206.8z M163.9,182c-2.3,0-4.6,1.9-5,3.6l-0.3,1
		c-0.3,1-0.6,2-0.8,3c-0.6,2.7-0.8,5.1-0.6,7.4c0.1,1.5,0.3,3.2,1.4,4.6c1.1,1.5,2.3,2.2,3.8,2.2c0,0,0,0,0,0c0.1,0,0.2,0,0.3,0
		c1.3-0.1,2.4-0.7,3.4-1.9c1.7-1.9,2.2-4.2,2.5-6c0.2-1,0.2-2.1,0.3-3.1c0-0.5,0-0.9,0.1-1.4c0.3-3-0.9-5.5-2-7.4
		c-0.7-1.1-1.6-1.8-2.5-2C164.3,182,164.1,182,163.9,182z"/>
	<path class="st0" d="M116.5,190.4c-0.7,0-1.4-0.1-2.1-0.3c-2.1-0.7-4.2-1.4-6-2.1c-1.3-0.5-2.6-1-3.9-1.5l-1.2-0.5l0.5-0.2
		c0.6-0.2,1.2-0.4,1.8-0.7c0.7-0.3,1-0.7,1.1-1.5c0.2-1.9,0.5-3.9,0.8-5.7c0.1-1,0.3-1.9,0.4-2.9c0.4-3,0.8-6.1,1.2-9.1
		c0.2-1.5,0.2-1.6-0.3-2.9l-0.8-2.2l0.9,0.4c0.9,0.4,1.8,0.8,2.7,1.2l1.9,0.8c2,0.9,4.1,1.7,6.1,2.6c1.6,0.6,2.9,1.9,4,3.8
		c2.2,3.9,2.7,8.3,1.6,12.9c-0.7,2.8-2,4.8-4,6.2C119.6,189.9,118.1,190.4,116.5,190.4z M113.8,166.7c-0.1,0.4-0.2,0.8-0.2,1.1
		c-0.1,0.6-0.2,1.3-0.3,1.9c-0.1,0.4-0.1,0.9-0.2,1.3c-0.1,0.9-0.3,1.7-0.4,2.6c-0.2,1.5-0.5,3-0.7,4.6c-0.1,1-0.3,2-0.4,3
		c-0.1,1.1-0.3,2.2-0.4,3.2c-0.1,1,0,1.7,1,2.2c0.6,0.3,1.2,0.5,1.7,0.6c0.4,0.1,0.8,0.1,1.1,0.1c0.6,0,1.1-0.1,1.6-0.4
		c2-1.3,3.2-2.9,3.6-4.8c0.4-2,0.7-3.9,0.9-5.9c0.1-2-0.1-3.7-0.7-5.3c-1.2-3.2-3.8-4.3-6.2-5l-0.2-0.1L113.8,166.7z"/>
	<path class="st0" d="M101,193.6c-0.7-0.2-1.4-0.4-2.2-0.7l-0.5-0.1c-1-0.3-2-0.6-2.9-1c-2.6-1-4.5-2.7-5.8-5.1
		c-0.5-0.9-0.7-2.1-0.6-3.4c0.3-3.2,0.6-6.5,1-9.7l0.3-2.3c0.1-0.7,0.2-1.4,0.3-2.1c0.1-0.3,0.1-0.7,0.2-1l0.3-1.7
		c0.2-1.3,0.4-2.6,0.6-3.9c0.3-2,0.5-4.1,0.8-6.6c0.4-3.2,0.4-6.4,0.4-9.8c2.4,2.2,4.9,4.1,7.5,6c2.6,1.9,5.3,3.3,8,4.3
		c-0.4-0.1-0.8-0.1-1.2-0.3l-0.8-0.3c-2.2-0.7-4.4-1.3-6.6-2.1c-0.9-0.3-1.9-0.8-2.8-1.2c-0.3-0.2-0.7-0.3-1-0.5
		c-0.2-0.1-0.5-0.2-0.7-0.2c-0.3,0-0.6,0.2-0.9,0.6l-0.1,0.2l0.7,0.5c2.5,1.9,5.1,3.8,7.7,5.6l0,0c-1.1-0.4-2.2-0.7-3.4-1.1
		c-0.5-0.2-1.1-0.5-1.6-0.7c-1-0.5-2-1-3.3-1.1l-0.3,0l0.1,0.3c0.2,0.9,0.7,1.3,1.2,1.7c0.7,0.4,1.3,0.9,1.9,1.4
		c1.9,1.5,3.9,2.7,5.9,3.7c0.1,0.1,0.2,0.1,0.3,0.2c-0.1,0-0.1,0-0.2,0l-0.7-0.2c-1-0.3-1.9-0.7-2.9-1.1c-1-0.4-2-0.9-2.9-1.3
		c-0.5-0.3-1.1-0.5-1.7-0.8c-0.3-0.1-0.6-0.3-0.9-0.3c-0.4,0-0.7,0.2-0.9,0.6l-0.1,0.2l0.1,0.1c3.2,2.6,6.8,5.6,11.1,7.2l0,0
		l-0.6-0.2c-0.5-0.2-1.1-0.4-1.6-0.6c-0.3-0.1-0.5-0.2-0.8-0.3c-0.4-0.1-0.9-0.3-1.3-0.4c-1.4-0.6-2.7-1.1-4.1-1.7l-1.5-0.6
		c-0.1,0-0.2-0.1-0.3-0.1c-0.2-0.1-0.4-0.2-0.6-0.3l-0.1,0c-0.2,0-0.5,0.1-0.6,0.3c-0.1,0.2-0.1,0.4,0,0.6l0,0.1
		c0,0.1,0.1,0.2,0.2,0.3l0.8,0.7c0.7,0.5,1.3,1.1,2,1.6c0.8,0.6,1.7,1.2,2.6,1.8l1,0.7c1.3,0.9,2.6,1.5,4,1.8c0,0,0.1,0,0.1,0
		c-0.1,0-0.2,0-0.2,0c-0.2,0-0.5-0.1-0.6-0.1c-1.1-0.4-2.2-0.8-3.3-1.2c-1.1-0.4-2.2-0.8-3.2-1.2c-0.4-0.2-0.8-0.4-1.3-0.6
		c-0.3-0.2-0.7-0.3-1-0.5c-0.3-0.1-0.7-0.3-1.1-0.4c-0.2-0.1-0.9-0.3-0.9-0.3l0.1,0.3c0.2,1,0.8,1.5,1.4,1.9c0.5,0.4,1,0.7,1.5,1.1
		c0.3,0.2,0.7,0.5,1,0.7c0.3,0.2,0.7,0.5,1,0.8c1.6,1.2,3.3,2.5,5.4,3.1c0.2,0.1,0.4,0.2,0.7,0.3c0,0,0,0,0.1,0c0,0,0,0,0,0
		c-1-0.4-2.1-0.7-3.1-1.1c-2.2-0.7-4.5-1.4-6.6-2.7c-0.3-0.2-0.5-0.3-0.8-0.3c-0.2,0-0.4,0.1-0.8,0.2l-0.6,0.1l0.3,0.3
		c0.1,0.1,0.2,0.2,0.3,0.3c0.2,0.2,0.4,0.5,0.7,0.6c1.2,0.6,2.2,1.4,3.2,2.1c0.5,0.4,1,0.7,1.5,1.1c1.5,1.1,3.2,2.2,5.1,2.9
		c0.1,0,0.2,0.1,0.3,0.2l-0.2-0.1c-0.3-0.1-0.6-0.2-0.9-0.3c-0.3-0.1-0.5-0.2-0.8-0.3c-0.5-0.2-1-0.4-1.6-0.6
		c-1.8-0.5-3.5-1.4-5.2-2.2l-0.8-0.4c-0.4-0.2-0.9-0.5-1.4-0.5c-0.2,0-0.5,0-0.8,0.1l-0.3,0.1l0.2,0.2c0.9,0.9,2,1.6,3,2.3
		c0.7,0.5,1.4,0.9,2,1.5c1.1,0.9,2.3,1.7,3.6,2.5c0.2,0.1,0.4,0.2,0.6,0.4l-0.4-0.1c-1.2-0.3-2.4-0.7-3.6-1
		c-0.8-0.2-1.5-0.6-2.3-1.1c-0.9-0.5-1.8-1-2.8-1.2l-0.3-0.1l0,0.3c0.1,1.1,0.8,1.6,1.4,2l0.2,0.1c1.5,1.1,3.1,2.2,4.6,3.2l1.1,0.8
		c0.3,0.2,0.5,0.3,0.8,0.5c0.2,0.1,0.4,0.2,0.5,0.3c0.2,0.1,0.2,0.2,0.3,0.3c0,0.1,0,0.1,0,0.2l-8.2-3.6l-0.1,0.2
		c-0.2,0.6,0,1,0.6,1.3c0.5,0.2,0.8,0.6,1.2,1.1c0.3,0.4,0.8,0.8,1.2,1.1c1.8,1.3,3.5,2.4,5.1,3.4c0.2,0.2,0.5,0.3,0.7,0.4
		c-3-0.9-6.1-2.1-8.7-4.2l-0.4-0.3l0.1,0.5c0.1,0.8,0.7,1.3,1.2,1.8c0.1,0.1,0.3,0.3,0.4,0.4c0.6,0.7,1.3,1.3,2,1.9
		c0.7,0.6,1.5,1.2,2.3,1.8c0.5,0.3,1,0.7,1.6,1c0.3,0.2,0.5,0.3,0.8,0.5c0.4,0.2,0.8,0.3,1.2,0.4c0.4,0.1,0.8,0.2,1.1,0.4L101,193.6
		z"/>
	<path class="st0" d="M145.9,199.6c-4.5-1.8-9.2-3.1-14.1-4.5c-1.1-0.3-2.1-0.6-3.2-0.9c0.1-0.1,0.3-0.2,0.4-0.3
		c0.6-0.3,1-0.6,1.5-0.9c0.9-0.4,1.3-1,1.4-2c0.2-1.7,0.4-3.5,0.6-5.2c0.1-0.9,0.2-1.8,0.3-2.7c0.2-1.9,0.5-3.7,0.7-5.6l0.6-4.5
		c0.1-0.6,0.1-1.3-0.4-2c-0.3-0.4-0.5-0.9-0.8-1.5c-0.1-0.2-0.1-0.3-0.2-0.5l15.8,5.3l-0.7,5.4c0-0.1-0.1-0.1-0.1-0.2l-0.8-1.2
		c-0.5-0.8-1.1-1.7-1.6-2.5c-0.1-0.2-0.4-0.3-0.6-0.4c-1.5-0.5-3-1-4.5-1.6c-0.1,0-0.1,0-0.2,0c-0.1,0-0.1,0-0.2,0
		c-0.1,0-0.2,0-0.3,0l-0.2,0l-0.2,1.5c-0.2,1.2-0.4,2.3-0.5,3.5c-0.1,0.7-0.2,1.4-0.2,2.2c-0.1,1.1,0.2,1.5,1.3,1.8
		c0.3,0.1,0.7,0.2,1,0.3c0.7,0.2,1.4,0.3,2.1,0.6c0.3,0.1,0.5,0.1,0.8,0.1c0.5,0,0.9-0.2,1.3-0.6c0.4-0.3,0.8-0.7,1.1-1.1l0.5-0.5
		c0.1-0.1,0.1-0.1,0.3-0.2l-0.1,1.1c-0.1,1-0.2,2.1-0.3,3.1c-0.1,1-0.3,2-0.4,3.1l-0.2,1.1c-0.5-0.2-0.7-0.6-0.8-0.8
		c-0.4-0.7-0.4-1-0.7-1.5c-0.3-0.4-0.4-0.6-0.6-1c-0.1-0.2-0.2-0.3-0.6-0.4c-1.2-0.4-2.4-0.9-3.6-1.3c-0.3-0.1-0.5-0.2-0.7-0.2
		c-0.5,0-0.6,0.5-0.7,0.9c-0.2,1.1-0.4,2.2-0.7,3.7c-0.1,0.6-0.2,1.2-0.2,1.9c-0.1,0.6-0.1,1.1-0.2,1.7c-0.1,0.7,0.2,1.1,0.8,1.3
		c0.4,0.2,0.8,0.3,1.2,0.5c1.1,0.4,2.2,0.8,3.3,1.2c0.1,0,0.2,0.1,0.4,0.1c0.5,0,0.9-0.3,1.4-0.7c0.6-0.6,1.2-1.1,1.8-1.7l0.7-0.6
		l0,0L145.9,199.6z"/>
	<path class="st0" d="M317.4,197c0-0.1,0.1-0.1,0.1-0.2c0.7-0.7,1.4-1.5,2.1-2.2c1.3-1.4,2.5-2.7,3.8-4.1c0.5-0.6,1-1.3,1.4-1.9
		c0.2-0.3,0.2-0.8,0.1-1.2l0-0.3l-0.3,0.1c-1.8,1-3.7,1.6-5.6,2.2c-0.3,0.1-0.6,0.2-0.9,0.3c1-0.7,1.9-1.6,2.9-2.6
		c0.2-0.2,0.5-0.5,0.7-0.7c1-1,2-1.9,2.7-3.4l0.2-0.5l-8.3,3.2l0,0c0.5-0.5,1.2-0.9,1.8-1.3c0.6-0.4,1.3-0.9,1.9-1.4
		c0.8-0.7,1.6-1.5,2.4-2.2l1.2-1.1l-0.3-1.2l-0.2,0.1c-0.4,0.2-0.8,0.3-1.1,0.5c-0.9,0.4-1.7,0.8-2.6,1.1c-0.8,0.3-1.7,0.6-2.6,0.9
		c-0.3,0.1-0.6,0.2-0.8,0.3c0-0.1,0.1-0.1,0.1-0.1c2.4-1.4,4.3-3.4,6.1-5.3c0.6-0.6,0.8-1.2,0.6-2l-0.1-0.3l-0.2,0.1
		c-0.4,0.2-0.9,0.5-1.3,0.7c-1,0.6-1.9,1.1-2.9,1.5c-1,0.4-2.2,0.7-3.3,0.9c0,0,0,0,0,0c0.8-0.4,1.6-0.9,2.3-1.4
		c1.1-0.9,2.1-2,2.8-2.8c0.1-0.2,0.3-0.3,0.5-0.5c0.7-0.8,1.5-1.6,1.8-2.8l0.1-0.4l-0.4,0.1c-0.6,0.2-1.1,0.4-1.7,0.7
		c-1.9,0.8-3.7,1.5-5.6,1.9c2.9-1.8,5-4.5,6.7-6.8c0.4-0.5,0.4-0.6,0.2-1.4l-0.1-0.3l-0.2,0.1c-2.5,1.5-5,2.6-7.5,3.2
		c0.1-0.4,0.4-0.7,0.8-1l0.2-0.2c1.8-1.6,3.5-3.1,5-4.5c0.5-0.5,0.9-1.1,1.2-1.7l0.3-0.6l-0.6,0.4c-2,1.2-4.2,2-6.3,2.8
		c-0.4,0.2-0.8,0.3-1.2,0.5c3.6-2.7,7.2-5.5,9.6-9.7l0.1,0.7c0.1,0.9,0.1,1.7,0.2,2.5l0.2,1.8c0.2,2,0.4,4.2,0.7,6.2
		c0.5,3.6,1,7.7,1.7,11.7c0.6,3.3,1.3,6.7,2,10l0.1,0.7c0.2,1.1,0.2,1.8-0.4,2.7c-0.4,0.5-0.8,1.1-1.1,1.7c-0.2,0.4-0.5,0.8-0.8,1.2
		c-0.8,1.2-2,2.2-3.4,2.9c-0.8,0.4-1.7,0.9-2.5,1.3c-0.5,0.3-1.1,0.6-1.6,0.9C317.6,196.9,317.5,196.9,317.4,197z"/>
	<path class="st0" d="M304.5,196.9c-1.4,0-2.9-0.3-4.5-1.1c-4.9-2.2-7.4-6-7.5-11.3c-0.1-3.6,0.9-6.8,2.9-9.5c1.7-2.2,4-3.7,7.2-4.7
		c1.4-0.5,2.9-0.5,4.3-0.6c0.5,0,0.9-0.1,1.4-0.1c0.3,0,0.6,0,0.9,0c0.3,0,0.5,0,0.8,0c0.2,0,0.4,0,0.6,0l1.6,6.2
		c-0.1,0-0.1-0.1-0.2-0.2l-0.1-0.1c-0.9-0.9-1.8-1.7-2.9-2.2c-1.4-0.7-2.6-1-3.8-1c-0.9,0-1.8,0.2-2.6,0.6c-2.2,1.1-3.6,2.6-4.2,4.6
		c-0.7,2.3-1,4.4-0.9,6.5c0.2,3.2,1.6,6,4.3,8.4c0.4,0.3,0.9,0.5,1.4,0.7c0.2,0,0.3,0.1,0.5,0.2c0.7,0.2,1.4,0.4,2.2,0.4
		c2.4,0,4.7-1.3,6.1-3.4c0.5-0.7,0.9-1.5,1.3-2.3c0.2-0.4,0.4-0.7,0.6-1.1c0.1-0.2,0.2-0.3,0.3-0.6l0.1-0.1c0,0,0,0,0,0.1
		c0.1,0.2,0.2,0.3,0.2,0.4c0.1,0.7,0.1,1.5,0.1,2.2c0,0.8,0.1,1.7,0.1,2.5c0.1,0.8-0.2,1.3-0.8,1.7c-2.3,1.5-4.6,2.6-6.9,3.5
		C306.3,196.7,305.4,196.9,304.5,196.9z"/>
	<path class="st0" d="M271.8,250.1c-0.2,0-0.4,0-0.6,0c-3.2-0.4-6.1-1.2-8.6-2.6c-0.8-0.4-1.5-1-2.2-1.6l-0.5-0.4
		c-0.4-0.4-0.9-0.8-1.2-1.3c-0.2-0.3-0.6-0.8-0.6-1.3c-0.2-2.3-0.3-4.6-0.5-6.9c-0.1-1.7-0.2-3.4-0.3-5.1c-0.1-1.4-0.2-2.7-0.3-4.1
		c-0.1-1.3-0.2-2.6-0.3-3.8c-0.1-1.2-0.1-2.4-0.2-3.6c-0.1-1-0.1-1.9-0.2-2.9c-0.2-2.4-0.3-5-0.5-7.6c0-0.3-0.1-0.5-0.1-0.8
		c0-0.3-0.1-0.7-0.1-1c0.1,0.1,0.3,0.3,0.4,0.4c1.2,1.7,2.9,3,5.3,4.2l3.5,1.7c2.6,1.3,5.1,2.6,7.7,3.8c0.5,0.3,1.1,0.5,1.7,0.7
		c0.2,0.1,0.4,0.1,0.6,0.2c-0.1,0.1-0.2,0.1-0.2,0.1c-0.1,0-0.1,0-0.2-0.1c-0.7-0.3-1.5-0.4-2.3-0.5c-0.5-0.1-1-0.1-1.5-0.3
		c-1.2-0.3-2.3-0.8-3.5-1.2c-0.5-0.2-1-0.4-1.5-0.5l-0.8-0.3c-0.7-0.3-1.4-0.5-2.2-0.7c-0.1,0-0.3-0.1-0.4-0.1c-0.1,0-0.2,0-0.3,0
		c-0.1,0-0.3,0-0.5,0l-0.3,0l0.1,0.3c0.6,1.2,1.5,1.7,2.2,2.2l0.7,0.4c2.1,1.2,4.2,2.5,6.5,3.3c0.4,0.2,0.9,0.4,1.3,0.6
		c0.3,0.1,0.5,0.2,0.8,0.4c1,0.4,1.9,0.9,3.1,0.9c0.2,0,0.3,0.1,0.5,0.1c0,0,0.1,0,0.1,0l0,0.1c-0.1,0-0.2,0-0.3,0
		c-0.2,0-0.4,0.1-0.6,0.1c-0.1,0-0.2,0-0.3,0c-2.3-0.6-5-1.4-7.7-2.2c-1.1-0.3-2.2-0.8-3.2-1.2c-0.5-0.2-1-0.4-1.5-0.6
		c-0.2-0.1-0.4-0.1-0.5-0.1c-0.2,0-0.4,0-0.6,0.1l-0.5,0.1l0.1,0.2c0,0.1,0.1,0.1,0.1,0.2c0.1,0.2,0.1,0.4,0.3,0.5
		c0.3,0.3,0.7,0.6,1.1,0.8c2.7,1.7,5.7,3.2,8.8,4.3c0.8,0.3,1.5,0.5,2.3,0.8c0.4,0.1,0.8,0.3,1.2,0.4c0.2,0.1,0.4,0.1,0.6,0.2l0.1,0
		c-0.1,0.1-0.2,0.1-0.3,0.1c-0.1,0-0.2,0-0.4-0.1c-1-0.3-1.9-0.5-2.8-0.7c-1.6-0.3-3.2-0.7-4.7-1.4c-0.9-0.4-1.9-0.8-2.8-1.1
		l-0.9-0.3c-0.6-0.2-0.9-0.3-1.2-0.3c-0.2,0-0.5,0.1-0.9,0.1l-0.3,0.1l0.2,0.3c0.1,0.1,0.1,0.2,0.2,0.2c0.1,0.2,0.2,0.3,0.4,0.5
		c0.4,0.3,0.8,0.6,1.2,0.8c1.8,1.2,3.7,2.5,5.9,3.1c0.5,0.1,0.9,0.3,1.4,0.6c0.3,0.2,0.7,0.3,1,0.5c0.9,0.3,1.8,0.6,2.7,0.9l0.6,0.2
		c-0.2,0.1-0.5,0.1-0.7,0.1c-0.3,0-0.6,0-0.8-0.2c-0.5-0.2-1.1-0.3-1.7-0.3l-0.1,0c-2-0.3-3.9-0.9-5.8-1.6c-0.9-0.3-1.8-0.6-2.7-0.9
		c-0.3-0.1-0.6-0.1-0.8-0.2l-0.6-0.1l0,0.2c-0.2,1,0.5,1.4,0.9,1.6c1.7,1,3.2,1.8,4.8,2.5c1.6,0.7,3.3,1.4,4.9,2l0.6,0.2
		c0.3,0.1,0.7,0.2,1,0.3c0.2,0,0.4,0.1,0.6,0.1c0.1,0,0.3,0.1,0.4,0.2l0,0c-0.1,0.2-0.2,0.2-0.4,0.2c-0.1,0-0.2,0-0.3,0
		c-2.1-0.2-4.8-0.5-7.4-1.4c-1.1-0.3-2.1-0.6-3.2-0.9c-0.3-0.1-0.6-0.1-1-0.1c-0.1,0-0.3,0-0.4,0l-0.1,0l-0.2,0.5l0.1,0.2
		c0.1,0.1,0.2,0.1,0.2,0.2c0.2,0.2,0.3,0.3,0.6,0.4c3.2,1.7,6.8,3.7,10.8,4.9c0.1,0,0.2,0.1,0.4,0.2c-0.1,0.1-0.2,0.1-0.3,0.1
		c-0.6-0.1-1.3-0.2-1.9-0.3c-1.8-0.3-3.7-0.5-5.4-1.3c-0.8-0.3-1.6-0.5-2.4-0.7l-0.4-0.1c-0.3-0.1-0.7-0.1-1-0.1c-0.2,0-0.4,0-0.5,0
		l-0.3,0l0,0.3c0.2,0.9,0.7,1.1,1.1,1.3l0.1,0c1.9,0.8,3.8,1.6,5.6,2.4l2.3,0.9c0.3,0.1,0.5,0.2,0.8,0.3c0.7,0.4,1.6,0.8,2.7,0.8
		c0.4,0,0.7,0.1,0.8,0.5c-0.2,0-0.4-0.1-0.5-0.1c-0.6-0.1-1.1-0.2-1.7-0.3c-1.7-0.4-3.4-0.9-5.2-1.3c-1.4-0.4-2.8-0.7-4.2-1.1
		c-0.3-0.1-0.6-0.1-0.9-0.1c-0.1,0-0.3,0-0.4,0l-0.2,0l-0.2,0.5c0,0,0.2,0.2,0.2,0.3c0.1,0.1,0.3,0.3,0.4,0.4c2.6,1.7,5.5,3,8.8,4.1
		l3.6,1.1c0,0-0.1,0.1-0.1,0.1l-0.3,0c-2.8-0.1-5.6-0.2-8.4-1.1c-1-0.3-2-0.6-3-0.9c-0.1,0-0.2,0-0.4,0l-0.1,0l-0.2,0l0,0.2
		c-0.1,0.7,0.3,1.1,0.7,1.3c0.6,0.3,1.2,0.6,1.8,0.9c1.1,0.6,2.3,1.3,3.6,1.8c1.2,0.5,2.5,0.9,3.7,1.3c0.6,0.2,1.2,0.4,1.7,0.6
		c0,0,0.1,0,0.1,0.1c-0.3,0-0.6,0.1-0.9,0.1C272.9,250,272.3,250.1,271.8,250.1z"/>
	<path class="st0" d="M122.4,304.8c-1.4,0-2.9-0.1-4.3-0.4c-1.2-0.3-2.8-0.7-4.2-1.6c1.5,0.4,2.9,0.6,4.3,0.5c2.1,0,4.2-0.5,6.2-1.3
		c0.1,0,0.1,0,0.2-0.1c0.4-0.1,1-0.4,0.9-1.3l0-0.2c0,0-1.2,0-1.5,0c-0.6,0-1.1,0-1.7,0c-1.3,0-2.5,0-3.8-0.2c-2-0.3-3.8-1-5.5-2.1
		c1.5,0.6,3.1,0.7,4.3,0.7l0.1,0c1.6,0,3.2-0.1,4.8-0.2c0.6-0.1,1.2-0.3,1.8-0.6c0.3-0.2,0.5-0.5,0.7-0.9l0.1-0.3l-0.3,0
		c-0.3,0-0.6,0-1,0c-0.4,0-1.8,0-2.1,0c-0.9,0-1.9,0-3-0.2c-2-0.3-3.7-0.8-5.3-1.4c0.3,0.1,0.6,0.1,1,0.2c0.9,0.2,1.9,0.4,2.8,0.5
		c0.3,0,0.6,0,0.9,0c0.9,0,1.7-0.1,2.6-0.2c1.1-0.2,2.2-0.5,3.2-0.8c0.7-0.2,1.5-0.5,1.7-1.6l0.1-0.3l-0.3,0.1
		c-1.2,0.2-2.4,0.4-3.6,0.4c-3.2,0-6.3-0.9-9.3-2.8c1.4,0.5,2.8,0.6,4.3,0.8c0.5,0,0.9,0.1,1.4,0.1c1.4,0,2.8-0.2,4.1-0.4
		c0.6-0.1,1.1-0.4,1.6-0.6c0.2-0.1,0.2-0.3,0.3-0.6c0-0.1,0.1-0.3,0.2-0.4l0.1-0.3l-0.4,0c-0.9,0.1-1.8,0.2-2.7,0.2
		c-3.4,0-6.4-0.9-9.2-2.9c0.1,0,0.2,0,0.3,0c0.4,0.1,0.9,0.2,1.3,0.4c0.8,0.2,1.7,0.5,2.5,0.6c0.9,0.1,1.9,0.3,2.8,0.3
		c0.4,0,0.8,0,1.2-0.1c1.7-0.3,3.3-0.5,4.6-1.8l0.1-0.1l0-0.1c-0.1-0.4-0.4-0.7-0.8-0.7c-0.1,0-0.3,0-0.4,0.1
		c-0.5,0.3-1,0.4-1.6,0.4c-0.5,0-1.1-0.1-1.6-0.2c-0.3,0-0.6-0.1-0.9-0.1c-2.1-0.3-4.1-1-5.8-2.1c-0.4-0.3-0.9-0.5-1.3-0.8l-0.2-0.1
		c0.1,0,0.2,0.1,0.4,0.1c2,0.8,4,1.1,6.1,1.1c1.1,0,2.1-0.1,3.2-0.3c0.8-0.2,1.6-0.5,2.4-0.9c0.3-0.1,0.5-0.4,0.7-0.6
		c0.1-0.1,0.2-0.3,0.4-0.4l0.3-0.3l-0.4-0.1c-0.1,0-0.2-0.1-0.3-0.1c-0.1,0-0.2-0.1-0.3-0.1c-1,0.1-2,0.2-2.9,0.2
		c-3.4,0-6.7-0.9-9.8-2.6c-0.2-0.1-0.4-0.2-0.5-0.3c2.2,0.7,4.2,1,6.1,1c1.4,0,2.7-0.2,4-0.5c0.3-0.1,0.6-0.1,0.9-0.2
		c1.1-0.2,2.2-0.5,3.1-1.3l0.4-0.4l-0.5,0c-0.1,0-0.5,0-0.5,0c-0.1,0-0.2,0-0.3,0c-1.2,0.2-2.5,0.3-3.9,0.3c-1.7,0-3.4-0.1-5.3-0.4
		c-0.2,0-0.4-0.1-0.5-0.1c-1.2-0.5-2.3-1-3.5-1.5c2.3,0.4,4.2,0.6,5.9,0.6c3.5,0,5.7-0.9,8.2-2c0.7-0.3,1.4-0.6,2.2-0.9l0.2,4
		l0.1,2.4c0.1,1.6,0.1,3.2,0.2,4.8c0.1,2.4,0.3,5.1,0.4,7.7c0.2,3.5,0.5,7,0.8,10c0,0.3,0.1,0.6,0.2,0.9c0,0.1,0.1,0.2,0.1,0.3
		c-1,1.2-2.5,1.4-4,1.7l-0.2,0C124.4,304.7,123.4,304.8,122.4,304.8z"/>
	<path class="st0" d="M119.8,150.1c0.2,0,0.5,0,0.8,0c1.8,0,3.7-0.2,5.5-0.4l1.3-0.1l-0.1-0.2c-0.2-0.7-0.7-0.8-1.1-0.8l-0.2,0
		c-0.4,0-0.7,0-1.1-0.1c-0.7,0-1.3-0.1-2-0.2c-1.4-0.2-2.9-0.4-4.3-0.7l-0.6-0.1c3.5,0,7.1-0.6,10.6-1.5l0.7-0.2l-0.7-0.2
		c-1-0.3-2.1-0.3-3.1-0.3c-0.6,0-1.2,0-1.7-0.1c-1.1-0.1-2.2-0.3-3.3-0.5c-0.4-0.1-1.3-0.2-1.3-0.2c0,0,0,0,0.1-0.1
		c0.1-0.1,0.2-0.1,0.2-0.1c0.7,0,1.5-0.1,2.2-0.1c1.3,0,2.7-0.1,4-0.2c0.7-0.1,1.5-0.2,2.2-0.4c0.3-0.1,0.6-0.2,1-0.2l0.1,0l0.1-0.5
		l-0.1-0.1c0,0-0.1-0.1-0.1-0.1c-0.1-0.1-0.3-0.2-0.5-0.2c-1.2,0-2.4,0-3.6,0.1c-0.2,0-0.3,0-0.5,0c-1.7,0-3.4-0.3-5.4-0.9l0.2,0
		c0.9-0.1,1.8-0.1,2.7-0.2c1.2-0.1,2.5-0.3,3.8-0.5c1.2-0.2,2.5-0.4,3.9-0.9l0.6-0.2l-0.6-0.2c-0.1,0-0.1,0-0.2-0.1
		c-0.2-0.1-0.3-0.1-0.5-0.1c-0.2,0-0.4,0-0.6,0c-0.3,0-1.5,0-1.8,0c-0.5,0-1.2,0-1.9-0.1c-1.3-0.1-2.6-0.3-3.9-0.6
		c-0.3,0-0.6-0.1-0.8-0.1c1.5-0.1,2.8-0.4,4.1-0.7c0.4-0.1,0.8-0.2,1.2-0.3c1.2-0.3,2.5-0.5,3.7-0.8c1.3-0.3,2.4-0.8,3.3-1.6
		c0,0,0.1-0.1,0.1-0.1c-1.1,3.7-1.9,7.5-2.7,11.2c-0.4,1.9-0.8,3.9-1.3,5.8L119.8,150.1z"/>
	<path class="st0" d="M209.4,356.3c-0.6,0-1.2-0.1-1.8-0.2c-1.7-0.3-3.3-0.9-4.8-1.8c-2.6-1.7-3.9-4.8-3.2-7.7
		c0.1-0.3,0.3-1.1-0.7-1.4c-0.4-0.2-0.8-0.3-1.3-0.5l-0.1-0.1c-0.5-0.2-1-0.4-1.4-0.6c-1.1-0.5-2.2-1.1-3.1-1.8
		c-1.6-1.4-1.9-2.8-1.2-5.2c0.3-0.9,0.9-1.6,2-2.3c0.4-0.2,0.8-0.4,1.3-0.7l0.9-0.4l0-1.2c0-0.8,0-1.6,0.1-2.5
		c0-0.8,0.1-1.7,0.1-2.5l0-1.1c0.1-1.5-0.2-1.9-1.6-2.2c-7-1.6-13.8-4.1-20.2-6.7c-4.9-1.9-9.6-4.3-13.5-6.3c-2.6-1.4-5.2-3-7.6-4.7
		l-0.9-0.6c-3-1.9-5.8-4-8.2-5.7c-1.4-1-2.8-2.1-4-3L140,297c-0.6-0.5-1.2-0.9-1.8-1.4c-0.1-0.1-0.3-0.2-0.5-0.3
		c-0.2-0.1-0.3-0.2-0.4-0.3c-0.2-0.1-0.4-0.3-0.6-0.5l-0.6-0.5l-0.2,0.2c-0.4,0.3-0.3,0.8-0.3,1.1c0,0.1,0,0.2,0,0.2l0.1,1.4
		c0.1,1.9,0.2,3.8,0.4,5.7c0.1,1.4-0.3,2.8-1.4,4.2c-2.3,3.1-5.7,4.5-8.7,5.5c-2,0.7-4.2,0.9-6.2,1.1c-0.3,0-0.6,0-0.8,0
		c-1.7,0-3.3-0.3-4.9-0.7l-0.7-0.2c-3.4-0.7-6.7-2.5-10.2-5.7c-1.4-1.3-2.7-2.6-4-3.9c-1-1-2-2-3-2.9c-3.1-3-5.8-5.5-8.8-7.7
		c-2-1.5-4.4-3.2-7.1-4.4c0.4-0.1,0.9-0.3,1.3-0.4c1.4-0.4,2.7-0.8,4-1.1c1.8-0.4,3.7-0.8,6-1.1c1.2-0.2,2.3-0.2,3.6-0.3
		c0.9,0,1.7-0.1,2.5-0.1l0.3,0l0-0.3c-0.1-1.2-0.6-2.1-1.1-2.9c-0.2-0.4-0.4-0.7-0.6-1.1l0-0.1l-0.1-0.1c-0.4-0.1-0.6-0.2-0.9-0.3
		l-0.1-0.1c-0.6-0.2-1.2-0.4-1.8-0.7c-0.9-0.5-1.9-0.9-2.8-1.3c-2.2-0.9-4.4-1.9-6.3-3.3c-1.7-1.3-3.5-2.7-5-4.4
		c-1.1-1.2-1.8-2.8-2.6-4.3l-0.3-0.7c-0.9-1.8-1.9-4.1-2.1-6.5c-0.1-1.2,0-2.5,0.2-3.7c0.2-1.5,0.3-3,0.5-4.5
		c0.2-1.8,0.4-3.5,0.6-5.3c0.4-3.6,0.6-6.8,0.8-9.9c0.2-3,0.3-5.6,0.3-8.1c0-3.6,0.2-6.3,0.5-8.9c0.1-1.1,0.7-2,1.2-3
		c0.2-0.3,0.4-0.7,0.5-1c1-1.9,2.5-3.5,4.8-4.8c2.3-1.3,4.8-2.1,7.3-2.2c0.7,0,1.5,0,2.2,0h0.2c3.3,0,6.5,0.2,9.3,0.4
		c2.4,0.2,5.2,0.4,8.2,0.4l0.2,0c1.4,0,2.7,0,3.9-0.1c1-0.1,2.1-0.2,3.1-0.3l1.7-0.2l0-0.3c0-0.8-0.7-1-1-1l-0.1,0
		c-1.6-0.5-3.3-0.9-4.9-1.3c-3.1-0.8-6.3-1.7-9.4-2.6c-4-1.2-8.6-2.6-12.7-5c-2.9-1.7-5.4-3.9-7.4-6.6c-1.3-1.7-1.7-3.8-1.4-6.4
		c0.6-4.7,1.3-9.7,1.9-15.2c0.2-1.4,0.3-2.7,0.4-4.1l0-0.1c0.1-1,0.2-2,0.3-3c0.1-1.4,0.3-2.8,0.5-4.1l0-0.2c0.3-2.5,0.6-5,0.8-7.6
		c0.2-2.2,0.3-4.6,0.4-7.5c0.1-3.7,1.4-6.4,4.2-8.1c3.4-2.1,6.2-3.2,9.1-3.4c0.7,0,1.4-0.1,2.1-0.2c1.1-0.1,2-0.2,3-0.2
		c0.1,0,0.2,0,0.3,0c0.4,0,0.7,0,1.1,0.1c0.4,0,0.8,0.1,1.1,0.1c1.4,0,1.9-0.5,2.2-1.9l0.5-2.9c0.5-2.9,1-5.9,1.5-8.8
		c0.3-2.1,0.4-4.1,0.5-6.1c0-1.1,0.4-1.9,1.2-2.7c0.7-0.7,1.5-1.4,2.2-2c0.9-0.8,2.1-1.2,3.7-1.4c1.3-0.2,2.6-0.2,3.8-0.2
		c1.6,0,3,0.1,4.5,0.3c0.4,0.1,0.7,0.1,1.1,0.1c0.4,0,0.8,0.1,1.2,0.1c1.1,0.2,2.3,0.4,3.4,0.6l0.5,0.1c2,0.3,3.9,0.7,5.9,1
		c0.9,0.1,1.8,0.2,2.6,0.3l0.9,0.1l0.7,0.1c0.7,0.1,1.4,0.1,2.1,0.1l0.2,0c0.9,0,1.8-0.1,2.6-0.2l1-0.1c0.6,0,1.1-0.1,1.7-0.2
		l0.7-0.1c0.2,0,0.3,0,0.4-0.1c0.9-0.3,1.8-0.6,2.7-0.8c1.5-0.4,3-0.8,4.4-1.6c0.9-0.5,1.9-0.9,3-1.2c0.3-0.1,0.7-0.2,1-0.4
		c-0.9,1.1-1.4,2.5-1.9,3.9c-0.2,0.5-0.4,1.1-0.6,1.6c-0.3,0.7-0.6,1.3-0.8,2c-0.6,1.4-1.1,2.7-1.8,4.1c-1,2.2-2.1,4.7-3.4,7
		c-1.6,3.2-3.7,6.8-6.5,9.8l-0.5,0.5c-0.4,0.4-0.7,0.8-1.1,1.1c-0.7,0.9-0.6,1.2,0.1,1.9c2.7,2.7,6.2,3.9,9.2,4.8
		c1.1,0.3,2.2,0.6,3.4,0.8l1.2,0.3c0,0,0,0,0,0l-1.3,1.3c-1.2,1.2-2.4,2.5-3.7,3.7c-2.9,2.7-6.3,4.5-10.4,5.4
		c-4,0.9-7.3,1.3-10.3,1.4c-0.4,0-0.8,0.1-1.2,0.2c-0.2,0-0.4,0.1-0.6,0.1l-0.4,0.1l0.1,0.4c0.4,1.1,1.1,1.5,2,1.9
		c1.5,0.5,3,1.1,4.4,1.6c1.1,0.4,2.2,0.8,3.2,1.2c1.5,0.5,3.1,1.1,4.6,1.6c2.4,0.8,5.2,1.8,7.8,2.8c2.9,1.1,5.9,2.3,8.7,3.4
		c2.4,1,4.9,1.9,7.3,2.9c2,0.8,4.1,1.5,6.2,2.1l1.4,0.5c1.1,0.4,2.3,0.7,3.5,1.1l1.7,0.5l0,0c0.8-0.5,0.8-1.2,0.7-1.8
		c-0.3-4.2-1.6-8.2-3.8-11.6c-2.1-3.4-5.1-5.8-8.9-7.2c-1.6-0.6-2.3-1.6-2.2-3.2c0.1-1.5,0.1-2.8,0.1-3.9c0-0.8-0.1-1.4-0.4-1.9
		c-0.6-1.1-0.7-2.3-0.4-3.5c0.2-0.8,0.9-1.5,1.9-1.7c0.4-0.1,0.9-0.1,1.3-0.2c0.3,0,0.6,0,0.9-0.1c0.4-0.1,0.9-0.2,1.3-0.3l1.1-0.2
		l-0.2-0.4c0,0,0-0.1-0.1-0.1c-0.1-0.2-0.1-0.3-0.3-0.4c-2.4-2.3-4.1-5.2-5.1-8.5c-0.1-0.5-0.2-1-0.2-1.5c-0.1-0.5-0.1-1-0.2-1.6
		c-0.5-1.8-0.2-3.7,0-5.5c0.1-0.4,0.1-0.8,0.2-1.2c0.6-5.3,3.3-9.8,5.5-13l0.4-0.5c2.5-3.7,5.1-7.5,7.2-11.6c1.4-2.8,2.6-6,3.9-10.3
		c1.1-3.5,2.7-7.2,5-11.1c0.2-0.3,0.3-0.6,0.4-0.9c0.1-0.2,0.1-0.4,0.2-0.6c0-0.1,0.1-0.1,0.2-0.2c0,0,0.1,0.1,0.1,0.1
		c0.1,0.7,0.2,1.3,0.3,1.9c0,0.6,0.1,1.3,0.1,2c0,0.9,0.1,1.7,0.2,2.5c0.1,0.8,0.2,1.6,0.4,2.5c0.3,1.4,0.6,2.9,1,4.3l0.6,2.5
		l0.4-0.5c0.6-0.8,0.8-1.6,0.9-2.5c0.1-0.3,0.1-0.6,0.2-1c0.5-1.8,1.3-4.1,2.8-6.1c0.8-1,1.6-2.1,2.2-3.3c-0.4,1.5-0.2,3,0,4.3
		c0.1,0.7,0.1,1.5,0,2.3l0,0.2c0,0.4,0,0.9,0.6,1.1l0.3,0.1l0.9-1.9c0.5-1.2,1.1-2.4,1.6-3.6l0.3-0.6c0.3-0.6,0.6-1.3,0.8-2
		c0.3-1.3,0.6-2.7,0.9-4c0.2-1,0.4-1.9,0.6-2.8c0.3-1.3,0.7-2.6,1-3.9l0-0.1c0.1-0.3,0.2-0.7,0.4-1l0.1-0.2c0.1,0.1,0.1,0.1,0.1,0.1
		c0.8,4.7,3.3,8.4,5.8,11.9c0.5,0.6,0.9,1.3,1.4,1.9c1.1,1.5,2.1,3,3.2,4.4c1.6,2.1,2.6,4.5,3.2,7.3c0,0.2,0.1,0.4,0.4,0.7l0.4,0.4
		l0.5-1.5c0.6-1.7,1.1-3.3,2-4.8c1.1-1.9,2-3.3,3.1-4.4c-0.1,0.2-0.1,0.4-0.2,0.6c-0.1,0.3-0.2,0.5-0.2,0.8c-0.2,0.5-0.3,1-0.4,1.6
		c-0.6,4.1,0.5,8,1.6,11.4c0.6,2,1.4,3.9,2.1,5.8l0.1,0.2c0.4,1.1,0.8,2.2,1.2,3.3c0.3,0.8,0.5,1.6,0.7,2.4c0.1,0.4,0.2,0.8,0.3,1.2
		l0.1,0.4l0.4-0.2c0.6-0.4,0.6-0.9,0.6-1.4c0-1.3-0.1-2.6-0.1-3.8c0-2.2-0.1-4.3-0.2-6.5c-0.1-1.7,0.3-3.4,0.7-5.1
		c0.1-0.6,0.3-1.1,0.4-1.6c-0.3,2.9,0.7,5.4,1.8,7.5c0.5,0.9,1,1.9,1.4,2.8l0.1,0.2c0.6,1.2,1.2,2.4,1.8,3.5
		c0.3,0.5,0.4,1.1,0.6,1.6l0.1,0.3c0.7,2.3,1.4,4.8,1.4,7.2c0,0.4,0,0.7-0.1,1.1c0,0.2-0.1,1.2-0.1,1.2l0.5-0.3
		c0.4-0.2,0.6-0.6,0.7-0.9c0-0.1,0.1-0.2,0.1-0.3l0.6-1.1c0.5-0.9,0.9-1.7,1.4-2.6c0,0,0,0,0-0.1l0,0.3c0,0.8,0,1.6,0,2.4
		c-0.2,4.4,0.9,8.4,2,11.7c0.7,2.1,1,4.3,1.1,6.4c0,0.3,0,0.5,0.1,0.8c0,0.2,0.1,0.5,0.1,0.7c0.1,2.7-0.7,5.1-2.3,7.4
		c-0.5,0.7-1.1,1.4-1.6,2.1c-0.2,0.3-0.5,0.5-0.7,0.8c-0.8,0.9-0.7,1.5,0.1,2.4c1.5,1.5,1.6,3,0.6,4.7c-0.2,0.4-0.3,0.8-0.4,1.4
		c-0.1,1.3-0.2,2.9-0.2,4.4c0,1.1-0.4,2.1-1.3,2.9c-1,0.9-2.1,1.7-2.9,2.2c-0.5,0.4-1.1,0.7-1.7,1.1c-1.3,0.8-2.7,1.7-3.9,2.8
		l-0.1,0.1c-1.5,1.4-3,2.9-3.6,5.2c-0.2,0.7-0.4,1.3-0.6,1.9l0,0.1c-0.2,0.4-0.3,0.9-0.5,1.3c-0.1,0.3-0.2,0.7-0.2,1
		c0,0.2,0,0.4-0.1,0.6l0,0.3l0.3,0.1c0.1,0,0.2,0.1,0.4,0.1c0.3,0.1,0.5,0.2,0.8,0.2l0.7,0c1.4,0,2.7-0.1,4.1-0.3
		c2.5-0.3,5-1.3,7.3-2.7l1.2-0.8c2.5-1.6,5.2-3.2,7.6-5c1.9-1.4,3.7-2.9,5.4-4.3c0.8-0.7,1.7-1.4,2.5-2.1c0.8-0.7,1.7-1.4,2.5-2.1
		c2.2-1.8,4.5-3.6,6.8-5.4c3.1-2.4,5.6-4.1,8-5.5c4.9-3,10.4-5,16.3-5.9c2.1-0.3,4.3-0.5,6.4-0.7c0.8-0.1,1.5-0.1,2.3-0.2l0.7-0.1
		c0.6-0.1,1.3-0.1,2-0.1c0.3,0,0.5,0,0.7,0c2.2,0.2,4.5,0.6,6.4,0.9c2.2,0.3,4.4,1,7.2,2.2c2.3,1,3.7,2.2,4.6,3.9
		c0.2,0.3,0.3,0.7,0.3,1c0.2,1.3,0.4,2.5,0.6,3.8c0.2,1.4,0.4,2.8,0.6,4.2l0.5,3.1c0.4,2.8,0.9,6.1,1.5,9.1
		c0.7,3.6,1.5,7.3,2.2,10.8l0.8,3.6c0.3,1.5,0.7,3.1,1,4.6l0.7,3c0,0.1,0.1,0.3,0,0.4l0,0.1c-1,3.1-2.1,6.2-4,8.8
		c-2.6,3.6-5.4,6.3-8.6,8.3c-1.9,1.2-4.1,2-6.4,2.5c-1.7,0.3-3.4,0.8-5.1,1.2l-2.6,0.6c-2,0.5-4.1,1-6.1,1.6c-1.5,0.4-3,1-4.5,1.5
		l-1.2,0.4c-0.3,0.1-0.5,0.2-0.8,0.4c-0.1,0.1-0.2,0.2-0.4,0.2l-0.5,0.3l0.4,0.3c1.1,0.7,2.1,0.8,3.2,0.8l0.2,0
		c5.6,0.4,11.2,1.1,16.7,2.2c5.1,1,8.7,2.3,11.9,4.2c1.8,1.1,3.4,2.6,4.6,4.3c0.8,1.2,1,2.6,1.2,4l0.1,0.4c0.2,1.4,0.5,3,0.6,4.5
		c0,0.5,0,1,0,1.5c0,0.3,0,0.6,0,0.9c0,1.8,0.1,8.9,0.1,8.9c0,1,0,2,0,3v0.3c0,2.4,0,4.8,0.1,7.2c0.1,3.2,0.3,6.6,0.5,9.5l0.1,2.7
		c0.1,2.1,0.3,4.2,0.4,6.3c0.1,0.9,0.1,1.7,0.2,2.6c0.1,1.3,0.2,2.6,0.3,3.9c0.2,2.7-0.5,5.4-1.9,7.9c-0.8,1.5-2.2,2.4-3.4,3.1
		c-1.3,0.8-2.7,1.5-4.1,2.2l-0.8,0.4c-1.9,1-4,1.6-6.1,2.1l-0.5,0.1c-3.3,0.9-6.3,1.6-9.2,2.2c-1.7,0.3-3.4,0.5-5.1,0.7l-0.7,0.1
		c-4.8,0.5-9.5,1.1-14,1.8l-0.9,0.1c-3,0.5-6.1,1-9.1,1.7c-3.5,0.9-6.9,1.9-10.2,3c-3.8,1.3-7.2,2.5-10.3,3.7
		c-3.9,1.6-7.8,3.2-11.6,4.9l-3.6,1.6c-5.7,2.4-12.1,5.2-18.8,7c-0.8,0.2-1.6,0.4-2.5,0.6l-1.5,0.4l-0.1,2.7c-0.1,2-0.1,4-0.2,6
		c0,0.7,0.4,1.2,1.1,1.6c0.3,0.1,0.6,0.3,0.9,0.4c0.3,0.1,0.5,0.3,0.8,0.4c1.2,0.6,2.1,1.7,2.6,3.2c0.2,0.5,0.1,1.2-0.2,2
		c-1.2,3.7-4.5,4.7-7.2,5.1c-0.2,0-0.5,0.1-0.8,0.1l-1.1,0.2l0.4,0.4c0.8,0.9,1.1,1.7,1.1,2.8c0,1.1-0.3,1.9-0.8,2.6l-0.4,0.6
		c-0.4,0.5-0.8,1.1-1.2,1.5C213.9,355.4,211.8,356.3,209.4,356.3L209.4,356.3z M206,350.3c0.1,0,0.2,0,0.3,0.1
		c0.6,0.2,0.9,0.4,1.1,0.8c0.4,0.8,1.1,1.3,2,1.3c0.2,0,0.3,0,0.5,0c0.5-0.1,1.2-0.2,1.7-0.4c1.2-0.5,1.8-1.5,1.7-2.4
		c-0.2-2.7-1.6-4.2-4-4.5c-0.3,0-0.6,0-0.8,0l-0.7,0c-0.2,0-0.4,0-0.7,0c-0.1,0-0.2,0-0.2,0c-1,0-1.6,0.7-2.1,1.3
		c-0.1,0.2-0.2,0.4-0.4,0.6c-0.1,0.2-0.2,0.3-0.3,0.5c-0.5,0.7-0.5,1.8-0.2,2.7c0.3,0.9,1,1.6,1.8,1.9l0.6,0.2c0,0-0.3-0.9-0.3-1
		c-0.1-0.2-0.1-0.3-0.1-0.4C205.9,350.4,205.9,350.3,206,350.3L206,350.3z M208.3,335c-0.8,0-1.6,0-2.4,0.1c-2.2,0.1-3.2,1-3.4,3.1
		c-0.1,1,0.5,2.7,1.3,3l0.3,0.1c0.8,0.3,1.5,0.6,2.3,0.7c1.2,0.2,2.5,0.2,3.7,0.3c0.5,0,1.1,0.1,1.6,0.1l1.6-0.1
		c1.2-0.1,2.5-0.2,3.7-0.3c0.9-0.1,1.8-0.6,2.5-1.4c0.6-0.7,0.8-1.6,0.6-2.4c-0.2-0.8-0.7-1.5-1.5-1.9c-0.6-0.3-1.3-0.5-1.9-0.6
		c-0.6-0.1-1.2-0.2-1.8-0.2c-0.5,0-0.9-0.1-1.4-0.1C211.7,335.2,210,335,208.3,335L208.3,335z M197.9,335.7c-0.3,0-0.7,0.1-1.4,0.3
		c-0.4,0.1-0.7,0.4-1,0.6l-0.2,0.1c-0.2,0.1-0.2,0.3-0.2,0.5l0,0.1l-0.2,0.8c-0.3,1-0.2,2,0.4,2.7c0.6,0.8,1.5,1.2,2.7,1.2l0.6,0
		l-0.4-0.5c-1.5-2.2-1.2-3,0.7-5.1l0.3-0.3l-0.4-0.2C198.4,335.8,198.2,335.7,197.9,335.7L197.9,335.7z M217.2,325
		c0,0-0.1,0.1-0.1,0.1c-0.1,0.2-0.3,0.3-0.3,0.6c0,1.9-0.1,3.8-0.1,5.9c0,0.2,0.1,0.4,0.2,0.5c0.1,0.1,0.1,0.2,0.2,0.3l0.3,0.5
		l0.3-0.6c0.1-0.1,0.1-0.3,0.2-0.4c0.1-0.2,0.2-0.4,0.2-0.6c0.1-2.4,0.1-4.1,0.1-5.8c0-0.3-0.2-0.5-0.4-0.6
		c-0.1-0.1-0.1-0.1-0.2-0.1l-0.3-0.3L217.2,325z M211.3,325.6c-0.8,0-0.8,0.6-0.8,1c0,1.5,0,3,0,4.4c0,0.3,0.1,0.5,0.1,0.9
		c0,0.2,0.1,0.4,0.1,0.6l0.1,0.5l0.4-0.3c0.1-0.1,0.3-0.2,0.4-0.3c0.2-0.1,0.4-0.3,0.4-0.5c0.2-1.9,0.4-3.9,0.2-5.9l0-0.3l-0.3,0
		C211.7,325.6,211.5,325.6,211.3,325.6L211.3,325.6z M204.6,325.9l0,0.3c0,0.4,0,0.9-0.1,1.3c-0.1,1.5-0.2,3,0.2,4.7l0.1,0.6
		l0.4-0.4c0.1-0.1,0.2-0.2,0.3-0.3c0.2-0.2,0.4-0.3,0.4-0.6c0-1.4,0-2.9,0-4.3l0-1.4L204.6,325.9z M208.4,325.6
		c-0.2,0-0.4,0-0.6,0.1l-0.2,0.1l0,6.5l0.8,0.3l0.1-0.3c0-0.1,0.1-0.2,0.1-0.2c0.1-0.2,0.3-0.5,0.3-0.8c0.1-1.5,0.1-3,0.2-4.5l0-0.3
		c0-0.3-0.1-0.6-0.2-0.7C208.8,325.7,208.6,325.6,208.4,325.6L208.4,325.6z M213.6,326.8c-0.1,1.5-0.1,3-0.2,4.4
		c0,0.3,0.1,0.6,0.3,0.8c0.2,0.2,0.5,0.3,1,0.3l0.4,0l0-0.3c0.3-2.3,0.4-4.5,0.3-6.7l0-0.3l-1.7-0.3L213.6,326.8z M199.6,324.9
		c-0.2,0-0.4,0.1-0.6,0.2c-0.2,0.2-0.3,0.5-0.3,0.9l0,1.6c0,1,0,2,0,3.1c0,0.3,0.1,0.5,0.2,0.7c0,0.1,0.1,0.2,0.1,0.3l0.1,0.3
		l0.8-0.1l0.1-0.2c0.5-1.5,0.5-3,0.4-4.4c0-0.7,0-1.3,0-2l0-0.3l-0.2-0.1C199.9,324.9,199.8,324.9,199.6,324.9L199.6,324.9z
		 M132.4,219.8c-0.7,0-1.2,0.2-1.7,0.7l-0.2,0.2c-0.4,0.4-0.7,0.8-1.1,1c-1.1,0.6-1.8,1.5-2.2,2.9c-0.1,0.2-0.1,0.4-0.2,0.6
		c-0.1,0.2-0.2,0.4-0.2,0.6c-0.1,0.2-0.1,0.4-0.2,0.6c-0.2,0.6-0.4,1.2-0.4,1.9c0,0.3,0,0.6-0.1,0.9c-0.1,1.1-0.2,2.3,0,3.4
		c0.1,0.5,0.1,0.9,0.2,1.4l0.2,2.1c0.2,1.9,0.4,3.8,0.5,5.6l0.1,1.3c0.2,2.2,0.4,4.5,0.5,6.8c0,0.8,0.3,1.4,1,2.1l0.4,0.4
		c0.8,0.8,1.7,1.7,2.4,2.6c1.3,1.7,1.9,3.2,2,4.7c0.1,2.6,0.2,5.2,0.2,7.9l0.1,3c0,0.7,0,1.3,0,2c0,1.3,0,2.7,0.1,4
		c0.1,2.5,0.4,5,0.6,7.4c0,0.4,0.1,0.7,0.1,1c0.2,2,0.2,2.1,2.1,3.6l0.3,0.3c4,3.3,8.1,6.4,12.4,9.2c3.4,2.3,7.1,4.7,11,6.9
		c1.1,0.6,2.1,1.2,3.2,1.8c1.2,0.7,2.6,1.5,3.9,2.2c4.7,2.4,8.6,4.2,12.3,5.5c2.5,0.9,5,1.6,7.5,2.3c1.1,0.3,2.2,0.7,3.3,1
		c5.7,1.7,11.9,2,16.8,2.1c0.3,0,0.6,0,0.9,0c1.2,0,2.3-0.1,3.4-0.1c0.9-0.1,1.7-0.1,2.6-0.1c2.7-0.1,5.3-0.6,7.5-1.2
		c4.6-1.1,9.5-2.7,15.4-5.1c2.6-1.1,5.2-2.2,7.7-3.3l0.2-0.1c2.9-1.3,6-2.6,9-3.8c5.6-2.2,11.5-4.5,17.5-6.3
		c6.1-1.8,12.4-3.2,18.7-4.2c3.4-0.5,6.8-0.9,10.2-1.3c1.3-0.1,2.6-0.3,3.9-0.4l1-0.1c4-0.5,8.1-1,12-2.1c2.7-0.8,5.6-1.7,8.2-3.2
		c0.4-0.2,0.8-0.5,1.2-0.8l0.4-0.3c0.2-0.1,0.3-0.2,0.5-0.4c0.3-0.3,0.6-0.5,0.9-0.6c0.6-0.3,0.8-0.8,0.9-1.3c0-0.1,0.1-0.3,0.1-0.4
		c0.2-0.4,0.4-0.9,0.4-1.4c-0.1-1.8-0.2-3.5-0.3-5.3c-0.1-1.7-0.2-3.4-0.2-5.1l0-0.8c-0.2-4-0.3-8.1-0.4-12.2c-0.1-4-0.1-8-0.2-12
		l-0.1-5.8l-0.2-0.1c-0.1,0-0.3-0.1-0.4-0.1c-0.6,0-1,0.3-1.3,0.6l-0.1,0.1c-1.8,1.5-3.8,2.7-6.1,3.8c-5.1,2.4-9.5,4-13.9,4.9
		l-1.9,0.4c-3.3,0.7-6.6,1.4-10,1.7c-3,0.2-6,0.7-8.9,1l-3.1,0.4c-2.5,0.3-5.2,0.7-7.7,1.1c-1.7,0.3-3.4,0.7-5.1,1.1
		c-0.7,0.2-1.3,0.3-2,0.4c-3.5,0.8-7.6,1.8-11.6,3.2c-3.7,1.3-8.1,3-12.3,5l-2.3,1.1c-2.4,1.2-4.9,2.4-7.5,3.5
		c-6.4,2.8-12.2,4.6-17.8,5.4c-2,0.3-4,0.4-6.2,0.4h-0.1c-2.2,0-4.5-0.1-6.9-0.4c-2.2-0.3-4.3-0.7-6.4-1.2c-0.8-0.2-1.6-0.3-2.4-0.5
		c-4.4-0.9-8.9-2.5-14.2-5.2c-3.3-1.7-6.8-3.6-10.8-6.2c-0.7-0.4-1.3-0.8-2-1.2c-1.1-0.6-2.2-1.3-3.2-2c-2.5-1.8-5.1-3.7-7.5-5.6
		l-1-0.7c-2.5-1.9-5-3.8-7.5-5.8c-2-1.6-4-3.3-6-4.9l-2.9-2.4c-2.8-2.3-5.7-4.7-7.7-7.9c-0.9-1.3-1.8-3-2-4.8
		c-0.2-1.3-0.3-2.5,0.5-3.5c0.3-0.5,0.7-0.9,1.1-1.3l2.2-2.7L132.4,219.8z M98.1,290c-1.9,0-3.6,0.1-5.1,0.3l-0.3,0l0.1,0.6l0.1,0.2
		c2.3,1.7,4.6,3.7,6.8,6.3c3.4,3.8,6.7,6.7,10.2,8.8c1.7,1,3,1.7,4.3,2c1.6,0.4,3.3,0.6,5,0.6c0.4,0,0.7,0,1,0
		c3.8-0.2,6.7-1.1,9.3-3c1.8-1.4,2.7-3.2,2.6-5.6c-0.1-1.8-0.3-3.7-0.5-5.5l0-0.2c-0.1-0.8-0.1-1.5-0.2-2.3
		c-0.1-1.2-0.2-2.4-0.3-3.6c-0.3-2.8-0.5-5.7-0.7-8.6c-0.1-1.9-0.2-3.9-0.3-5.7l0-0.1c0-1-0.1-2-0.1-3c0-0.4-0.1-0.9-0.1-1.4
		c0-0.2-0.1-1.4-0.1-1.4l-0.5,0.5c-0.1,0.1-0.3,0.3-0.4,0.4c-0.2,0.2-0.4,0.3-0.5,0.5c-1.9,1.4-3.7,2.2-5.7,2.5
		c-1.5,0.3-2.8,0.4-4.1,0.4c-2.5,0-4.6-0.4-6.6-1.3c-1.7-0.7-3.3-1.6-4.9-2.4l-0.1,0c-0.9-0.5-1.8-1-2.7-1.4c-1.9-1-3.8-1.9-5.7-2.7
		c-0.7-0.3-1.4-0.5-2.2-0.6c-0.4-0.1-0.8-0.2-1.1-0.3l-0.6-0.2l0.2,0.6c0.1,0.2,0.1,0.4,0.1,0.5c0.1,0.3,0.1,0.6,0.3,0.8
		c1.6,2,2.8,4.3,3.9,6.7c0.8,1.6,1.5,3.2,2.2,4.8l0.1,0.3c0.9,2,1.9,4.1,2.9,6.1c1.2,2.5,2.4,4.8,4.1,6.8c-1.6,0-3.3-0.1-4.9-0.1
		c-1.7-0.1-3.5-0.2-5.2-0.2H98.1z M82,230.7c-0.2,0-0.3,0.1-0.5,0.2c-0.4,0.3-0.5,1-0.5,1.1c0,0.6,0,1.1,0,1.7c0,0.7,0,1.4-0.1,2.1
		c-0.2,3.4-0.4,6.1-0.6,8.5c-0.1,1.4-0.3,2.7-0.4,4.1c-0.1,1.3-0.3,2.4-0.4,3.6c-0.1,0.5-0.1,1.1-0.2,1.6c-0.2,2.1-0.5,4.2-0.2,6.4
		c0.2,2.5,1.2,4.7,2.9,6.8c1.7,2.1,4.1,3.9,7.4,5.6c0.6,0.3,1.2,0.6,1.9,0.8c0.3,0.1,1.1,0.4,1.1,0.4l0.5-0.4l0-0.2
		c-0.1-0.3-0.1-0.6-0.2-0.8c-0.1-0.6-0.3-1.3-0.5-1.9c-0.5-1.2-1-2.5-1.8-4.1c-1.5-3.1-3.1-5.3-5-7c-0.3-0.3-0.6-0.6-0.9-0.8
		l-0.1-0.1l1.4,0c1.6,0,3.3,0,5.1,0.1c3.1,0.2,6.2,1.1,8.8,1.8c2.8,0.8,5.5,2.1,8.3,3.8c2.9,1.8,5.7,2.8,8.6,3.3
		c0.9,0.1,1.7,0.2,2.4,0.2c1.3,0,2.4-0.2,3.4-0.6c1.3-0.5,2.5-1.2,3.8-2.2c1.7-1.4,2.7-4.4,1.5-6.7c-0.6-1.1-1.5-2.4-2.9-3.3
		l-0.8-0.5c-1.1-0.8-2.3-1.5-3.6-2.2l-1.3-0.7c-2.7-1.5-5.4-3.1-8.2-4.4c-2-1-4.1-1.8-6.1-2.7c-1.4-0.6-2.7-1.1-4-1.7
		c-4.2-1.9-7.5-3.6-10.4-5.3l-0.8-0.5c-1.5-0.9-3-1.8-4.3-2.9c-0.5-0.4-0.9-0.9-1.4-1.4c-0.3-0.3-0.6-0.6-0.9-0.9l-0.1-0.1
		C82.6,231,82.4,230.7,82,230.7z M203.2,259c-0.6,0-0.9,0.3-1,1c0,0.3,0,0.7,0,1l0,1.1c0.1,1.7,0.1,3.4,0.2,5.1
		c0,0.6,0.1,1.3,0.1,1.9l0.1,1.6l0.5-0.6c1-1.2,1.1-8.5,0.6-10.9l-0.1-0.2l-0.2,0C203.4,259,203.3,259,203.2,259L203.2,259z
		 M206.2,257.8c-0.8,0.3-1.1,0.3-1.1,1.1c0.1,3.5,0.1,7.1,0.2,10.6c0,0.2,0.1,0.3,0.2,0.4c0,0,0,0.1,0.1,0.1l0.1,0.2l0.8-0.1l0-0.3
		c0.4-3,0.3-6.1,0.2-9c0-1,0-1.9,0-2.9l0-0.4L206.2,257.8z M208.8,248.5c0,0.1-0.1,0.1-0.1,0.2c-0.1,0.2-0.2,0.4-0.2,0.6
		c0,0.3,0,0.6,0,0.9c0,0.3,0,0.6,0,0.9c0,1.1-0.1,2.1-0.1,3.2l0,0.3c-0.1,1.7-0.1,3.4-0.2,5c-0.1,2.1-0.1,4.2-0.1,6.2l0,0.4
		c0,0.8,0.1,1.6,0.1,2.4l0,0.2c0,0.4,0.1,1,0.7,1.1l0.3,0.1l0.2-0.3c0-0.1,0.1-0.2,0.1-0.3c0-0.5,0.1-1,0.2-1.6l0-0.1
		c0.1-1.3,0.3-2.6,0.3-4c0-3.8,0-7.8,0-11.3l0-2.5c0-0.3-0.1-0.6-0.1-0.9c0-0.1-0.1-0.3-0.1-0.4l0-0.2l-0.7-0.1L208.8,248.5z
		 M199.9,261.5c-0.3,0-0.5,0.1-0.6,0.2c-0.2,0.2-0.3,0.5-0.3,0.8c0,0.8,0,1.6,0,2.4l0,0.1c0,0.9,0,1.8,0,2.7c0,0.3,0.1,0.6,0.1,0.9
		c0,0.1,0.1,0.6,0.1,0.6l0.9,0.1l0.1-0.3c0-0.1,0.1-0.2,0.1-0.3c0.1-0.2,0.2-0.5,0.2-0.7c0.1-1.8,0.2-3.6,0.3-5.4
		c0-0.4-0.1-0.7-0.3-0.9C200.4,261.6,200.2,261.5,199.9,261.5L199.9,261.5z M187,267.2c1.2,0.4,2.7,0.9,4,1.4
		c0.4,0.2,0.8,0.2,1.2,0.2c0.4,0,0.9-0.1,1.3-0.4l0.2-0.1l0-0.4c0-0.2,0-0.4,0-0.6c0-0.9-0.1-1.8-0.1-2.6c-0.1-1.9-0.2-3.9-0.2-5.8
		c0-1.2-0.5-1.9-1.5-2.3c-3.8-1.7-7.2-4.2-10.2-7.3c-0.3-0.3-0.7-0.8-0.7-1.1c0-0.6-0.3-1.2-0.5-1.7c-0.1-0.3-0.2-0.6-0.3-0.9
		c-0.5-1.8-0.4-3.8-0.3-5.6c0-0.3,0-0.7,0.1-1c0-0.5,0.1-1-0.5-1.5c-0.8-0.7-1.3-1.7-1.6-3.1c-0.5-2.4-0.8-4.4-0.9-6.5
		c0-0.8-0.4-1.3-1.1-1.5c-2-0.7-3.9-1.4-5.7-2.1c-1.5-0.6-2.9-1.2-4.4-1.8l-0.1,0c-2.2-0.9-4.5-1.8-6.7-2.7
		c-3.2-1.2-6.3-2.5-9.4-3.8l-1-0.4c-0.6-0.3-1.2-0.5-1.8-0.8c-0.2-0.1-0.3-0.1-0.5-0.1c-0.6,0-0.9,0.4-1,1c-0.1,0.9-0.1,1.7-0.2,2.6
		c-0.1,1-0.2,2-0.3,3c-0.2,2.2-0.4,4.3-0.5,6.4c-0.2,2.2-0.2,4.4-0.3,6.6l0,1.2c0,0.7-0.1,1.4,0.1,2c0.4,1.4,1.2,2.5,2.3,3.4
		l2.3,1.8c4.9,3.9,10,7.9,15.5,11.4c1.4,0.9,2.7,1.8,4,2.6l0.1,0.1c1.2,0.8,2.5,1.7,3.8,2.5c1.5,0.9,3,1.8,4.5,2.6
		c0.5,0.3,1,0.6,1.5,0.8c2,1.1,4,2.2,6,3.3c0.1,0,0.2,0.1,0.3,0.2c0.2,0.2,0.5,0.5,0.9,0.5c0.1,0,0.2,0,0.4-0.1L187,267.2z
		 M212.3,237l0,0.1c0,0.3-0.1,0.5-0.1,0.8c-0.1,0.5-0.2,1-0.2,1.4l-0.1,2.2c-0.1,3-0.2,6.4-0.3,9.7c0,3.7,0,7.5,0,10.9l0,3.1
		c0,0.5,0,1.1,0.1,1.6c0,0.3,0.1,1.1,0.1,1.1l0.8,0l0.1-0.2c0.7-2.7,0.8-27,0.2-30.5l0-0.1L212.3,237z M210.8,178.8L210.8,178.8
		c-1.6,0.8-2.3,2-2.2,3.7c0,0.2,0,0.5-0.1,0.7c0,0.2-0.1,0.5-0.1,0.7l0,0.4c0,0.5,0,1.1,0.1,1.6c0.4,2.2,1.1,4.3,2.1,6.6
		c1.8,3.9,4.2,7.1,7.3,9.9c0.8,0.7,1.2,1.5,1.6,2.4c0.2,0.4,0.3,0.7,0.5,1c0,0.1,0,0.2,0,0.3l0,0.1c0.1,0.9,0.1,1.8,0.2,2.6
		c0.1,1.9,0.2,3.9,0.4,5.9c0.2,1.9,0.5,3.9,0.9,5.6c0.2,0.8,0.4,1.5,0.6,2.2l0,0.1c0.2,0.6,0.4,1.2,0.5,1.9c0.1,0.5,0.1,1.1,0,1.8
		c-0.1,0.5-0.2,1-0.3,1.5c-0.1,0.6-0.2,1.1-0.3,1.6l-0.3,2.1c-0.4,2.8-0.8,5.6-1.1,8.5c-0.4,3.6-0.7,7.1-0.8,10.4
		c-0.1,3.1-0.2,6-0.3,9.2l0,0.8c0,1.1,0,2.2-0.1,3.3l0,0.2l0.2,0.1c0.2,0.1,0.3,0.1,0.5,0.2c0.4,0.2,0.8,0.4,1.2,0.4l0.1,0l0.7-0.1
		c1.4-0.1,2.8-0.2,4.2-0.9c2.6-1.3,4.9-3.1,7-5.4c1.8-2,3.1-4.5,3.9-7.9c0.4-1.5,0.8-3.1,1.1-4.7l0.1-0.6c0.5-2.3,0.9-4.7,1.2-7.1
		c0.2-1.4,0.1-2.9,0-4.4l0-0.2c-0.2-3.3-0.9-6.6-2.1-9.9c-2-5.4-3.4-9.9-4.6-14.2c-0.3-1.1-0.7-2.3-1-3.4c-0.6-2-1.2-4.1-1.7-6.2
		c-0.6-3-2.2-5.6-4.6-7.5c-0.2-0.1-0.6-0.5-0.6-0.5c-0.5-0.4-1-0.8-1.5-1.2c-3.1-3.1-6.7-6.6-10.1-10.1c-0.8-0.8-1.5-1.5-2.6-1.6
		L210.8,178.8L210.8,178.8z M250.4,225c-0.7,0.2-1.4,0.4-2.1,0.6c-1.7,0.5-3.5,1-5.3,1.8l-0.2,0.1l0.3,1.3c0.1,0.6,0.2,1.2,0.4,1.8
		c0.3,1.4,0.6,3.1,0.3,4.8c-0.1,0.7-0.2,1.4-0.3,2.1c-0.1,0.6-0.2,1.1-0.2,1.7c-0.7,4.3-1.4,8.6-2.1,12.9c0,0.3-0.1,0.5-0.2,0.8
		c-0.1,0.4-0.2,0.7-0.3,1.1c-0.2,2.5-0.9,4.9-1.5,7.1l-0.1,0.2l0.2,0.1c0.2,0.2,0.5,0.2,0.7,0.2c0.3,0,0.6-0.1,0.9-0.3
		c0.2-0.1,0.5-0.2,0.7-0.3l0.2-0.1c0.7-0.3,1.4-0.7,2.1-0.9c3.2-1.2,6.2-2.3,9.2-3.3c1-0.4,2.1-0.7,3.1-1c0.8-0.2,1.6-0.5,2.3-0.7
		c0.1,0,0.1,0,0.2,0c0.4-0.1,1.1-0.2,1.1-1.1l0-0.2l-0.6-0.5c-0.3-0.2-0.5-0.4-0.8-0.6c-2.4-1.8-4.1-3.6-5.3-5.7
		c-0.6-1-0.8-1.9-0.8-2.9c0.2-5.8-0.3-11.8-1.4-18.8l-0.1-0.4L250.4,225z M183.4,243.4c0,0.3,0,0.6,0,0.8c0.1,0.3,0.1,0.6,0.1,0.9
		c0.1,0.8,0.1,1.5,0.7,2.2c1.1,1.3,2.3,2.7,3.9,3.5c1.4,0.7,2.8,1.3,4.2,1.8c2.3,0.8,4.4,1.5,6.4,2c0.7,0.2,1.5,0.3,2.1,0.4
		c0.6,0.1,1.1,0.1,1.5,0.2c0.1,0,0.3,0,0.4,0c0.8,0,1.3-0.5,1.7-0.9c0.5-0.6,0.9-1.3,1-1.9c0.2-1-0.2-2.4-1-3.6
		c-0.7-1-1.5-1.6-2.4-1.8c-0.8-0.2-1.7-0.4-2.5-0.6l-0.5-0.1c-0.6-0.2-1.3-0.3-2-0.5c-1.6-0.4-3.2-0.8-4.8-1.3
		c-2.5-0.8-4.9-1.9-7.2-3.4c-0.3-0.2-0.6-0.3-0.8-0.3h0c-0.3,0-0.8,0.2-0.9,1.2c0,0.2,0,0.5,0,0.7L183.4,243.4L183.4,243.4z
		 M216.7,206.6c-1.1,0-1.1,0.8-1.2,1.1l-0.1,2.3c-0.1,1.7-0.1,3.3-0.1,5c0,2.4-0.1,4.9-0.1,7.3l0,0.7c0,2.2-0.1,4.4-0.1,6.5
		c0,1.4-0.1,2.8-0.1,4.2c0,2-0.1,4-0.1,6c0,2.3,0,4.6,0,6.6c0,2.2,0.1,4.4,0.2,6.5c0,0.3,0.1,0.6,0.1,1l0.1,0.7l0.8-0.1l0-0.3
		c0-0.3,0.1-0.7,0.1-1c0.1-0.8,0.2-1.5,0.2-2.3c0-0.9,0-1.7,0-2.6c0-0.9,0-1.8,0-2.6s0.1-1.7,0.1-2.5c0.1-1.2,0.2-2.4,0.2-3.7
		c0-1.7,0-3.5-0.1-5.2l0-0.1c0-2-0.1-4-0.1-6c0-3.3,0.1-6.7,0.2-9.7l0-0.4c0-1.9,0.1-3.7,0.1-5.6c0-1.3,0-2.6,0-3.9l0-2.2
		L216.7,206.6z M253.4,204.8l0.1,2.5c0.1,1.7,0.2,3.4,0.3,5.1c0.1,2.2,0.3,4.3,0.5,6.5l0.3,3.6l0.1,2.1c0.1,0.9,0.1,1.9,0.2,2.8
		c0.3,4,0.6,8,1,11.9c0,0.3,0.1,1,0.1,1c0.1,0.8,0.1,1.7,0.3,2.5c0.4,2.4,1.8,4.3,4.4,6.2c1.6,1.2,3.5,2.1,6.2,2.8l0.3,0.1
		c0.5,0.1,0.9,0.3,1.4,0.3c3.1-0.1,5.8-0.4,8.2-0.8c2.8-0.5,5.8-0.8,8.6-1.2c1.3-0.2,2.5-0.3,3.8-0.5c0.9-0.1,1.7-0.2,2.6-0.3l0.3,0
		c2.1-0.2,4.2-0.5,6.2-0.8c4.7-0.7,9.3-1.8,13.7-3.2c3.3-1,6.6-2.6,9.9-4.6c1.5-0.9,2.6-2,3.4-3.2c0.8-1.2,1.6-2.4,2.1-3.7
		c0.8-2.5,0.3-5.1-1.4-7.7c-0.7-1.1-1.5-2-2.5-2.6c-1.4-0.9-2.9-1.5-4.3-2.1l-0.5-0.2c-1.6-0.7-3.4-1-5-1.3l-1.1-0.2
		c-1.7-0.3-3.5-0.5-5.1-0.7l-0.9-0.1c-3.5-0.4-7-0.8-10.6-1.2c-0.7-0.1-1.4-0.1-2.1-0.2l-0.1,0c-1.2-0.1-2.5-0.2-3.8-0.4
		c-1.1-0.2-2.3-0.4-3.3-0.6c-0.8-0.1-1.5-0.3-2.3-0.4c-5.5-0.9-11-2.3-16.8-4.4c-2.6-0.9-5-2.1-7.4-3.3l-1.3-0.6
		c-1.3-0.6-2.3-1.4-3.1-2.2c-0.3-0.3-0.7-0.6-1-0.9c-0.1-0.1-0.3-0.2-0.4-0.4l-0.2-0.2L253.4,204.8z M104.6,234.2
		c-0.7,0.2-1.4,0.3-2.1,0.6c-0.3,0.1-0.6,0.2-0.9,0.2c-0.8,0.2-1.6,0.4-2.3,1l-0.3,0.3l0.5,0.4c0.1,0.1,0.2,0.2,0.3,0.2
		c2.7,1.7,5.6,3.1,8.4,4.3c0.9,0.4,1.9,0.8,2.8,1.3c2.9,1.4,5.8,2.7,8.7,4.1l1.6,0.7c0.2,0.1,0.3,0.1,0.6,0.2l0.9,0.4l0-0.5
		c0-0.5,0-0.9,0-1.3c0-1,0-1.8,0-2.7c-0.1-1.7-0.3-3.4-0.4-5.2c-0.1-1.7-0.3-3.2-0.4-4.8c0-0.6-0.1-1.3-0.2-1.9
		c-0.2-2.4-0.4-4.8,0.1-7.2c0.2-0.9,0.6-1.6,1.1-2.2c0.2-0.3,0.5-0.6,0.8-0.9c0.3-0.3,0.5-0.6,0.7-0.8c1.7-2.1,4-3.7,6.8-4.7
		c0.4-0.1,0.9-0.3,1.3-0.4c0.9-0.3,1.7-0.6,2.6-0.9l0.4-0.2c1-0.4,2-0.8,2.7-1.9l0.1-0.2l-0.1-0.2l-0.1-0.1c0-0.1-0.1-0.2-0.2-0.3
		c-0.2-0.1-0.4-0.2-0.6-0.3l-1.2-0.4c-1.6-0.5-3.2-1.1-4.8-1.6c-0.2-0.1-0.3-0.1-0.6-0.1c-0.3,0-0.6,0-0.9,0.1
		c-0.5,0.1-1,0.3-1.6,0.5c-0.6,0.2-1.1,0.4-1.6,0.5c-4.8,1.3-9.1,2-13.2,2c-0.3,0-1,0-1,0c-2.5,0-5-0.1-7.6-0.4
		c-1.2-0.1-2.5-0.2-3.7-0.2c-0.9,0-1.9,0-2.8-0.1c-0.5,0-0.9,0-1.3,0c-3.4,0-6.7,0.9-9.6,1.8c-0.2,0.1-0.5,0.2-0.7,0.3l-0.4,0.2
		l0.1,0.6l0.4,0c1.3,0,2.5-0.2,3.7-0.3c1.2-0.1,2.4-0.3,3.6-0.3c0,0,0,0,0,0c0.3,0,0.5,0,0.8,0L96,214c1.7,0.1,3.5,0.2,5.2,0.4
		c-0.6,0.1-1.2,0.2-1.8,0.3c-0.6,0.1-1.3,0.1-2,0.2c-1.8,0.2-3.6,0.4-5.3,0.8c-0.9,0.2-1.8,0.4-2.6,0.6c-0.9,0.2-1.9,0.4-2.8,0.7
		c-0.3,0.1-1,0.3-1.4,1l-0.2,0.4l0.8,0.1c0.2,0,0.3,0,0.4,0l1.6-0.1c1.2,0,2.6-0.1,4-0.2c1.8-0.2,3.6-0.2,5.5-0.2h0.1
		c1.2,0,2.4,0,3.7,0.1c-1.7,0.2-3.5,0.5-5.2,0.7l-1.4,0.2c-1.7,0.2-3.4,0.5-5.1,0.8c-1.1,0.2-2.2,0.5-3.2,0.8
		c-0.4,0.1-1,0.3-1.1,1.2l0,0.3l0.7,0.1c0.2,0,0.4,0,0.6,0l1.4-0.1c1.4-0.1,3-0.1,4.5-0.2c1.3-0.1,2.7-0.2,4.2-0.2c0,0,0,0,0,0
		c1.3,0,2.4,0.1,3.4,0.2c0.9,0.1,1.9,0.2,2.8,0.2c0.4,0,0.8,0,1.2,0c0,0-0.6,0.1-0.9,0.1c-0.5,0-1,0.1-1.4,0.2
		c-0.8,0.1-1.6,0.2-2.4,0.3l-0.5,0.1c-1.6,0.2-3.1,0.4-4.7,0.6c-2.2,0.3-4.2,0.7-6,1.2c-0.4,0.1-1,0.3-1.4,1l-0.2,0.4
		c0,0,0.8,0.1,0.9,0.1c0.2,0,0.5,0.1,0.7,0.1c1.1,0,2.1-0.1,3.2-0.2l1-0.1c0.5,0,1-0.1,1.5-0.1c0.9-0.1,1.7-0.1,2.5-0.1
		c0.2,0,0.5,0,0.7,0c1.8,0.1,3.6,0.3,5.4,0.5c0,0,0.1,0,0.1,0c0,0,0,0,0,0c-2.1,0.3-4.2,0.6-6.1,1c-1.8,0.3-3.6,0.7-5.2,1.1
		l-0.3,0.1c-0.4,0.1-1,0.2-1.3,1l-0.1,0.4l0.4,0c0.1,0,0.3,0,0.4,0.1c0.3,0,0.5,0.1,0.8,0.1c1.3,0,2.7-0.1,4.1-0.2
		c0.5,0,1,0,1.5-0.1c2.2,0,4.3,0.3,6.4,0.5l-0.4,0.1c-1.1,0.3-2.2,0.6-3.2,0.8l-0.7,0.1c-1.3,0.3-2.6,0.5-4,1.1l-0.4,0.2l0.2,0.3
		c0.5,0.7,1.1,0.7,1.6,0.7c0.5,0,1.8,0,1.8,0c0.9,0,1.9,0,2.9,0.1c1.2,0.1,2.4,0.2,3.5,0.3L104.6,234.2z M182.2,224.4
		c-0.7,0-0.9,0.9-1,1.4c-0.4,1.9-0.3,3.7,0.2,5.6c0.5,1.9,1.3,3.2,2.3,4.2c1.4,1.3,2.7,2.3,4,3.1c2.3,1.4,5,2.5,8.3,3.4
		c2.6,0.7,5.4,1.3,9.1,1.9c0.3,0,0.5,0.1,0.8,0.1c1.2,0,2.1-0.5,2.6-1.6c0.5-0.9,0.6-1.7,0.7-2.5c0-2.9-1.6-5-4.3-5.8l-0.4-0.1
		c-1.8-0.5-3.6-1-5.5-1.3c-3.7-0.6-7-2-10.1-4.1c-1-0.7-2.1-1.4-3.1-2.1c0,0-1.7-1.2-2.5-1.7C182.8,224.6,182.5,224.4,182.2,224.4
		L182.2,224.4z M218.3,220.9c-0.2,3.5-0.3,7.1,0.2,10.9l0.1,1l0.5-0.9c0.1-0.1,0.1-0.2,0.1-0.3c0.1-0.1,0.1-0.2,0.2-0.4
		c0.3-2.1,0.2-4.2,0.1-6.2c-0.1-1.5-0.1-3.1,0-4.6c0-0.3,0-0.6-0.1-0.8c0-0.1,0-0.2,0-0.3c0-0.1-0.1-0.3-0.3-0.3c0,0-0.1,0-0.2,0
		l-0.5-0.1L218.3,220.9z M182.4,202.3c-1.3,1.1-2.1,2.2-2.6,3.5c-0.5,1.3-1,2.8-1.4,4.3c-0.4,1.8-0.2,3.4,0.5,4.7
		c0.5,0.9,1.2,1.9,2,2.8c1.6,1.8,3.2,3.6,5.1,5.1c2.6,2.1,5.5,3.8,8.7,5.2c1.4,0.6,2.9,1,4.3,1.5c0,0,1,0.3,1.4,0.4
		c0.8,0.3,1.6,0.5,2.4,0.8l0.2,0.1c1.1,0.3,2.2,0.7,3.3,1c0.2,0.1,0.4,0.1,0.6,0.1c0.4,0,0.7-0.2,1-0.5c1.5-1.5,2.3-3.1,2.4-5
		c0.1-2.3-0.5-4-2.1-5.2c-1.2-0.9-2.3-1.6-3.3-2.1c-0.9-0.5-1.9-0.9-2.8-1.3c-0.9-0.4-1.8-0.8-2.6-1.2l-0.7-0.4
		c-1.6-0.8-3.1-1.5-4.5-2.5c-3.2-2.2-5.9-5.2-8.5-8c-0.7-0.7-1.3-1.5-2-2.2l-1.2-1.3L182.4,202.3z M212.7,216.5
		c-0.2,0-0.7,0.1-0.8,0.8c-0.2,1.6,0,3.2,0.5,5.1l0.3,1l0.3-1c0.6-1.6,0.7-3.4,0.4-5.6l0-0.2l-0.2-0.1
		C213,216.6,212.9,216.5,212.7,216.5L212.7,216.5z M248.1,220.9c-2.4,0-4.4,0.5-6.2,1.3l-1.1,0.5l1.2,0.1c0.5,0,1,0.1,1.5,0.1
		c2,0,3.5-0.5,4.8-1.4l0.8-0.6L248.1,220.9z M91.3,140.4c-0.3,1.1-0.5,2.2-0.4,3.3c0.2,2.7,0.1,5.1-0.1,7.4
		c-0.1,1.2-0.2,2.5-0.3,3.7c-0.1,1.7-0.3,3.5-0.5,5.1c-0.4,2.9-0.8,5.8-1.2,8.7c-0.5,3.4-1,6.9-1.4,10.3c0,0.3-0.1,0.7-0.1,1
		c-0.3,1.8-0.6,3.7,0.3,5.6c0.1,0.2,0.2,0.5,0.3,0.8c0.4,0.8,0.7,1.7,1.3,2.4c2,2.4,4.1,4.2,6.6,5.5c2.3,1.2,5.3,2.6,8.6,3.3
		c2.3,0.5,4.4,1,6.3,1.5c3.3,0.8,6.6,1.7,10,2.6c0.9,0.2,1.7,0.4,2.6,0.7c2.3,0.6,4.6,1.2,6.9,1.9c6.4,2,12.8,4.4,19.5,7.2
		c1,0.4,2,0.8,2.9,1.2c1,0.4,1.9,0.7,2.8,1.1c1.5,0.6,3.1,1.3,4.6,1.9l0.6,0.2c1.6,0.7,3.2,1.3,4.8,2c4.1,1.7,8,3,12.2,4l0.5,0.1
		l-0.1-0.5c0-0.2-0.1-0.4-0.1-0.6c-0.1-0.4-0.1-0.8-0.3-1.1c-0.3-0.7-0.7-1.5-1.1-2.2c-0.3-0.6-0.6-1.3-0.9-1.9
		c-0.9-1.9-1-3.6-0.5-5.2c1.3-3.7,2.7-7.7,5-11.2c0.3-0.5,0.4-0.9,0.1-1.4c-0.3-0.6-0.5-1.2-0.7-2c-0.4-1.4-0.6-2.4-0.2-3.7
		c0.7-2.2,1.7-4.4,3.1-6.8c0.7-1.2,1.8-1.7,3.5-2.1l0.2,0c0,0,0.1-0.4,0.1-0.5c0.1-0.3,0.2-0.6,0.2-0.8c0.1-0.5,0.1-1.1,0.1-1.6
		c0-1.5-0.1-1.7-1.6-2.2c-0.8-0.2-1.6-0.5-2.4-0.7c-1.5-0.4-2.9-0.8-4.3-1.3c-2.7-1-5.5-2-8.2-3.1l-1-0.4c-1.3-0.5-2.6-1-3.9-1.6
		c-1.8-0.7-3.6-1.4-5.4-2.1c-1-0.4-2-0.8-2.9-1.2c-2.1-0.8-4.2-1.7-6.3-2.3c-1.3-0.4-2.6-0.9-3.9-1.4l-0.1-0.1
		c-3.2-1.2-6.6-2.2-9.8-3.1c-1.9-0.5-3.8-1.1-5.6-1.7c-3.2-1-6.5-1.9-9.7-2.7c-1.3-0.3-2.5-0.6-3.7-1c-3.7-1-7.5-2.3-11.4-3.8
		c-4.4-1.7-8.1-3.6-11.1-5.9c-1.3-1-2.5-2.1-2.5-4.1c0-0.3-0.1-0.5-0.2-0.8c0-0.2-0.1-0.3-0.1-0.4l-0.3-1.1L91.3,140.4z M247,216.2
		c-2.1,0-4.7,0.6-5.6,1.2l-0.6,0.5l0.8,0.1c0.5,0.1,1.1,0.1,1.7,0.1c1.8,0,4-0.4,4.8-1.4l0.3-0.5l-0.6-0.1
		C247.6,216.2,247.3,216.2,247,216.2L247,216.2z M186.4,186.1c-0.6,0-1.2,0.2-1.7,0.6c-1.3,1.1-2.1,2.5-2.3,4.1
		c0,0.2-0.1,0.5-0.1,0.7c-0.2,1.2-0.4,2.4,0.7,3.6c0,0,0,0.1,0,0.2c0.2,0.3,0.4,0.7,0.5,1c0.4,0.8,0.8,1.6,1.3,2.3
		c1.4,1.9,2.9,4,5,6.6c2.7,3.5,6.2,6.2,10.3,8.1c0.3,0.1,0.9,0.4,0.9,0.4c0.7,0.3,1.3,0.6,2,0.9c0.9,0.5,1.8,1,2.6,1.4l0.3,0.2
		c0.5,0.3,1,0.4,1.5,0.4c1,0,1.7-0.5,2.2-1.5c0.5-0.9,0.9-2,0.9-4l-0.2-0.6c-0.1-0.6-0.3-1.5-0.7-2.3c-1.1-2.4-2.9-4.4-5.8-6.3
		l-0.3-0.2c-1.4-0.9-2.7-1.8-3.8-3.1c-1-1.1-2-2.2-2.9-3.2c-0.6-0.6-1.1-1.2-1.7-1.8c-0.3-0.4-0.7-0.7-1-1.1c-1-1.1-2.1-2.2-3-3.4
		c-1.3-1.6-2.6-2.5-4.4-2.9C186.8,186.1,186.6,186.1,186.4,186.1L186.4,186.1z M247,212.2c-2.1,0-6.4,0.9-7,1.7l-0.4,0.5l0.7,0
		c2.9,0,5.4-0.1,7.8-1.6l0.8-0.5l-0.9-0.1C247.6,212.3,247.3,212.2,247,212.2L247,212.2z M277.3,206.6c-0.1,0-0.1,0.1-0.2,0.1
		c-0.4,0.2-0.8,0.4-1.2,0.5c0,0-1.3,0.6-1.6,0.7c-0.9,0.4-1.4,0.9-1.4,1.3c0,0.3,0.3,0.6,0.8,0.8l0,0.1l0,0l1.8,0.4
		c1.3,0.3,2.7,0.6,4,1c0.9,0.2,1.8,0.4,2.7,0.4c1.6,0,3.2-0.3,5-1c0.8-0.3,1.5-0.6,2.3-0.9c1.4-0.6,2.9-1.1,4.3-1.6
		c4.1-1.3,8.2-2.5,12.1-3.7c1.3-0.4,2.6-0.7,3.9-1.1c1.5-0.4,3.1-0.8,4.6-1.3c3.2-1,5.9-2.2,8.3-3.8l0.3-0.2c0.5-0.3,0.9-0.6,1.3-1
		c2.4-2.9,4.1-5.8,5.2-8.8c0.4-1.2,0.4-2.3,0-3.4c-0.1-0.3-0.2-0.7-0.3-1.1c-0.3-1.6-0.6-3.2-0.9-4.7l-0.5-2.7
		c-0.4-2.3-0.9-4.6-1.3-6.9c-0.2-0.9-0.3-1.9-0.4-2.8c-0.2-1.1-0.3-2.2-0.5-3.4c-0.7-3.7-1-7.6-1.3-11.3l0-0.4
		c0-0.6-0.1-1.1-0.1-1.7c0-0.7,0-1.3-0.1-1.9c-0.1-1.2-0.7-2.2-1.2-3.2l-0.1-0.1c-0.8-1.4-1.9-2.6-3.3-3.6c-0.3-0.2-0.6-0.3-0.9-0.5
		c-0.1-0.1-0.3-0.1-0.4-0.2l-0.9-0.4l0.4,0.9c0.2,0.5,0.6,0.8,0.9,1.1l0.1,0.1c1,1,2.1,2.1,2.4,3.6c0.8,3.4,0.2,6.2-2,8.5
		c-3.9,4.1-8.1,7-13,8.9c-3.2,1.2-6.6,2.5-10.1,3.3c-3,0.7-6,1.3-8.9,1.8c-1.7,0.3-3.4,0.6-5,0.8l-0.2,0c-0.9,0.1-1.7,0.3-2.6,0.4
		c-0.5,0.1-1.1,0.2-1.6,0.3c-0.9,0.2-1.8,0.3-2.6,0.4c-2.4,0.3-4.9,0.9-7.5,2c-3.1,1.2-6.1,3.2-8.8,5.8c-1.8,1.7-3.2,3.8-4.2,6.1
		c-1.1,2.6-1.5,5.5-1.1,8.7l0.1,0.6c0.1,1.2,0.2,2.4,0.9,3.5c0.2,0.3,0.4,0.7,0.6,1c0.5,1,1.1,1.9,2,2.7c0.1,0.1,0.1,0.1,0.2,0.2
		l0.1,0.2c1.9,2.5,4.1,4.3,6.7,5.4c0.9,0.4,1.8,0.8,2.7,1.1c0.6,0.2,1.2,0.5,1.8,0.8c0.1,0,0.2,0.1,0.3,0.2c0.1,0.1,0.1,0.2,0.2,0.2
		l0.3,0.3l0.7-1c0.3-0.5,0.6-0.9,0.9-1.4c0.2-0.4,0.4-0.7,0.4-1.1l0.4-2.1c0.6-2.8,1.1-5.7,1.6-8.6c0.5-3,1-6,1.5-9l0.5-3.2
		c0.1-0.7,0.2-1.4,0.3-2.2c0.1-0.9,0.3-1.7,0.4-2.6c0.1-0.9,0.5-1.6,1.1-2.3l0.8,1.9c0.7,1.5,1.4,3,2.1,4.5c0.5,1.2,1.1,2.4,1.7,3.5
		l0.2,0.4c0.5,1,0.9,2,1.4,3c1.3,2.8,2.6,5.6,3.9,8.4c0.4,0.9,1,1.5,1.7,1.8c0.2,0.1,0.3,0.2,0.5,0.3c0.5,0.3,1,0.4,1.5,0.5
		c0.1,0,0.1,0,0.2,0c-3.3,1.2-6.1,2.5-8.8,3.9c0.1-0.4,0.3-0.8,0.4-1.2c0.2-0.4,0.3-0.8,0.4-1.1c0.2-0.6,0.3-1.1,0.1-1.5
		c-0.4-0.9-0.8-1.8-1.2-2.7l-0.6-1.3l-0.2,0c-0.1,0-0.1,0-0.2,0c-0.2,0-0.4,0-0.6,0.1c-1.7,0.9-3.5,1.8-5.2,2.7
		c-0.2,0.1-0.5,0.4-0.5,0.7L275,200c-0.2,1.3-0.5,2.5-0.7,3.8c-0.1,0.9,0.3,1.6,1.2,1.9c0.5,0.2,1,0.4,1.5,0.7L277.3,206.6z
		 M246.4,208.3c-1.9,0-6.8,0.9-8,1.6l-0.6,0.3l0.7,0.3c0.1,0,0.2,0.1,0.2,0.1c0.2,0.1,0.3,0.2,0.5,0.2l0.8,0c0.9,0,1.8,0,2.6-0.2
		c1.1-0.2,2.1-0.5,3.1-0.8l0.6-0.2c0.2-0.1,0.4-0.2,0.6-0.4c0.1-0.1,0.2-0.1,0.3-0.2l0.6-0.4l-0.7-0.2
		C246.9,208.4,246.7,208.3,246.4,208.3L246.4,208.3z M212.5,201.8c-0.3,0-0.6,0.2-0.8,0.4l-0.1,0.1c-0.2,0.1-0.2,0.3-0.2,0.5
		c-0.3,1.4,0,2.6,0.3,3.8c0.1,0.3,0.1,0.7,0.2,1l0,0.1l0.1,0.1l0.6,0.4l0.2-0.4c0.8-1.9,0.8-3.8,0.7-5.2
		C213.3,202.3,212.9,201.8,212.5,201.8L212.5,201.8z M246.4,203.9c-2.9,0.5-5.7,1-8.6,1.5c-0.3,0.1-0.5,0.2-0.7,0.4
		c-0.1,0.1-0.2,0.1-0.3,0.2l-0.2,0.1l0.3,0.6l0.2,0c0.2,0,0.4,0,0.5-0.1c0.3,0,0.5-0.1,0.8-0.1c0.1,0,0.2,0,0.3,0
		c0.4,0,0.8,0.1,1.2,0.1c1.2,0,2.4-0.2,3.6-0.4l0.4-0.1c1.3-0.2,2.4-0.8,3.3-1.4l0.5-0.3l-0.6-0.2c-0.1,0-0.2-0.1-0.2-0.1
		C246.8,204,246.7,203.9,246.4,203.9L246.4,203.9L246.4,203.9z M245.7,199.5c-0.6,0-1.2,0.1-1.7,0.2l-1.4,0.2
		c-1.4,0.2-2.8,0.4-4.2,0.7l-0.1,0c-0.4,0.1-1,0.1-1.3,0.9l-0.2,0.5l1.5,0c2.7,0,5.7-0.1,8.4-1.1l0.2-0.1l0.1-0.9l-0.3-0.1
		c-0.1,0-0.1,0-0.2-0.1C246.2,199.6,246,199.5,245.7,199.5L245.7,199.5L245.7,199.5z M207.9,200.1c0.5,0,1,0,1.4,0.1l0.4,0
		c0.1,0,0.2,0,0.2,0c0.4,0,0.7-0.2,0.8-0.6c0.2-0.6-0.3-1-0.5-1.1c-0.8-0.6-1.5-0.9-2.4-0.9c0,0-0.5,0-0.6,0l-0.6,0
		c-0.9,0-1.9,0-3,0.5l-0.6,0.3l0.9,0.6c1,0.6,1.9,1.2,3.1,1.2c0.1,0,0.2,0,0.3,0C207.5,200.1,207.7,200.1,207.9,200.1L207.9,200.1z
		 M245.2,195.4c-0.9,0-1.8,0.2-2.6,0.4c-0.3,0.1-0.7,0.1-1,0.2c-0.4,0.1-0.7,0.1-1.1,0.2c-1.3,0.2-2.6,0.4-3.9,1.2l-0.8,0.5l1,0.1
		c0.4,0,0.9,0,1.3,0c2.8,0,5.6-0.6,8.6-1.8l0.9-0.4l-1-0.2C246.2,195.5,245.7,195.4,245.2,195.4L245.2,195.4z M275.6,196.4l0.5-0.1
		c0.2,0,0.3-0.1,0.5-0.1c0.4-0.1,0.6-0.1,0.9-0.3c0.6-0.3,1.1-0.6,1.7-0.9l0.5-0.3c1.2-0.7,1.3-1,0.8-2.2c-0.6-1.6-1.2-3.2-1.8-4.8
		l-0.1-0.4c-0.1-0.2-0.3-0.8-0.9-0.8l-0.3,0L275.6,196.4z M204.4,191c-0.6,0.2-1.1,0.4-1.7,0.6c-0.9,0.4-2,0.8-2.5,2.1l-0.1,0.3
		l0.3,0.1c2,0.8,4,0.9,6.3,0.9l0.9,0l-0.1-0.4c0-0.1,0-0.3,0-0.4c0-0.3-0.1-0.6-0.2-0.9c-0.9-2.5-1.8-5.7-1.5-9.2
		c0.1-1.7,0.5-3.9,2.1-5.5c0.7-0.7,1.5-1.2,2.4-1.6c0.8-0.4,1.9-0.9,2.8-0.5c0.5,0.2,0.9,0.7,1.2,1.1c0.4,0.5,0.8,0.9,1.3,1.4
		c0.8,0.9,1.7,1.8,2.5,2.6c1.4,1.5,2.9,2.9,4.4,4.3c0.2,0.2,0.5,0.3,0.8,0.3c0.7,0,1.5-0.1,2.2-0.6l0.3-0.2l-0.2-0.3
		c-0.6-0.9-1.5-1.1-2.3-1.2c-0.2,0-0.4-0.1-0.6-0.1c0.2,0,0.4-0.1,0.6-0.1c1.4-0.2,2.8-0.4,3.8-1.8l0.3-0.4l-0.4-0.2
		c-1.8-0.7-3.7-0.9-5.5-1.2c-0.2,0-0.4-0.1-0.7-0.1c1.3-0.2,2.6-0.5,3.9-1.1c0.2-0.1,0.3-0.1,0.5-0.2c0.2,0,0.3-0.1,0.5-0.1
		c0.6-0.2,1.3-0.5,1.7-1.4l0.1-0.3l-0.2-0.2c-1-0.6-2-0.7-3-0.8c-0.6-0.1-1.1-0.1-1.6-0.3c-1-0.3-2.1-0.4-3.1-0.6l-0.1,0
		c0,0,0.3-0.1,0.3-0.1c1.6-0.4,3.2-0.9,4.8-1.3l2.3-0.6c0.3-0.1,1-0.3,0.9-1.1c-0.1-0.7-0.8-0.8-1.1-0.8c-1-0.1-1.9-0.2-2.8-0.3
		c-1.4-0.2-3-0.4-4.5-0.7c0,0-0.1,0-0.1,0c0.2,0,0.5-0.1,0.8-0.1l1-0.2c1.6-0.4,3.3-0.8,4.9-1.2c0.4-0.1,0.8-0.3,1.2-0.5
		c0.2-0.1,0.4-0.3,0.7-0.4l0.6-0.3l-0.6-0.3c-1.3-0.7-2.6-0.9-3.8-1c-0.7-0.1-1.3-0.2-1.9-0.3c-0.7-0.2-1.4-0.3-2.1-0.4
		c0,0,0.1,0,0.1,0c2.1-0.4,4.3-1,6.3-1.5l0.3-0.1c1-0.2,1.7-0.8,2.2-1.7l0.2-0.4l-1.3-0.2c-0.6-0.1-1.1-0.1-1.7-0.2
		c-0.8-0.1-1.7-0.2-2.5-0.4c-0.2,0-0.4-0.1-0.7-0.1c-0.6-0.1-1.2-0.2-1.8-0.3c0.8-0.1,1.7-0.3,2.5-0.5c0.8-0.2,1.5-0.3,2.3-0.4
		c1.7-0.3,3.4-0.5,5-0.7c0.7-0.1,1.5-0.2,2.2-0.3l0.3,0l0.1-0.8l-0.8-0.1c-0.4,0-0.8-0.1-1.1-0.1c-2.1,0-4.1-0.1-6.2-0.1l-5.9-0.1
		c-1.5,0-3-0.1-4.5-0.1c-1.8,0-3.6-0.1-5.3-0.1l-1.7,0c-1.6,0-3.2-0.1-4.8-0.1l-0.3,0c-0.5,0-0.9,0-1.4,0c-2.4,0-4.7,0.2-7.3,0.4
		l-0.1,0c-0.4,0-1.3,0.1-1.3,1.2l0,0.3l0.2,0.1c0.1,0,0.3,0.1,0.4,0.1c0.3,0.1,0.7,0.2,1,0.3c1.4,0.1,2.8,0.2,4.1,0.4l0.3,0
		c1.1,0.1,2.2,0.2,3.4,0.3c1.8,0.2,3.5,0.3,5.1,0.5c0.3,0,0.5,0.1,0.8,0.1c0.1,0,0.1,0,0.2,0c-2.2,0.3-4.1,0.4-5.8,0.5
		c-2.5,0-5.1,0.3-8.5,0.7l-0.5,0.1l0.3,0.4c0.5,0.9,1.2,1.1,1.8,1.2l2.4,0.4c2,0.3,3.8,0.7,5.7,1c1.3,0.2,2.7,0.5,4,0.8
		c-0.1,0-0.2,0-0.3,0c-0.8,0-1.6,0.1-2.3,0.2c-0.3,0-0.6,0.1-0.9,0.1c-1.2,0.1-2.4,0.3-3.7,0.4c-1.8,0.2-3.5,0.4-5.3,0.5
		c-0.5,0-1.6,0.1-1.7,1.4l0,0.3l0.3,0.1c0.2,0.1,0.5,0.1,0.7,0.2c0.7,0.2,1.3,0.4,1.9,0.5c0.6,0.1,1.2,0.2,1.8,0.2
		c0.4,0,0.7,0.1,1.1,0.1c0.9,0.1,1.8,0.2,2.7,0.4c0.5,0.1,1,0.2,1.5,0.3c0.4,0.1,0.8,0.1,1.2,0.2c0.3,0.1,0.6,0.1,0.9,0.1
		c0.6,0.1,1.2,0.2,1.8,0.3c-0.1,0-0.3,0-0.4,0c-1.9,0.2-4.1,0.4-6.7,0.7c-1.8,0.2-3.6,0.5-5.3,0.7l-0.1,0c-0.8,0.1-1.3,0.5-1.7,1.1
		l-0.3,0.4c0,0,0.7,0.1,0.8,0.1c0.2,0,0.4,0,0.5,0.1c1.6,0.4,3.2,0.8,4.9,0.8c0.2,0,0.4,0,0.6,0l0.2,0c0.3,0,0.6,0,0.9,0.1l0.2,0
		c0.5,0.1,1,0.1,1.4,0.2c0.6,0.1,1.2,0.2,1.8,0.3c0.9,0.1,1.8,0.2,2.8,0.3l0.4,0.1c-0.1,0-0.3,0.1-0.4,0.1c-1,0.1-2,0.2-3,0.4
		l-0.1,0c-1.1,0.1-2.1,0.2-3.2,0.4c-1.6,0.2-3.1,0.4-4.6,0.7c-1.1,0.2-1.2,0.5-1,1.6l0,0.3l0.3,0c2.4,0.2,7.1,1.1,8.8,1.7
		c-0.1,0-0.1,0.1-0.2,0.1c-0.6,0.1-1.3,0.2-1.9,0.3c-0.6,0.1-1.1,0.1-1.5,0.2c-1.6,0.3-3.2,0.5-4.3,2.1l-0.3,0.4l0.5,0.1
		c0.6,0.2,1.3,0.4,1.9,0.6c1.5,0.5,3,0.9,4.6,1.1c-1,0.1-1.9,0.3-2.8,0.5l-0.8,0.2c-0.7,0.1-1.5,0.3-2,1.1l-0.2,0.3l0.3,0.2
		c0.2,0.1,0.4,0.3,0.6,0.4c0.5,0.3,0.9,0.6,1.4,0.8c1.4,0.4,2.8,0.7,4.3,1L204.4,191z M245.7,191.2c-0.1,0-0.1,0-0.2,0
		c-0.9,0.2-1.8,0.4-2.7,0.6c-1.9,0.4-4,0.8-5.9,1.4l-0.3,0.1l0.1,0.9l1.4-0.1c0.8-0.1,1.6-0.1,2.4-0.2c2-0.2,3.6-0.4,5.2-1
		c0.4-0.1,1.1-0.4,0.8-1.4l-0.1-0.2l-0.2,0c-0.1,0-0.1,0-0.2,0C246,191.3,245.8,191.2,245.7,191.2L245.7,191.2z M246.4,187.3
		c-0.2,0-0.3,0-0.4,0.1c-1.1,0.2-2.1,0.5-3.2,0.7l-0.2,0c-1.3,0.3-2.7,0.6-4,0.9c-0.4,0.1-0.8,0.3-1.2,0.4c-0.2,0.1-0.3,0.1-0.5,0.2
		l-0.4,0.1l0.4,0.6c0,0,1.5,0,1.9,0c0.4,0,0.7,0,1.1,0c2.5-0.1,4.8-0.8,6.5-1.4c0.4-0.1,0.8-0.6,0.7-1
		C247.1,187.5,246.8,187.3,246.4,187.3L246.4,187.3z M246.5,183.7c-0.1,0-0.2,0-0.3,0l-0.1,0c-0.1,0-0.2,0-0.2,0.1l-2.3,0.6
		c-1.3,0.3-2.7,0.7-4,1c-0.9,0.2-1.9,0.5-2.7,1.3l-0.7,0.7l1-0.1c0.4,0,0.8-0.1,1.3-0.1c1-0.1,2-0.2,2.9-0.4c1.3-0.3,2.5-0.6,3.7-1
		c0.5-0.1,1-0.3,1.5-0.4c0.3-0.1,1.1-0.3,0.9-1.1C247.2,184,247,183.7,246.5,183.7L246.5,183.7z M251.8,176.9
		c-0.1,0.1-0.3,0.3-0.4,0.4c-2.2,1.6-4.6,2.7-7.1,3.4l-1.4,0.4c-1.4,0.4-2.8,0.7-4.2,1.2c-0.2,0-0.3,0.1-0.5,0.1
		c-0.8,0.2-1.8,0.5-2.5,1.4l-0.6,0.6l0.8-0.1c0.5-0.1,1-0.1,1.5-0.2c1.1-0.1,2.1-0.2,3.1-0.4c1.2-0.3,2.4-0.6,3.6-0.9
		c0.7-0.2,1.3-0.4,1.9-0.5c2.4-0.6,4.6-2,6.9-4c2.8-2.6,5.5-5,8.6-7c3-1.8,5.8-3,8.6-3.7c2.3-0.5,4.8-0.9,7.6-1.1
		c2.6-0.2,5.3-0.8,7.9-1.3l0.4-0.1c4.3-0.9,8.6-1.9,12.7-2.8l2.1-0.5l0.1,0c0.4-0.1,0.9-0.2,1.3-0.8l0.2-0.4l-0.5-0.1
		c-0.1,0-0.1,0-0.2,0c-0.1,0-0.2,0-0.3,0l-1.4,0.1c-1.1,0.1-2.3,0.2-3.5,0.4c-1.4,0.2-2.8,0.4-4.2,0.6c0,0-1.7,0.3-2.5,0.4
		c1.5-0.7,2.9-1.3,4.3-2c0.2-0.1,0.5-0.2,0.7-0.3c2.9-0.8,6.1-1.6,9.3-1.8c0.7-0.1,1.4-0.2,2.1-0.3l0.1,0c0.3-0.1,0.6-0.1,0.8-0.2
		l0.8-0.1l-0.6-0.5c-0.4-0.3-0.8-0.5-1.2-0.5l-1.4,0c-0.6,0-1.4,0-2.2,0.1c-1.7,0.1-3.3,0.3-5,0.5l-1.5,0.2
		c-2.4,0.3-4.6,0.6-6.6,1.2l0.4-0.2c0.5-0.2,0.9-0.4,1.4-0.6c1.1-0.5,2.2-1,3.2-1.4c3.5-1.1,6.4-1.7,9.1-1.8c1.4,0,2.8-0.2,4.2-0.4
		c0,0,1-0.1,1.4-0.1c0.2,0,0.4-0.1,0.6-0.2c0.1-0.1,0.2-0.1,0.4-0.2l1-0.5l-1.1-0.2c-1.4-0.2-2.8-0.3-4.3-0.3c-2,0-3.8,0.2-5.3,0.3
		c-0.6,0.1-1.3,0.2-1.9,0.2c-0.9,0.1-2,0.3-3,0.3c-1.5,0.1-3.3,0.3-5,0.8c1.8-0.8,4-1.7,6.5-2.1c0.4-0.1,0.8-0.2,1.3-0.3
		c0.3-0.1,0.6-0.2,1-0.2l0.9-0.2c1-0.2,1.9-0.4,2.9-0.6c1.5-0.2,3-0.4,4.3-0.5l0.1,0c0.8-0.1,1.5-0.2,2.3-0.2c0.2,0,0.3-0.1,0.5-0.2
		c0.1-0.1,0.2-0.1,0.4-0.2l0.9-0.4l-0.9-0.3c-0.1,0-0.2-0.1-0.3-0.1c-0.2-0.1-0.3-0.1-0.5-0.1c-0.4,0-0.8-0.1-1.2-0.1
		c-0.7-0.1-1.5-0.1-2.3-0.1c-0.3,0-0.5,0-0.7,0c-2.9,0.2-5.7,0.5-8.5,0.7c-1,0.1-2,0.2-3,0.4c-0.7,0.1-1.5,0.2-2.2,0.3l-0.5,0.1
		c-0.6,0.1-1.2,0.1-1.8,0.3c5.9-2.9,12.4-4.4,19.7-4.4h0.2c0.5,0,1,0,1.5,0l0.1,0l0.2-0.6l-0.1-0.1c-1-0.6-2-0.9-3-0.9
		c-2.8,0-6,0-9,0.2c-1.4,0.1-2.8,0.3-4.2,0.6l-0.7,0.1c-1,0.2-2.2,0.5-3.4,0.8c-0.7,0.2-1.3,0.4-2,0.7c5.1-3.2,11.1-4.7,18.8-4.7
		h0.5l0-0.8l-0.2-0.1c-0.2-0.1-0.3-0.1-0.4-0.1c-1.3,0-2.8-0.1-4.2-0.1l-0.1,0c-2.3,0-4.2,0.1-6,0.4c-4.5,0.7-9.2,2.5-14.6,5.6
		c-2.4,1.4-4.8,3-7.1,4.6l-0.2,0.1c-3,2.1-5.3,3.8-7.4,5.5c-2.1,1.7-4.1,3.4-6.1,5.1c-0.8,0.7-1.6,1.4-2.5,2.1
		c-2.2,1.9-4.7,3.5-7.5,5.1c-1.8,1-3.8,1.9-5.6,2.7l-2.1,1c-2.1,1-4.3,2-6.7,2.5c-0.2,0-0.3,0.1-0.4,0.2l-0.1,0.1l-0.8,0.6
		c0,0,1.3,0,1.4,0c1.2,0,2.2-0.1,3.2-0.4c1.2-0.3,2.4-0.6,3.6-1c1.3-0.4,2.5-0.7,3.8-1l0.4-0.1c0.6-0.1,1.2-0.3,1.7-0.5
		c-2.6,2.1-5.7,3.1-8.7,3.9c-1.2,0.3-2.4,0.6-3.5,1l-1.8,0.5l0,0.6l0.1,0c0.7,0.1,1.5,0.2,2.3,0.2c1.1,0,2-0.2,2.9-0.5
		c0.2-0.1,0.4-0.1,0.5-0.1c0.2,0,0.3,0,0.4,0c1.7,0,3.2-0.5,4.7-0.9l0.7-0.2C249.7,177.7,250.8,177.4,251.8,176.9z M104.7,134.8
		c-2,0-3.8,0.3-5.5,0.8c-1.1,0.4-2,1.1-2.7,1.8c-0.4,0.4-0.7,1.1-0.6,1.6c0.1,1.8,0.9,3.1,2.2,4c2.9,1.9,6.3,3.4,10.4,4.9
		c0.8,0.3,1.6,0.5,2.4,0.7c0.7,0.2,1.5,0.4,2.2,0.6l0.4,0.1c1.3,0.4,2.6,0.9,4,1.2c1.2,0.3,2.4,0.6,3.5,1l0.1,0
		c0.5,0.2,1.1,0.3,1.6,0.5c1.5,0.4,7,2,7,2l0.1-0.3c0.1-0.3,0.2-0.6,0.3-0.9c0.2-0.6,0.4-1.2,0.6-1.8c0.4-1.7,0.8-3.5,1.2-5.2
		c0.7-3,1.3-6,2-8.9c0.1-0.2,0.1-0.5,0.2-0.7c0.3-1.2,0.5-2.5,1.7-3.6l0.6-0.6l-1.6,0c-0.1,0-0.2,0-0.3,0c-0.6,0.1-1,0.4-1.3,0.8
		c-0.2,0.2-0.3,0.3-0.5,0.4c-1.3,0.7-2.7,1.4-4.1,1.9c-2.2,0.8-4.5,0.9-6.5,1c-0.7,0-1.3,0-1.9-0.1c-0.6,0-1.2-0.1-1.8-0.1l-0.7,0
		c-2,0-4-0.3-6-0.6c-0.9-0.1-1.7-0.3-2.6-0.4C107.4,134.9,106,134.8,104.7,134.8L104.7,134.8z M235.4,153c0.6,0,1.3,0,2,0.1
		c0.5,0.1,0.9,0.1,1.3,0.1c1.2,0,2.1-0.4,2.9-1.1c0.2-0.2,0.4-0.3,0.6-0.5c0.5-0.4,1.1-0.8,1.3-1.5c0.2-0.6,0.2-1.3,0.3-1.9
		c0.1-0.6,0-0.9-0.2-1.1c-0.2-0.2-0.5-0.4-1.1-0.4l-1.3-0.1c-1.6-0.1-3.2-0.3-4.9-0.4c-3.2-0.2-6.6-0.3-9.1-0.4
		c-1.4-0.1-2.9-0.1-4.3-0.1c-1.4,0-2.7-0.1-4.1-0.1c-1.1,0-2.3-0.1-3.4-0.1l-0.3,0c-2.1-0.1-4.2-0.2-6.2-0.2
		c-5.3-0.1-10.6-0.1-16.4-0.1l-0.2,0c-1,0-2.1,0.1-3.1,0.1c-0.5,0-1,0-1.5,0.1l-0.2,0l-0.1,0.2c-0.7,2.1-0.4,4.1,0,6.1l0,0.2l0.3,0
		c0.5,0,1,0.1,1.4,0.1c1.2,0.1,2.2,0.2,3.2,0.2c2.6,0.1,5.3,0.2,8,0.2l5.8,0.1c3.9,0.1,7.7,0.2,11.6,0.3c3.4,0.1,6.8,0.1,10.2,0.2
		c0,0,4.3,0.1,6.2,0.1L235.4,153z M176,145.1c-0.1,0-0.2,0-0.3,0c-0.9,0.1-1.3,0.6-1.3,1.5c0,0.9,0,1.8,0.1,2.7
		c0.1,1,0.5,2.1,2.2,2.3l0.2,0l0.1-0.2c0-0.1,0.1-0.2,0.1-0.3c0.1-0.3,0.3-0.6,0.3-0.9c0.1-1.4,0.2-2.7,0.3-4c0-0.4-0.4-0.9-0.7-1
		C176.7,145.2,176.3,145.1,176,145.1L176,145.1z M124.8,109c-1.3,0-2.6,0.1-3.8,0.4c-0.7,0.1-1.2,0.4-1.6,1c-1.1,1.5-1.1,2-0.2,3.7
		c0.3,0.5,0.6,1,0.9,1.4c2.4,2.4,5,3.8,8,4.3c1.9,0.3,3.5,0.7,5.1,1.1c3.1,0.8,5.1,2.9,5.9,6.1c0.2,0.7,0.2,1.4,0,2.1
		c-1,3.8-2.2,8.2-3.3,12.5c-0.4,1.6-0.7,3.3-1.1,5c-0.2,0.8-0.3,1.6-0.5,2.4l-0.1,0.3l0.3,0.1c0.2,0,0.3,0.1,0.5,0.1
		c0.3,0.1,0.6,0.2,1,0.2c1.3,0,2.7-0.1,4.1-0.3c3.9-0.5,7.3-1.4,10.5-2.6c0.7-0.3,1.3-0.7,1.9-1.2c0.4-0.4,0.7-0.8,1-1.2
		c0.2-0.2,0.3-0.4,0.5-0.7l0.3-0.4l-0.5-0.1c-5.3-1.6-9.3-4.5-12-8.9c7.3-6,12.4-13.6,15.6-23.3l0.2-0.6l-0.6,0.2
		c-2.4,0.8-5,1.2-7.9,1.3c-0.5,0-1,0-1.5,0h-0.3c-2.6,0-4.7-0.1-6.7-0.3c-3.5-0.4-6.9-1-10.5-1.7C128.1,109.2,126.4,109,124.8,109
		L124.8,109z M175.9,140.3c-0.7,0-1.5,0.1-2,0.9l-0.2,0.3l0.3,0.2c0.9,0.5,1.8,0.6,2.7,0.7l0.2,0c3.6,0.3,6.9,0.6,10,0.7
		c3.5,0.2,7.2,0.3,11.2,0.5c2.3,0.1,4.6,0.1,6.9,0.1l0.4,0c1.4,0,2.8,0,4.3,0.1c2.3,0,4.7,0.1,7,0.2l3.9,0.1c0.3,0,0.7,0,1,0
		c0.5,0,1.1,0,1.6,0c1.2,0,2.4,0.1,3.6,0.2c1.5,0.1,3,0.1,4.4,0.2c2.2,0.1,4.5,0.2,6.7,0.2c0.3,0,0.5,0,0.8,0c0.5,0,1,0,1.4,0
		c1.1,0,1.9-0.1,2.7-0.4l0.2-0.1l0-0.2c0.1-0.5,0.1-0.8-0.1-1.1c-0.2-0.2-0.5-0.4-0.8-0.5c-0.2,0-0.3-0.1-0.5-0.1
		c-0.3-0.1-0.6-0.1-1-0.1c-1,0-2,0-3.1,0l-0.2,0c-1.6,0-3.2,0-4.7-0.1c-2.4-0.1-4.9-0.2-7.3-0.3l-0.2,0c-1.7-0.1-3.4-0.2-5.2-0.2
		c-2.2-0.1-4.3-0.1-6.5-0.2l-1.8,0c-0.6,0-1.3,0-1.9,0c-0.7,0-1.4,0-2,0c-1.3,0-2.7-0.1-4-0.1c-1.9-0.1-3.9-0.1-5.8-0.2
		c-1,0-2,0-2.9,0l-0.1,0c-1.5,0-2.9,0-4.4-0.1c-2.1-0.1-4.2-0.2-6.3-0.3l-2.5-0.1c-0.2,0-0.5,0-0.7-0.1c-0.4,0-0.7-0.1-1-0.1
		C178.7,140.3,177.3,140.3,175.9,140.3L175.9,140.3z M227,88.3l-0.2,1.3c-0.2,2.1-0.5,4.3-0.3,6.4c0.1,1.3,0.2,2.5,0.4,3.8l0.3,3.5
		c0.1,1.2,0.2,2.4,0.3,3.6c0.1,0.6,0.1,1.1,0.2,1.7c0.2,1.3,0.3,2.7,0.3,4l0,0.9c-0.1,3.3-0.2,6.8-0.8,10.2
		c-0.8,4.8-2.1,9.5-4.1,14.1l-0.7,1.6l0.4,0.1c0.3,0.1,0.6,0.1,0.9,0.1c0.9,0,1.7-0.3,2.4-1c0.7-0.6,1.3-1.2,1.8-1.8
		c0.4-0.5,0.7-0.9,1.1-1.3c1.1-1.3,2.1-2.6,3-4c1.1-1.9,2.1-3.9,3.3-6.6c0.6-1.4,1.2-2.9,1.7-4.3c0.2-0.7,0.5-1.4,0.8-2c0,0,0,0,0,0
		c0,2.3-0.6,4.6-1.1,6.8c-0.2,0.9-0.4,1.7-0.6,2.6c-0.7,3.3-1.9,6.3-3.7,9.8l-0.3,0.6l0.7-0.2c0.1,0,0.3-0.1,0.4-0.1
		c0.4-0.1,0.8-0.2,1.1-0.4c0.3-0.2,0.4-0.5,0.6-0.8c0.2-0.3,0.6-0.4,0.9-0.6c0.3-0.3,0.6-0.7,0.9-1c0.2-0.2,0.3-0.4,0.5-0.6
		c2.3-2.5,3.7-5.7,4.6-10.3c0.7-3.7,0.9-6.9,0.6-9.9l-0.1-1.4c-0.2-1.9-0.3-3.7-0.6-5.5c-0.4-2.1-0.9-4.2-1.3-6.3l-0.3-1.1
		c-0.2-0.8-0.6-1.6-1.3-2.3l-0.4-0.4l-0.1,0.6c-0.1,0.4-0.1,1,0,1.5c0.4,1.7,0.5,3.3,0.2,5c-0.1,0.7-0.2,1.4-0.3,2.1
		c-0.1,1.1-0.2,2.1-0.5,3.2c-0.7,2.7-1.4,5.6-2.6,8.3c-0.7,1.5-1.3,3-1.9,4.5l-0.4,0.9c0.1-0.8,0.1-1.6,0.2-2.4
		c0.2-2.8,0.1-5.5-0.3-8.3c-0.4-2.3-0.9-4-1.4-6.3c-0.2-0.8-0.6-2-0.9-2.9c-0.3-1-0.5-1.7-0.7-2.6c-0.3-1-0.5-2.1-0.7-3.2
		c-0.5-2.2-0.8-4.4-0.8-6.7c0-0.7-0.1-1.4-0.2-2c0-0.3-0.1-0.6-0.1-0.9l0-0.3L227,88.3z M245.3,117.6c0,0,0,1.1,0,1.3
		c0,0.9,0.1,1.7,0.1,2.6c0.1,1.7,0.2,3.4,0,5.1c-0.5,3.5-1.5,6.2-3.2,8.4c-0.4,0.5-0.9,1.1-1.3,1.8c-0.1,0.2-0.2,0.5-0.3,0.7
		c0,0.1-0.1,0.2-0.1,0.3l-0.4,1l0.9-0.6c1.1-0.7,2-1.6,2.7-2.2c1.1-1,2.3-2.3,2.9-4.1l0.1-0.4c0.2-0.5,0.4-1.1,0.5-1.6l0.1-0.4
		c0.2-0.8,0.4-1.7,0.3-2.5c-0.1-2.6-0.5-5-1.3-7.2c-0.1-0.4-0.2-0.8-0.2-1.3c0-0.3,0-0.5-0.1-0.6l0-0.3L245.3,117.6z M216.1,79
		l0.2,1.4c0.1,0.8,0.2,1.6,0.4,2.4c1.1,5.6,1.3,10.7,0.7,15.4c-0.5,3.5-1.3,6.9-2.7,10.3c-0.9,2.4-1.9,5-2.5,7.6
		c-0.6,2.7-1.3,5.8-1.4,9c-0.1,3.2,0.6,5.7,2,8c0.5,0.8,1,1.7,1.4,2.5c0.2,0.4,0.4,0.8,0.6,1.2l0.7,1.3l0.3-0.5
		c0.2-0.3,0.5-0.7,0.7-1c0.5-0.7,1-1.4,1.4-2.1c1.1-2.1,2.1-4.3,3-6.4l0.2-0.4c0.3-0.7,0.5-1.4,0.7-2.1c0.1-0.5,0.2-1,0.4-1.5l0-0.1
		c0.2-0.8,0.4-1.6,0.6-2.3c1-3.1,1.2-6.4,1.3-9.3c0.1-1.7,0.1-3.5,0.1-5.2c0-0.7,0-1.4,0-2.1c0-1.2,0-6.1,0-6.1l0-0.1l-0.7-0.1
		c0,0-0.3,0.5-0.4,0.7c-0.2,0.4-0.4,0.7-0.6,1.1c-0.9,2.3-1.9,4.6-2.8,6.9l-0.8,2c-0.9,2.2-1.7,4.5-2,7.1c0-0.1,0-0.2,0-0.2
		c-0.1-2.5-0.1-5.5,0.7-8.4c0.3-1.1,0.6-2.2,0.8-3.3c0.3-1.4,0.6-2.7,1-4c0.7-2.3,1-4.8,0.9-7.5c-0.1-3.4-0.6-6.4-1.5-9.2
		c-0.4-1.1-0.7-2.2-1.1-3.4l-0.6-1.8L216.1,79z M204.1,88.2c-0.4,0.2-0.5,0.4-0.6,0.6c-0.8,1.9-1.6,3.7-2.4,5.6
		c-1.4,3.2-2.9,6.6-4.1,10c-1.7,4.7-2.6,9.2-2.8,13.9c-0.2,4.5,0.3,8.8,1.5,13c0.6,2,1.5,3.8,2.9,5.4l0.3,0.3l0.3-0.4
		c0.4-0.7,0.3-1.3,0.2-1.8l0-0.2c-0.4-2.6-0.8-5.4-0.7-8.2c0.3-4.9,1.5-10,3.7-15.6c0.6-1.5,1.3-3.1,1.9-4.6c0,0.1,0,0.1-0.1,0.2
		c-1.4,4.6-2.5,8.7-2.3,13.2c0,1.3,0.2,2.6,0.4,3.8c0.1,0.8,0.2,1.6,0.3,2.4c0,0.2,0.1,0.4,0.2,0.5c0,0.1,0.1,0.1,0.1,0.2l0.2,0.3
		c0.1,0.3,0.3,0.6,0.4,1c0.2,0.4,0.3,0.8,0.5,1.2c0.5,1.2,0.9,2.5,1.7,3.6l2.5,3.6l0.8-0.4l-0.2-0.8c-0.1-0.4-0.2-0.9-0.3-1.3
		c-0.1-0.5-0.2-0.9-0.4-1.4c-0.3-1.1-0.6-2.2-0.7-3.2c-0.3-3-0.2-6.2,0.5-9.4c0.7-3.5,1.9-7,2.9-10.1c2-6.2,3.2-12,3.5-17.5
		c0.1-0.8,0.1-1.8,0.1-2.8c-0.1-2.9-0.2-5.9-0.9-8.8c-0.3-1.2-0.5-2.3-0.8-3.5c-0.2-1.1-0.4-2.1-0.7-3.2c-0.1-0.6-0.3-1.1-0.5-1.6
		c-0.1-0.3-0.3-0.8-0.3-0.8l-0.6,0.1l0,0.1c-0.1,3.3-0.5,6.8-1.3,10.2c-0.8,3.5-1.8,7-3.2,10.4c-0.5,1.4-1.2,2.7-1.8,4.1
		c-0.6,1.4-1.3,2.8-1.8,4.2c-1.1,2.9-2.3,5.8-3.2,8.9c0-0.3,0-0.6,0.1-0.9c0-0.9,0.1-1.7,0.2-2.5c0.5-3.1,1.3-6.3,2.6-9.5
		c0.7-1.7,1.3-3.5,1.9-5.2l0.5-1.5c0.1-0.3,0.1-0.5,0.1-0.8c0-0.1,0-0.2,0-0.3l0.1-0.6L204.1,88.2z M190.2,83.1
		c-0.3,0.4-0.4,0.8-0.5,1.2c-0.1,0.3-0.1,0.6-0.2,1c-0.1,0.7-0.2,1.4-0.4,2c-1.1,3.5-2.6,6.9-4.5,10.1l-0.5,0.9
		c-2.2,3.9-4.5,7.9-6.7,11.8c-0.9,1.5-1.6,3.1-2,4.8c-0.9,3.1-1.2,6.3-1,9.8c0.3,3.6,1.6,6.7,3,9.5c0.1,0.3,0.3,0.5,0.6,0.7
		c0.1,0.1,0.3,0.3,0.4,0.4l0.7,0.8l-0.2-1.5c0-0.2,0-0.4-0.1-0.5c-0.1-0.3-0.1-0.6-0.2-0.8c-0.2-0.6-0.3-1.2-0.4-1.7
		c-0.5-3.8-0.3-7.8,0.9-12.7c0.8-3.3,2.4-6.2,3.9-9c0.5-1,1.1-2,1.7-2.9c-0.4,0.9-0.8,1.8-1,2.8c-0.4,2-0.7,4.2-1,6.5
		c-0.2,2-0.1,4.1,0.2,6.7c0.3,2,0.9,4,1.9,6.3c0.1,0.3,0.3,0.7,0.4,1c0.7,1.6,1.4,3.3,2.5,4.7l0.7,0.9l-0.1-1.1
		c0-0.6-0.2-1.1-0.3-1.6c-0.1-0.4-0.2-0.7-0.3-1.1c-0.2-0.8-0.5-1.6-0.6-2.4c-0.4-3.3-0.5-6.3-0.2-9.1c0.3-3,0.9-5.5,1.7-7.8
		c1.6-4.5,3.6-9.1,6.2-14.1c1.8-3.5,3.4-6.7,4.3-10.2c0.1-0.3,0.1-0.6,0.2-0.9c0-0.1,0.1-0.5,0.1-0.5l-0.6-0.2l-0.1,0.1
		c-0.7,1.2-1.3,2.5-1.9,3.7c-0.5,1-1,2-1.5,3c-0.8,1.5-1.7,3-2.6,4.5l-0.1,0.2c0.1-0.2,0.1-0.4,0.2-0.5c0.7-1.8,1.1-3.8,1.4-6.3
		l0-0.3c0.1-1.3,0.3-2.7,0.4-4c0-0.5-0.1-1.1-0.2-1.5c-0.1-0.2-0.3-0.4-0.5-0.5c-0.1,0-0.2-0.1-0.2-0.1l-0.4-0.3l-0.1,0.5
		c-0.4,2.6-2.7,8.5-4.1,11.4c0.1-0.2,0.1-0.4,0.2-0.7c0.3-1.2,0.7-2.4,1-3.5c0.1-0.6,0.2-1.1,0.3-1.7c0-0.3,0.1-0.7,0.1-1
		c0.4-2.1,0.5-3.9,0.3-5.6c0-0.2-0.1-0.4-0.2-0.6c0-0.1-0.1-0.2-0.1-0.2l-0.2-0.6L190.2,83.1z M116.2,118.1l-0.1,0.4
		c0,0.1-0.1,0.3-0.1,0.5c0,0.5-0.1,1-0.1,1.4c0,0.8-0.1,1.7-0.2,2.6c-0.3,2.5-0.6,4.9-0.9,7.2c-0.1,0.8,0.2,1.3,0.8,1.6
		c0.3,0.1,0.6,0.2,0.9,0.3c1.5,0.3,3,0.4,4.6,0.4c1,0,1.9,0,2.9-0.1c3.1-0.3,6.1-1.3,9-3.1c0.9-0.5,1.4-1.2,1.7-2
		c0.1-0.2,0.2-0.5,0.4-0.7c0.1-0.1,0.2-0.3,0.3-0.4l0.1-0.2l-0.1-0.2c-1.1-1.5-2.5-2.3-4.3-2.6l-1-0.1c-1.4-0.2-2.9-0.4-4.3-0.7
		c-1.7-0.4-3.6-1-5.3-2.2c-0.2-0.2-0.5-0.4-0.7-0.6c-0.8-0.7-1.7-1.4-3-1.4h0L116.2,118.1z"/>
</g>
<g>
	<path class="st0" d="M39.9,226.9c-8.8,0.3-15.8-6.6-16.1-16.9c-0.1-3.8,0.6-7.8,0.9-9.1l7.2-0.2l0,0.4c-2.4,2.3-5.5,6.4-5.4,9.9
		c0.1,4.3,5.2,8.6,12.4,8.4c8.5-0.2,13.3-5.3,13.2-10.2c-0.1-4.5-4.3-7.8-6.2-9.1l0-0.4l6.8-0.2c0.7,1.5,2,4.9,2.2,9.8
		C55.1,218.8,49.6,226.7,39.9,226.9z"/>
	<path class="st0" d="M27.1,172.6c1.7-8.5,8.9-14.6,17.9-12.8c9.5,1.9,14.3,10.7,12.7,18.6c-1.6,8.3-8.8,14.7-18,12.8
		C30.6,189.4,25.5,180.8,27.1,172.6z M55.1,177.9c0.8-4.1-3.1-9.2-10.9-10.7c-7.9-1.6-13.6,1.9-14.4,5.9c-0.8,4.1,3.3,9.1,11.1,10.7
		C48.6,185.3,54.3,182,55.1,177.9z"/>
	<path class="st0" d="M63.1,132.9l0.1-0.3l8.5,3.7l-9.7,22.2l-0.2-0.1l-1.2-4.1l-22.1-9.7l-3.8,1.8l-0.2-0.1l5.3-12.2l0.2,0.1
		l1.2,4.1l22.4,9.8l3.4-7.8L63.1,132.9z"/>
	<path class="st0" d="M84.1,118.5c-5.6,7.9-15,10.2-22.3,4.9c-7-5-8.8-14.7-2.7-23.3c2.6-3.6,5.6-6.4,6.6-7.2l5.7,4.1l-0.2,0.3
		c-3.7,0.5-8.3,2.1-10.5,5.1c-2.6,3.6-1.7,9.9,4.7,14.5c6.7,4.8,14,3.7,17-0.5c1-1.4,1.5-3,1.5-3.8l-7.7-5.5l-4.3,1.4l-0.2-0.2
		l7.4-10.4l0.2,0.2l0.7,3.7l8.8,6.3C87.8,110.5,87.5,113.7,84.1,118.5z"/>
	<path class="st0" d="M100.2,98.8l0.2,0.2l-6.9,6.3l-0.2-0.2l0.2-3.9L83.2,73.5l1.1-1L111.4,85l3.9,0.2l0.2,0.2l-9.8,8.8l-0.2-0.2
		l0.5-4.2l-6.4-3l-6.3,5.7l2.4,6.3L100.2,98.8z M92.4,90l4.8-4.3l-7.8-3.6L92.4,90z"/>
	<path class="st0" d="M123.5,45.2l3.9,6.4l-0.3,0.2l-6.3-1.9l-5,3l12.8,20.9l4.6,0.4l0.1,0.2L121.1,82l-0.1-0.2l1.7-4.3l-12.8-20.9
		l-5,3.1l-1.2,6.4l-0.2,0.1l-3.9-6.4L123.5,45.2z"/>
	<path class="st0" d="M143.5,69.2l-0.1-0.3l2.1-3.7l-8.3-22.6l-4-1.5l-0.1-0.2l20.1-7.3l2.3,6.3l-0.3,0.1l-4.9-2.6l-6.9,2.5l3.6,9.8
		l7.2-2.6l1.4-4l0.3-0.1l3.1,8.5l-0.3,0.1l-3.6-2.2l-7.2,2.6l4.1,11.2l7.7-2.8l1.8-6.3l0.3-0.1l2.7,7.4L143.5,69.2z"/>
	<path class="st0" d="M209.6,44.7c0.3,4.5-2.6,11.5-11.8,12c-9.5,0.6-13.9-4.5-14.3-10.3l-1-16.4l-3.3-2.6l0-0.2l13.8-0.8l0,0.2
		l-3.5,3l1,16.1c0.2,4.2,2.8,7.4,8.7,7.1c4.9-0.3,7.5-4,7.3-8l-1-16.1l-3.8-2.6l0-0.2l10-0.6l0,0.2l-3,3L209.6,44.7z"/>
	<path class="st0" d="M255.4,31.8l0,0.2l-3.7,2.2l-4.8,26.6l-2.9-0.5l-16.2-25.9l-3.5,19.2l3.9,3.6l0,0.3l-10.8-1.9l0-0.3l3.7-2.2
		l4.1-22.6c-1.2-1.8-2.8-4.2-2.9-4.4l0-0.2l9.3,1.7l13.8,22.4l2.9-16.2l-3.6-3.6l0-0.2L255.4,31.8z"/>
	<path class="st0" d="M254.5,63.6l0.1-0.3l4-1.4l8.6-22.5l-2-3.7l0.1-0.3l12.4,4.7l-0.1,0.3l-3.9,1.4L265,64.4l2,3.7l-0.1,0.3
		L254.5,63.6z"/>
	<path class="st0" d="M302.2,53.3l0.1-0.2l8.1,4.7l-0.1,0.2l-3.8,1l-22.9,18.4l-1.3-0.8l3.5-29.6l-1-3.8l0.1-0.2l11.9,6.9l-0.1,0.2
		l-4.2,0.8L290,68.5l13.5-11L302.2,53.3z"/>
	<path class="st0" d="M297.2,85.6l0.2-0.2l4.2,0.1l15.8-18.2l-0.6-4.2l0.1-0.2l16.2,14l-4.4,5.1l-0.2-0.2l-0.1-5.6l-5.6-4.8
		l-6.8,7.9l5.8,5l4.2-0.7l0.2,0.2l-5.9,6.8l-0.2-0.2l0.1-4.2l-5.8-5l-7.8,9l6.2,5.4l6.3-1.5l0.2,0.2l-5.2,6L297.2,85.6z"/>
	<path class="st0" d="M318.3,104.1l0.2-0.2l4.1,0.9l19.1-14.7l0.2-4.3l0.2-0.1l7.9,10.2c3.8,4.9,5.3,9.8,1.3,12.9
		c-2.7,2.1-6.4,1.4-8.8,0.3l-3.8,9c-2,4.9-2,7.7-2,9.3l-0.2,0.2c-0.4-0.4-1.4-1.4-2.4-2.6c-3.3-4.2-2.8-6.7-1.3-10l4.5-9.9l-1.5-1.9
		l-9,7l0,4.4l-0.2,0.2L318.3,104.1z M346.3,95.2l-8.6,6.7l2.6,3.3c0.9,1.1,3.8,1.1,6.2-0.8c3.2-2.5,2.8-5.5,1.2-7.6L346.3,95.2z"/>
	<path class="st0" d="M372.1,132.6l-6,3.1l-0.1-0.3c1.7-3.8,2.3-6.5,1.3-8.4c-0.7-1.3-2.4-2.2-4-1.3c-2.2,1.1-2.6,3-3.3,7.2
		c-1.1,5.7-1.9,9.2-5.9,11.3c-4.5,2.3-9.8,0.4-12.7-5.4c-1.8-3.5-2.2-6.5-2.2-8.1c1.3-0.8,5.5-3.3,8.4-4.7l0.2,0.4
		c-3.3,4-5.5,8-3.9,11.1c1,1.9,3.3,2.7,5.5,1.6c2.4-1.2,3-3.1,3.7-7.4c0.9-5.7,2.3-8.7,5.6-10.4c4.5-2.3,8.8,0.3,11.4,5.3
		C371.4,129.4,372.1,131.9,372.1,132.6z"/>
	<path class="st0" d="M348.6,153.6l0.3-0.1l3.6,2.2l22.9-7.6l1.6-3.9l0.3-0.1l4.2,12.6l-0.3,0.1l-3.6-2.2l-22.9,7.6l-1.6,3.9
		l-0.3,0.1L348.6,153.6z"/>
	<path class="st0" d="M388.6,193.4l-7.4,1.2l0-0.3l4.1-5.1l-0.9-5.8l-24.2,3.8l-2.2,4.1l-0.3,0l-2.2-14.2l0.3,0l3.3,3.3l24.2-3.8
		l-0.9-5.8l-5.5-3.6l0-0.3l7.4-1.2L388.6,193.4z"/>
	<path class="st0" d="M388.1,218.8l0.2,0l-0.3,9.3l-0.2,0l-2.7-2.9l-11.8-7.8l-12-0.4l-3,3l-0.3,0l0.4-13.2l0.3,0l2.8,3.3l11.1,0.4
		l13.1-7.9l2.9-2.6l0.2,0l-0.4,13.6l-0.2,0l-2.7-3.3l-9.6,5.6l9,6L388.1,218.8z"/>
</g>
<g>
	<path class="st0" d="M96.5,331.9l0.2,0.2l-5.2,5.4l-0.2-0.2l0.3-3.5l-4.5-4.4l-6.4,6.6l0.9,4.1l-0.2,0.2l-8.4-8.1l0.2-0.2l3.4,0.2
		l13.7-14l-0.3-3.4l0.1-0.1l12.5,12.1l-3.9,4l-0.2-0.2l0.2-4.7l-4.2-4.1l-6,6.1l4.5,4.4L96.5,331.9z"/>
	<path class="st0" d="M116.2,336.7c5.8,4.1,7.9,11.4,3.6,17.5c-4.5,6.4-12.6,7.1-18,3.4c-5.6-4-8-11.4-3.6-17.6
		C102.6,333.7,110.6,332.7,116.2,336.7z M103.1,355.7c2.8,2,7.8,0.7,11.5-4.6c3.8-5.4,3.1-10.7,0.4-12.6c-2.8-1.9-7.9-0.5-11.6,4.7
		C99.7,348.4,100.3,353.7,103.1,355.7z"/>
	<path class="st0" d="M143.9,370c-1.5,3.3-6.3,7.2-13.1,4.1c-7-3.2-8.3-8.6-6.3-12.8l5.6-12.2l-1.4-3.1l0.1-0.2l10.2,4.7l-0.1,0.2
		l-3.7,0.8l-5.5,11.9c-1.4,3.1-0.9,6.4,3.5,8.4c3.6,1.7,6.9,0,8.3-3l5.5-11.9l-1.7-3.3l0.1-0.2l7.4,3.4l-0.1,0.2l-3.3,1L143.9,370z"
		/>
	<path class="st0" d="M181.1,364.2l0,0.2l-3.1,1.6l-5.3,21.3l-2.3-0.6l-11.7-21.9l-3.9,15.4l3,3.1l-0.1,0.2l-8.6-2.2l0.1-0.2
		l3.1-1.6l4.6-18.1c-0.9-1.6-2-3.5-2.1-3.7l0-0.2l7.5,1.9l10,18.9l3.3-13l-2.7-3.1l0-0.2L181.1,364.2z"/>
	<path class="st0" d="M195.2,365.2c7.5,0.5,13.6,4.9,13.1,12.5c-0.5,7.2-5.7,12.5-13.5,12l-12.9-0.8l0-0.2l2.7-2.1l1.2-19.5
		l-2.4-2.4l0-0.2L195.2,365.2z M191.6,367l-1.2,19.6c0.6,0.3,1.8,0.9,3.9,1c4.4,0.3,7.8-4.4,8.1-9.9c0.4-6.6-3.6-10.3-8.7-10.6
		L191.6,367z"/>
	<path class="st0" d="M214,390.1l0-0.2l2.4-2.4l-1.8-19.5l-2.8-2l0-0.2l17.3-1.6l0.5,5.4l-0.2,0l-3.3-3.1l-6,0.6l0.8,8.5l6.2-0.6
		l1.9-2.9l0.2,0l0.7,7.3l-0.2,0l-2.4-2.4l-6.2,0.6l0.9,9.6l6.7-0.6l2.7-4.6l0.3,0l0.6,6.4L214,390.1z"/>
	<path class="st0" d="M244.6,360.9c7.2-1.9,14.5,0.4,16.4,7.9c1.8,6.9-1.6,13.6-9.1,15.5l-12.5,3.2l-0.1-0.2l1.9-2.8l-4.9-18.9
		l-3-1.6l0-0.2L244.6,360.9z M241.7,363.8l4.9,19c0.6,0.1,2,0.2,4-0.3c4.2-1.1,6-6.6,4.6-11.9c-1.7-6.4-6.6-8.6-11.5-7.4
		L241.7,363.8z"/>
	<path class="st0" d="M279.8,374.7l-0.1-0.2l1.5-3.2l-7.7-16.2l-3.2-0.2l-0.1-0.2c0.3-0.3,5.8-5.8,6.3-6.3l9.8,20.4l3.5,0.8l0.1,0.2
		L279.8,374.7z"/>
	<path class="st0" d="M298.5,341.7c1.3,2.2,0.4,5-1.2,7.6c5,0.5,7.6,1.1,9.2,3.7c1.8,2.9,0.7,7.3-4.1,10.3
		c-4.5,2.8-8.4,2.5-10.1-0.2c-1.6-2.6-0.4-5.8,1.4-8.6c-4.7-0.3-6.7-1.3-8.1-3.6c-2-3.2,0.1-7.1,3.7-9.4
		C293.5,338.9,297.2,339.5,298.5,341.7z M295.8,349.2c0.2-1.5,0.1-3.1-0.8-4.5c-1.2-1.9-3.1-2.3-4.8-1.3c-1.5,0.9-2,2.6-1.3,3.8
		C289.9,348.6,291.4,348.9,295.8,349.2z M295.4,354.5c-0.4,1.7-0.5,3.7,0.6,5.5c1.1,1.8,3.4,2.4,5.3,1.2c1.9-1.2,2.5-3,1.6-4.5
		C301.9,355.3,300.5,354.8,295.4,354.5z"/>
	<path class="st0" d="M314.5,354.6l-0.1-0.2l0.8-3.4L304,336.9l-3.1,0.5l-0.1-0.2c0.2-0.3,4.4-7,4.7-7.5l14,17.8l3.5,0l0.1,0.2
		L314.5,354.6z"/>
	<path class="st0" d="M329.2,342.5c1.9-7,1.4-13.4-3.5-18.3c-3.2-3.2-7.1-3.8-8.4-2.5c-1,1-0.6,3.5,1.4,5.7c2.2,2.2,4.7,2.2,6.2,0.7
		c0.7-0.6,0.9-1.2,1-1.4l0.3,0.1c0.2,1,0.2,3.6-1.8,5.6c-2.4,2.4-6.1,2.6-9-0.3c-3.3-3.3-2.7-8.6,0.5-11.7c3.3-3.2,9.4-4.7,14.3,0.3
		c6.4,6.4,4.3,15.5-0.6,22.1L329.2,342.5z"/>
</g>
</svg>
